<?xml version="1.0" encoding="UTF-8" standalone="no"?>
<!DOCTYPE svg PUBLIC "-//W3C//DTD SVG 1.1//EN"
 "http://www.w3.org/Graphics/SVG/1.1/DTD/svg11.dtd">
<!-- Generated by graphviz version 2.43.0 (0)
 -->
<!-- Title: snakemake_dag Pages: 1 -->
<svg width="1237pt" height="332pt"
 viewBox="0.00 0.00 1236.50 332.00" xmlns="http://www.w3.org/2000/svg" xmlns:xlink="http://www.w3.org/1999/xlink">
<g id="graph0" class="graph" transform="scale(1 1) rotate(0) translate(4 328)">
<title>snakemake_dag</title>
<polygon fill="white" stroke="transparent" points="-4,4 -4,-328 1232.5,-328 1232.5,4 -4,4"/>
<!-- 0 -->
<g id="node1" class="node">
<title>0</title>
<path fill="none" stroke="#d85656" stroke-width="2" d="M267,-36C267,-36 237,-36 237,-36 231,-36 225,-30 225,-24 225,-24 225,-12 225,-12 225,-6 231,0 237,0 237,0 267,0 267,0 273,0 279,-6 279,-12 279,-12 279,-24 279,-24 279,-30 273,-36 267,-36"/>
<text text-anchor="middle" x="252" y="-15.5" font-family="sans" font-size="10.00">all</text>
</g>
<!-- 1 -->
<g id="node2" class="node">
<title>1</title>
<path fill="none" stroke="#56a9d8" stroke-width="2" d="M128,-180C128,-180 72,-180 72,-180 66,-180 60,-174 60,-168 60,-168 60,-156 60,-156 60,-150 66,-144 72,-144 72,-144 128,-144 128,-144 134,-144 140,-150 140,-156 140,-156 140,-168 140,-168 140,-174 134,-180 128,-180"/>
<text text-anchor="middle" x="100" y="-159.5" font-family="sans" font-size="10.00">starsolo_align</text>
</g>
<!-- 1&#45;&gt;0 -->
<g id="edge1" class="edge">
<title>1&#45;&gt;0</title>
<path fill="none" stroke="grey" stroke-width="2" d="M99.12,-143.87C99.05,-124.28 101.88,-92.29 119,-72 143.02,-43.54 184.48,-30.24 214.74,-24.1"/>
<polygon fill="grey" stroke="grey" stroke-width="2" points="215.74,-27.48 224.93,-22.22 214.46,-20.59 215.74,-27.48"/>
</g>
<!-- 7 -->
<g id="node8" class="node">
<title>7</title>
<path fill="none" stroke="#d88556" stroke-width="2" d="M181.5,-108C181.5,-108 140.5,-108 140.5,-108 134.5,-108 128.5,-102 128.5,-96 128.5,-96 128.5,-84 128.5,-84 128.5,-78 134.5,-72 140.5,-72 140.5,-72 181.5,-72 181.5,-72 187.5,-72 193.5,-78 193.5,-84 193.5,-84 193.5,-96 193.5,-96 193.5,-102 187.5,-108 181.5,-108"/>
<text text-anchor="middle" x="161" y="-87.5" font-family="sans" font-size="10.00">cell_calling</text>
</g>
<!-- 1&#45;&gt;7 -->
<g id="edge11" class="edge">
<title>1&#45;&gt;7</title>
<path fill="none" stroke="grey" stroke-width="2" d="M115.08,-143.7C122.39,-135.3 131.31,-125.07 139.34,-115.86"/>
<polygon fill="grey" stroke="grey" stroke-width="2" points="142.16,-117.94 146.09,-108.1 136.89,-113.34 142.16,-117.94"/>
</g>
<!-- 2 -->
<g id="node3" class="node">
<title>2</title>
<path fill="none" stroke="#56d8d8" stroke-width="2" d="M106,-252C106,-252 66,-252 66,-252 60,-252 54,-246 54,-240 54,-240 54,-228 54,-228 54,-222 60,-216 66,-216 66,-216 106,-216 106,-216 112,-216 118,-222 118,-228 118,-228 118,-240 118,-240 118,-246 112,-252 106,-252"/>
<text text-anchor="middle" x="86" y="-231.5" font-family="sans" font-size="10.00">star_index</text>
</g>
<!-- 2&#45;&gt;1 -->
<g id="edge7" class="edge">
<title>2&#45;&gt;1</title>
<path fill="none" stroke="grey" stroke-width="2" d="M89.46,-215.7C91,-207.98 92.86,-198.71 94.58,-190.11"/>
<polygon fill="grey" stroke="grey" stroke-width="2" points="98.05,-190.6 96.58,-180.1 91.19,-189.22 98.05,-190.6"/>
</g>
<!-- 3 -->
<g id="node4" class="node">
<title>3</title>
<path fill="none" stroke="#afd856" stroke-width="2" d="M106,-324C106,-324 12,-324 12,-324 6,-324 0,-318 0,-312 0,-312 0,-300 0,-300 0,-294 6,-288 12,-288 12,-288 106,-288 106,-288 112,-288 118,-294 118,-300 118,-300 118,-312 118,-312 118,-318 112,-324 106,-324"/>
<text text-anchor="middle" x="59" y="-309" font-family="sans" font-size="10.00">gff_to_gtf</text>
<text text-anchor="middle" x="59" y="-298" font-family="sans" font-size="10.00">sample: 6303_B_hap1</text>
</g>
<!-- 3&#45;&gt;2 -->
<g id="edge8" class="edge">
<title>3&#45;&gt;2</title>
<path fill="none" stroke="grey" stroke-width="2" d="M65.67,-287.7C68.71,-279.81 72.38,-270.3 75.76,-261.55"/>
<polygon fill="grey" stroke="grey" stroke-width="2" points="79.07,-262.69 79.4,-252.1 72.54,-260.17 79.07,-262.69"/>
</g>
<!-- 4 -->
<g id="node5" class="node">
<title>4</title>
<path fill="none" stroke="#56a9d8" stroke-width="2" d="M250,-180C250,-180 194,-180 194,-180 188,-180 182,-174 182,-168 182,-168 182,-156 182,-156 182,-150 188,-144 194,-144 194,-144 250,-144 250,-144 256,-144 262,-150 262,-156 262,-156 262,-168 262,-168 262,-174 256,-180 250,-180"/>
<text text-anchor="middle" x="222" y="-159.5" font-family="sans" font-size="10.00">starsolo_align</text>
</g>
<!-- 4&#45;&gt;0 -->
<g id="edge2" class="edge">
<title>4&#45;&gt;0</title>
<path fill="none" stroke="grey" stroke-width="2" d="M225.62,-143.87C230.75,-119.56 240.21,-74.82 246.29,-46.01"/>
<polygon fill="grey" stroke="grey" stroke-width="2" points="249.73,-46.7 248.37,-36.19 242.88,-45.25 249.73,-46.7"/>
</g>
<!-- 8 -->
<g id="node9" class="node">
<title>8</title>
<path fill="none" stroke="#d88556" stroke-width="2" d="M303.5,-108C303.5,-108 262.5,-108 262.5,-108 256.5,-108 250.5,-102 250.5,-96 250.5,-96 250.5,-84 250.5,-84 250.5,-78 256.5,-72 262.5,-72 262.5,-72 303.5,-72 303.5,-72 309.5,-72 315.5,-78 315.5,-84 315.5,-84 315.5,-96 315.5,-96 315.5,-102 309.5,-108 303.5,-108"/>
<text text-anchor="middle" x="283" y="-87.5" font-family="sans" font-size="10.00">cell_calling</text>
</g>
<!-- 4&#45;&gt;8 -->
<g id="edge12" class="edge">
<title>4&#45;&gt;8</title>
<path fill="none" stroke="grey" stroke-width="2" d="M237.08,-143.7C244.39,-135.3 253.31,-125.07 261.34,-115.86"/>
<polygon fill="grey" stroke="grey" stroke-width="2" points="264.16,-117.94 268.09,-108.1 258.89,-113.34 264.16,-117.94"/>
</g>
<!-- 5 -->
<g id="node6" class="node">
<title>5</title>
<path fill="none" stroke="#56d8d8" stroke-width="2" d="M201,-252C201,-252 161,-252 161,-252 155,-252 149,-246 149,-240 149,-240 149,-228 149,-228 149,-222 155,-216 161,-216 161,-216 201,-216 201,-216 207,-216 213,-222 213,-228 213,-228 213,-240 213,-240 213,-246 207,-252 201,-252"/>
<text text-anchor="middle" x="181" y="-231.5" font-family="sans" font-size="10.00">star_index</text>
</g>
<!-- 5&#45;&gt;4 -->
<g id="edge9" class="edge">
<title>5&#45;&gt;4</title>
<path fill="none" stroke="grey" stroke-width="2" d="M191.13,-215.7C195.85,-207.64 201.56,-197.89 206.78,-188.98"/>
<polygon fill="grey" stroke="grey" stroke-width="2" points="209.95,-190.5 211.98,-180.1 203.91,-186.96 209.95,-190.5"/>
</g>
<!-- 6 -->
<g id="node7" class="node">
<title>6</title>
<path fill="none" stroke="#afd856" stroke-width="2" d="M242,-324C242,-324 148,-324 148,-324 142,-324 136,-318 136,-312 136,-312 136,-300 136,-300 136,-294 142,-288 148,-288 148,-288 242,-288 242,-288 248,-288 254,-294 254,-300 254,-300 254,-312 254,-312 254,-318 248,-324 242,-324"/>
<text text-anchor="middle" x="195" y="-309" font-family="sans" font-size="10.00">gff_to_gtf</text>
<text text-anchor="middle" x="195" y="-298" font-family="sans" font-size="10.00">sample: 6303_B_hap2</text>
</g>
<!-- 6&#45;&gt;5 -->
<g id="edge10" class="edge">
<title>6&#45;&gt;5</title>
<path fill="none" stroke="grey" stroke-width="2" d="M191.54,-287.7C190,-279.98 188.14,-270.71 186.42,-262.11"/>
<polygon fill="grey" stroke="grey" stroke-width="2" points="189.81,-261.22 184.42,-252.1 182.95,-262.6 189.81,-261.22"/>
</g>
<!-- 7&#45;&gt;0 -->
<g id="edge3" class="edge">
<title>7&#45;&gt;0</title>
<path fill="none" stroke="grey" stroke-width="2" d="M183.49,-71.7C194.96,-62.88 209.06,-52.03 221.48,-42.47"/>
<polygon fill="grey" stroke="grey" stroke-width="2" points="223.97,-44.98 229.76,-36.1 219.7,-39.43 223.97,-44.98"/>
</g>
<!-- 8&#45;&gt;0 -->
<g id="edge4" class="edge">
<title>8&#45;&gt;0</title>
<path fill="none" stroke="grey" stroke-width="2" d="M275.34,-71.7C271.81,-63.73 267.54,-54.1 263.63,-45.26"/>
<polygon fill="grey" stroke="grey" stroke-width="2" points="266.82,-43.83 259.57,-36.1 260.42,-46.67 266.82,-43.83"/>
</g>
<!-- 9 -->
<g id="node10" class="node">
<title>9</title>
<path fill="none" stroke="#d8ac56" stroke-width="2" d="M459.5,-108C459.5,-108 400.5,-108 400.5,-108 394.5,-108 388.5,-102 388.5,-96 388.5,-96 388.5,-84 388.5,-84 388.5,-78 394.5,-72 400.5,-72 400.5,-72 459.5,-72 459.5,-72 465.5,-72 471.5,-78 471.5,-84 471.5,-84 471.5,-96 471.5,-96 471.5,-102 465.5,-108 459.5,-108"/>
<text text-anchor="middle" x="430" y="-87.5" font-family="sans" font-size="10.00">filter_markers</text>
</g>
<!-- 9&#45;&gt;0 -->
<g id="edge5" class="edge">
<title>9&#45;&gt;0</title>
<path fill="none" stroke="grey" stroke-width="2" d="M388.27,-72.59C357.99,-60.68 317.42,-44.73 288.44,-33.33"/>
<polygon fill="grey" stroke="grey" stroke-width="2" points="289.68,-30.06 279.09,-29.65 287.11,-36.57 289.68,-30.06"/>
</g>
<!-- 10 -->
<g id="node11" class="node">
<title>10</title>
<path fill="none" stroke="#59d856" stroke-width="2" d="M626.5,-180C626.5,-180 543.5,-180 543.5,-180 537.5,-180 531.5,-174 531.5,-168 531.5,-168 531.5,-156 531.5,-156 531.5,-150 537.5,-144 543.5,-144 543.5,-144 626.5,-144 626.5,-144 632.5,-144 638.5,-150 638.5,-156 638.5,-156 638.5,-168 638.5,-168 638.5,-174 632.5,-180 626.5,-180"/>
<text text-anchor="middle" x="585" y="-159.5" font-family="sans" font-size="10.00">hifi_variants_merge</text>
</g>
<!-- 10&#45;&gt;9 -->
<g id="edge13" class="edge">
<title>10&#45;&gt;9</title>
<path fill="none" stroke="grey" stroke-width="2" d="M547.08,-143.88C525.99,-134.35 499.54,-122.41 477.13,-112.28"/>
<polygon fill="grey" stroke="grey" stroke-width="2" points="478.35,-108.99 467.79,-108.07 475.47,-115.37 478.35,-108.99"/>
</g>
<!-- 19 -->
<g id="node20" class="node">
<title>19</title>
<path fill="none" stroke="#56d8a9" stroke-width="2" d="M612.5,-108C612.5,-108 529.5,-108 529.5,-108 523.5,-108 517.5,-102 517.5,-96 517.5,-96 517.5,-84 517.5,-84 517.5,-78 523.5,-72 529.5,-72 529.5,-72 612.5,-72 612.5,-72 618.5,-72 624.5,-78 624.5,-84 624.5,-84 624.5,-96 624.5,-96 624.5,-102 618.5,-108 612.5,-108"/>
<text text-anchor="middle" x="571" y="-87.5" font-family="sans" font-size="10.00">marker_diagnostics</text>
</g>
<!-- 10&#45;&gt;19 -->
<g id="edge28" class="edge">
<title>10&#45;&gt;19</title>
<path fill="none" stroke="grey" stroke-width="2" d="M581.54,-143.7C580,-135.98 578.14,-126.71 576.42,-118.11"/>
<polygon fill="grey" stroke="grey" stroke-width="2" points="579.81,-117.22 574.42,-108.1 572.95,-118.6 579.81,-117.22"/>
</g>
<!-- 11 -->
<g id="node12" class="node">
<title>11</title>
<path fill="none" stroke="#56d882" stroke-width="2" d="M346.5,-252C346.5,-252 243.5,-252 243.5,-252 237.5,-252 231.5,-246 231.5,-240 231.5,-240 231.5,-228 231.5,-228 231.5,-222 237.5,-216 243.5,-216 243.5,-216 346.5,-216 346.5,-216 352.5,-216 358.5,-222 358.5,-228 358.5,-228 358.5,-240 358.5,-240 358.5,-246 352.5,-252 346.5,-252"/>
<text text-anchor="middle" x="295" y="-237" font-family="sans" font-size="10.00">hifi_variants_per_chrom</text>
<text text-anchor="middle" x="295" y="-226" font-family="sans" font-size="10.00">chrom: scaffold_1</text>
</g>
<!-- 11&#45;&gt;10 -->
<g id="edge14" class="edge">
<title>11&#45;&gt;10</title>
<path fill="none" stroke="grey" stroke-width="2" d="M358.64,-217.64C406.9,-205.99 472.92,-190.05 521.21,-178.4"/>
<polygon fill="grey" stroke="grey" stroke-width="2" points="522.34,-181.73 531.24,-175.98 520.69,-174.92 522.34,-181.73"/>
</g>
<!-- 12 -->
<g id="node13" class="node">
<title>12</title>
<path fill="none" stroke="#80d856" stroke-width="2" d="M777,-324C777,-324 683,-324 683,-324 677,-324 671,-318 671,-312 671,-312 671,-300 671,-300 671,-294 677,-288 683,-288 683,-288 777,-288 777,-288 783,-288 789,-294 789,-300 789,-300 789,-312 789,-312 789,-318 783,-324 777,-324"/>
<text text-anchor="middle" x="730" y="-309" font-family="sans" font-size="10.00">hifi_align</text>
<text text-anchor="middle" x="730" y="-298" font-family="sans" font-size="10.00">sample: 6303_B_hap1</text>
</g>
<!-- 12&#45;&gt;11 -->
<g id="edge21" class="edge">
<title>12&#45;&gt;11</title>
<path fill="none" stroke="grey" stroke-width="2" d="M670.95,-297.98C601.01,-289.31 480.81,-273.28 368.67,-252.24"/>
<polygon fill="grey" stroke="grey" stroke-width="2" points="369.02,-248.74 358.54,-250.32 367.71,-255.62 369.02,-248.74"/>
</g>
<!-- 13 -->
<g id="node14" class="node">
<title>13</title>
<path fill="none" stroke="#56d882" stroke-width="2" d="M491.5,-252C491.5,-252 388.5,-252 388.5,-252 382.5,-252 376.5,-246 376.5,-240 376.5,-240 376.5,-228 376.5,-228 376.5,-222 382.5,-216 388.5,-216 388.5,-216 491.5,-216 491.5,-216 497.5,-216 503.5,-222 503.5,-228 503.5,-228 503.5,-240 503.5,-240 503.5,-246 497.5,-252 491.5,-252"/>
<text text-anchor="middle" x="440" y="-237" font-family="sans" font-size="10.00">hifi_variants_per_chrom</text>
<text text-anchor="middle" x="440" y="-226" font-family="sans" font-size="10.00">chrom: scaffold_3</text>
</g>
<!-- 12&#45;&gt;13 -->
<g id="edge22" class="edge">
<title>12&#45;&gt;13</title>
<path fill="none" stroke="grey" stroke-width="2" d="M670.96,-290.75C625.49,-279.77 562.36,-264.54 513.6,-252.76"/>
<polygon fill="grey" stroke="grey" stroke-width="2" points="514.27,-249.33 503.73,-250.38 512.63,-256.13 514.27,-249.33"/>
</g>
<!-- 14 -->
<g id="node15" class="node">
<title>14</title>
<path fill="none" stroke="#56d882" stroke-width="2" d="M636.5,-252C636.5,-252 533.5,-252 533.5,-252 527.5,-252 521.5,-246 521.5,-240 521.5,-240 521.5,-228 521.5,-228 521.5,-222 527.5,-216 533.5,-216 533.5,-216 636.5,-216 636.5,-216 642.5,-216 648.5,-222 648.5,-228 648.5,-228 648.5,-240 648.5,-240 648.5,-246 642.5,-252 636.5,-252"/>
<text text-anchor="middle" x="585" y="-237" font-family="sans" font-size="10.00">hifi_variants_per_chrom</text>
<text text-anchor="middle" x="585" y="-226" font-family="sans" font-size="10.00">chrom: scaffold_5</text>
</g>
<!-- 12&#45;&gt;14 -->
<g id="edge23" class="edge">
<title>12&#45;&gt;14</title>
<path fill="none" stroke="grey" stroke-width="2" d="M694.53,-287.88C674.88,-278.39 650.28,-266.51 629.37,-256.42"/>
<polygon fill="grey" stroke="grey" stroke-width="2" points="630.88,-253.26 620.36,-252.07 627.84,-259.57 630.88,-253.26"/>
</g>
<!-- 15 -->
<g id="node16" class="node">
<title>15</title>
<path fill="none" stroke="#56d882" stroke-width="2" d="M781.5,-252C781.5,-252 678.5,-252 678.5,-252 672.5,-252 666.5,-246 666.5,-240 666.5,-240 666.5,-228 666.5,-228 666.5,-222 672.5,-216 678.5,-216 678.5,-216 781.5,-216 781.5,-216 787.5,-216 793.5,-222 793.5,-228 793.5,-228 793.5,-240 793.5,-240 793.5,-246 787.5,-252 781.5,-252"/>
<text text-anchor="middle" x="730" y="-237" font-family="sans" font-size="10.00">hifi_variants_per_chrom</text>
<text text-anchor="middle" x="730" y="-226" font-family="sans" font-size="10.00">chrom: scaffold_7</text>
</g>
<!-- 12&#45;&gt;15 -->
<g id="edge24" class="edge">
<title>12&#45;&gt;15</title>
<path fill="none" stroke="grey" stroke-width="2" d="M730,-287.7C730,-279.98 730,-270.71 730,-262.11"/>
<polygon fill="grey" stroke="grey" stroke-width="2" points="733.5,-262.1 730,-252.1 726.5,-262.1 733.5,-262.1"/>
</g>
<!-- 16 -->
<g id="node17" class="node">
<title>16</title>
<path fill="none" stroke="#56d882" stroke-width="2" d="M926.5,-252C926.5,-252 823.5,-252 823.5,-252 817.5,-252 811.5,-246 811.5,-240 811.5,-240 811.5,-228 811.5,-228 811.5,-222 817.5,-216 823.5,-216 823.5,-216 926.5,-216 926.5,-216 932.5,-216 938.5,-222 938.5,-228 938.5,-228 938.5,-240 938.5,-240 938.5,-246 932.5,-252 926.5,-252"/>
<text text-anchor="middle" x="875" y="-237" font-family="sans" font-size="10.00">hifi_variants_per_chrom</text>
<text text-anchor="middle" x="875" y="-226" font-family="sans" font-size="10.00">chrom: scaffold_9</text>
</g>
<!-- 12&#45;&gt;16 -->
<g id="edge25" class="edge">
<title>12&#45;&gt;16</title>
<path fill="none" stroke="grey" stroke-width="2" d="M765.47,-287.88C785.12,-278.39 809.72,-266.51 830.63,-256.42"/>
<polygon fill="grey" stroke="grey" stroke-width="2" points="832.16,-259.57 839.64,-252.07 829.12,-253.26 832.16,-259.57"/>
</g>
<!-- 17 -->
<g id="node18" class="node">
<title>17</title>
<path fill="none" stroke="#56d882" stroke-width="2" d="M1071.5,-252C1071.5,-252 968.5,-252 968.5,-252 962.5,-252 956.5,-246 956.5,-240 956.5,-240 956.5,-228 956.5,-228 956.5,-222 962.5,-216 968.5,-216 968.5,-216 1071.5,-216 1071.5,-216 1077.5,-216 1083.5,-222 1083.5,-228 1083.5,-228 1083.5,-240 1083.5,-240 1083.5,-246 1077.5,-252 1071.5,-252"/>
<text text-anchor="middle" x="1020" y="-237" font-family="sans" font-size="10.00">hifi_variants_per_chrom</text>
<text text-anchor="middle" x="1020" y="-226" font-family="sans" font-size="10.00">chrom: scaffold_11</text>
</g>
<!-- 12&#45;&gt;17 -->
<g id="edge26" class="edge">
<title>12&#45;&gt;17</title>
<path fill="none" stroke="grey" stroke-width="2" d="M789.04,-290.75C834.51,-279.77 897.64,-264.54 946.4,-252.76"/>
<polygon fill="grey" stroke="grey" stroke-width="2" points="947.37,-256.13 956.27,-250.38 945.73,-249.33 947.37,-256.13"/>
</g>
<!-- 18 -->
<g id="node19" class="node">
<title>18</title>
<path fill="none" stroke="#56d882" stroke-width="2" d="M1216.5,-252C1216.5,-252 1113.5,-252 1113.5,-252 1107.5,-252 1101.5,-246 1101.5,-240 1101.5,-240 1101.5,-228 1101.5,-228 1101.5,-222 1107.5,-216 1113.5,-216 1113.5,-216 1216.5,-216 1216.5,-216 1222.5,-216 1228.5,-222 1228.5,-228 1228.5,-228 1228.5,-240 1228.5,-240 1228.5,-246 1222.5,-252 1216.5,-252"/>
<text text-anchor="middle" x="1165" y="-237" font-family="sans" font-size="10.00">hifi_variants_per_chrom</text>
<text text-anchor="middle" x="1165" y="-226" font-family="sans" font-size="10.00">chrom: scaffold_13</text>
</g>
<!-- 12&#45;&gt;18 -->
<g id="edge27" class="edge">
<title>12&#45;&gt;18</title>
<path fill="none" stroke="grey" stroke-width="2" d="M789.05,-297.98C858.99,-289.31 979.19,-273.28 1091.33,-252.24"/>
<polygon fill="grey" stroke="grey" stroke-width="2" points="1092.29,-255.62 1101.46,-250.32 1090.98,-248.74 1092.29,-255.62"/>
</g>
<!-- 13&#45;&gt;10 -->
<g id="edge15" class="edge">
<title>13&#45;&gt;10</title>
<path fill="none" stroke="grey" stroke-width="2" d="M475.47,-215.88C495.12,-206.39 519.72,-194.51 540.63,-184.42"/>
<polygon fill="grey" stroke="grey" stroke-width="2" points="542.16,-187.57 549.64,-180.07 539.12,-181.26 542.16,-187.57"/>
</g>
<!-- 14&#45;&gt;10 -->
<g id="edge16" class="edge">
<title>14&#45;&gt;10</title>
<path fill="none" stroke="grey" stroke-width="2" d="M585,-215.7C585,-207.98 585,-198.71 585,-190.11"/>
<polygon fill="grey" stroke="grey" stroke-width="2" points="588.5,-190.1 585,-180.1 581.5,-190.1 588.5,-190.1"/>
</g>
<!-- 15&#45;&gt;10 -->
<g id="edge17" class="edge">
<title>15&#45;&gt;10</title>
<path fill="none" stroke="grey" stroke-width="2" d="M694.53,-215.88C674.88,-206.39 650.28,-194.51 629.37,-184.42"/>
<polygon fill="grey" stroke="grey" stroke-width="2" points="630.88,-181.26 620.36,-180.07 627.84,-187.57 630.88,-181.26"/>
</g>
<!-- 16&#45;&gt;10 -->
<g id="edge18" class="edge">
<title>16&#45;&gt;10</title>
<path fill="none" stroke="grey" stroke-width="2" d="M811.36,-217.64C763.1,-205.99 697.08,-190.05 648.79,-178.4"/>
<polygon fill="grey" stroke="grey" stroke-width="2" points="649.31,-174.92 638.76,-175.98 647.66,-181.73 649.31,-174.92"/>
</g>
<!-- 17&#45;&gt;10 -->
<g id="edge19" class="edge">
<title>17&#45;&gt;10</title>
<path fill="none" stroke="grey" stroke-width="2" d="M956.46,-217.68C953.61,-217.09 950.78,-216.53 948,-216 843.95,-196.16 721.88,-179.73 649.12,-170.65"/>
<polygon fill="grey" stroke="grey" stroke-width="2" points="649.11,-167.12 638.75,-169.37 648.25,-174.07 649.11,-167.12"/>
</g>
<!-- 18&#45;&gt;10 -->
<g id="edge20" class="edge">
<title>18&#45;&gt;10</title>
<path fill="none" stroke="grey" stroke-width="2" d="M1101.49,-217.54C1098.62,-216.99 1095.79,-216.47 1093,-216 934.42,-189.12 745.52,-173.72 648.89,-167.03"/>
<polygon fill="grey" stroke="grey" stroke-width="2" points="648.91,-163.53 638.7,-166.33 648.43,-170.51 648.91,-163.53"/>
</g>
<!-- 19&#45;&gt;0 -->
<g id="edge6" class="edge">
<title>19&#45;&gt;0</title>
<path fill="none" stroke="grey" stroke-width="2" d="M517.25,-77.2C452.39,-62.97 345.07,-39.42 288.89,-27.09"/>
<polygon fill="grey" stroke="grey" stroke-width="2" points="289.53,-23.65 279.02,-24.93 288.03,-30.49 289.53,-23.65"/>
</g>
</g>
</svg>
