<?xml version="1.0" encoding="UTF-8" standalone="no"?>
<!DOCTYPE svg PUBLIC "-//W3C//DTD SVG 1.1//EN"
 "http://www.w3.org/Graphics/SVG/1.1/DTD/svg11.dtd">
<!-- Generated by graphviz version 2.43.0 (0)
 -->
<!-- Title: snakemake_dag Pages: 1 -->
<svg width="1224pt" height="764pt"
 viewBox="0.00 0.00 1224.00 764.00" xmlns="http://www.w3.org/2000/svg" xmlns:xlink="http://www.w3.org/1999/xlink">
<g id="graph0" class="graph" transform="scale(1 1) rotate(0) translate(4 760)">
<title>snakemake_dag</title>
<polygon fill="white" stroke="transparent" points="-4,4 -4,-760 1220,-760 1220,4 -4,4"/>
<!-- 0 -->
<g id="node1" class="node">
<title>0</title>
<path fill="none" stroke="#d85656" stroke-width="2" d="M689,-36C689,-36 659,-36 659,-36 653,-36 647,-30 647,-24 647,-24 647,-12 647,-12 647,-6 653,0 659,0 659,0 689,0 689,0 695,0 701,-6 701,-12 701,-12 701,-24 701,-24 701,-30 695,-36 689,-36"/>
<text text-anchor="middle" x="674" y="-15.5" font-family="sans" font-size="10.00">all</text>
</g>
<!-- 1 -->
<g id="node2" class="node">
<title>1</title>
<path fill="none" stroke="#56a9d8" stroke-width="2" d="M850,-612C850,-612 794,-612 794,-612 788,-612 782,-606 782,-600 782,-600 782,-588 782,-588 782,-582 788,-576 794,-576 794,-576 850,-576 850,-576 856,-576 862,-582 862,-588 862,-588 862,-600 862,-600 862,-606 856,-612 850,-612"/>
<text text-anchor="middle" x="822" y="-591.5" font-family="sans" font-size="10.00">starsolo_align</text>
</g>
<!-- 1&#45;&gt;0 -->
<g id="edge1" class="edge">
<title>1&#45;&gt;0</title>
<path fill="none" stroke="grey" stroke-width="2" d="M788.98,-575.89C774.92,-567 759.6,-554.87 750,-540 728.06,-506.02 731,-491.45 731,-451 731,-451 731,-451 731,-161 731,-117.8 708,-72.19 691.22,-44.66"/>
<polygon fill="grey" stroke="grey" stroke-width="2" points="694.09,-42.65 685.81,-36.04 688.17,-46.37 694.09,-42.65"/>
</g>
<!-- 7 -->
<g id="node8" class="node">
<title>7</title>
<path fill="none" stroke="#d87556" stroke-width="2" d="M812.5,-540C812.5,-540 771.5,-540 771.5,-540 765.5,-540 759.5,-534 759.5,-528 759.5,-528 759.5,-516 759.5,-516 759.5,-510 765.5,-504 771.5,-504 771.5,-504 812.5,-504 812.5,-504 818.5,-504 824.5,-510 824.5,-516 824.5,-516 824.5,-528 824.5,-528 824.5,-534 818.5,-540 812.5,-540"/>
<text text-anchor="middle" x="792" y="-519.5" font-family="sans" font-size="10.00">cell_calling</text>
</g>
<!-- 1&#45;&gt;7 -->
<g id="edge21" class="edge">
<title>1&#45;&gt;7</title>
<path fill="none" stroke="grey" stroke-width="2" d="M814.58,-575.7C811.21,-567.81 807.13,-558.3 803.38,-549.55"/>
<polygon fill="grey" stroke="grey" stroke-width="2" points="806.49,-547.92 799.33,-540.1 800.05,-550.67 806.49,-547.92"/>
</g>
<!-- 20 -->
<g id="node21" class="node">
<title>20</title>
<path fill="none" stroke="#d88d56" stroke-width="2" d="M883,-468C883,-468 809,-468 809,-468 803,-468 797,-462 797,-456 797,-456 797,-444 797,-444 797,-438 803,-432 809,-432 809,-432 883,-432 883,-432 889,-432 895,-438 895,-444 895,-444 895,-456 895,-456 895,-462 889,-468 883,-468"/>
<text text-anchor="middle" x="846" y="-447.5" font-family="sans" font-size="10.00">cell_snp_counting</text>
</g>
<!-- 1&#45;&gt;20 -->
<g id="edge39" class="edge">
<title>1&#45;&gt;20</title>
<path fill="none" stroke="grey" stroke-width="2" d="M825.83,-575.86C828.07,-565.51 830.87,-552.03 833,-540 836.64,-519.37 840.04,-495.92 842.45,-478.27"/>
<polygon fill="grey" stroke="grey" stroke-width="2" points="845.95,-478.49 843.81,-468.11 839.01,-477.56 845.95,-478.49"/>
</g>
<!-- 2 -->
<g id="node3" class="node">
<title>2</title>
<path fill="none" stroke="#56c9d8" stroke-width="2" d="M1177,-684C1177,-684 1137,-684 1137,-684 1131,-684 1125,-678 1125,-672 1125,-672 1125,-660 1125,-660 1125,-654 1131,-648 1137,-648 1137,-648 1177,-648 1177,-648 1183,-648 1189,-654 1189,-660 1189,-660 1189,-672 1189,-672 1189,-678 1183,-684 1177,-684"/>
<text text-anchor="middle" x="1157" y="-663.5" font-family="sans" font-size="10.00">star_index</text>
</g>
<!-- 2&#45;&gt;1 -->
<g id="edge17" class="edge">
<title>2&#45;&gt;1</title>
<path fill="none" stroke="grey" stroke-width="2" d="M1124.55,-650.81C1121.69,-649.78 1118.81,-648.83 1116,-648 1032.21,-623.39 931.44,-608.22 872.29,-600.73"/>
<polygon fill="grey" stroke="grey" stroke-width="2" points="872.45,-597.22 862.1,-599.46 871.59,-604.16 872.45,-597.22"/>
</g>
<!-- 3 -->
<g id="node4" class="node">
<title>3</title>
<path fill="none" stroke="#70d856" stroke-width="2" d="M1204,-756C1204,-756 1110,-756 1110,-756 1104,-756 1098,-750 1098,-744 1098,-744 1098,-732 1098,-732 1098,-726 1104,-720 1110,-720 1110,-720 1204,-720 1204,-720 1210,-720 1216,-726 1216,-732 1216,-732 1216,-744 1216,-744 1216,-750 1210,-756 1204,-756"/>
<text text-anchor="middle" x="1157" y="-741" font-family="sans" font-size="10.00">gff_to_gtf</text>
<text text-anchor="middle" x="1157" y="-730" font-family="sans" font-size="10.00">sample: 6303_B_hap1</text>
</g>
<!-- 3&#45;&gt;2 -->
<g id="edge18" class="edge">
<title>3&#45;&gt;2</title>
<path fill="none" stroke="grey" stroke-width="2" d="M1157,-719.7C1157,-711.98 1157,-702.71 1157,-694.11"/>
<polygon fill="grey" stroke="grey" stroke-width="2" points="1160.5,-694.1 1157,-684.1 1153.5,-694.1 1160.5,-694.1"/>
</g>
<!-- 4 -->
<g id="node5" class="node">
<title>4</title>
<path fill="none" stroke="#56a9d8" stroke-width="2" d="M366,-612C366,-612 310,-612 310,-612 304,-612 298,-606 298,-600 298,-600 298,-588 298,-588 298,-582 304,-576 310,-576 310,-576 366,-576 366,-576 372,-576 378,-582 378,-588 378,-588 378,-600 378,-600 378,-606 372,-612 366,-612"/>
<text text-anchor="middle" x="338" y="-591.5" font-family="sans" font-size="10.00">starsolo_align</text>
</g>
<!-- 4&#45;&gt;0 -->
<g id="edge2" class="edge">
<title>4&#45;&gt;0</title>
<path fill="none" stroke="grey" stroke-width="2" d="M331.93,-575.76C323.16,-549.28 308,-496.86 308,-451 308,-451 308,-451 308,-161 308,-114.5 324.44,-97.99 363,-72 407.26,-42.17 564.41,-27.04 636.89,-21.52"/>
<polygon fill="grey" stroke="grey" stroke-width="2" points="637.23,-25 646.94,-20.77 636.71,-18.02 637.23,-25"/>
</g>
<!-- 8 -->
<g id="node9" class="node">
<title>8</title>
<path fill="none" stroke="#d87556" stroke-width="2" d="M389.5,-540C389.5,-540 348.5,-540 348.5,-540 342.5,-540 336.5,-534 336.5,-528 336.5,-528 336.5,-516 336.5,-516 336.5,-510 342.5,-504 348.5,-504 348.5,-504 389.5,-504 389.5,-504 395.5,-504 401.5,-510 401.5,-516 401.5,-516 401.5,-528 401.5,-528 401.5,-534 395.5,-540 389.5,-540"/>
<text text-anchor="middle" x="369" y="-519.5" font-family="sans" font-size="10.00">cell_calling</text>
</g>
<!-- 4&#45;&gt;8 -->
<g id="edge22" class="edge">
<title>4&#45;&gt;8</title>
<path fill="none" stroke="grey" stroke-width="2" d="M345.66,-575.7C349.19,-567.73 353.46,-558.1 357.37,-549.26"/>
<polygon fill="grey" stroke="grey" stroke-width="2" points="360.58,-550.67 361.43,-540.1 354.18,-547.83 360.58,-550.67"/>
</g>
<!-- 21 -->
<g id="node22" class="node">
<title>21</title>
<path fill="none" stroke="#d88d56" stroke-width="2" d="M467,-468C467,-468 393,-468 393,-468 387,-468 381,-462 381,-456 381,-456 381,-444 381,-444 381,-438 387,-432 393,-432 393,-432 467,-432 467,-432 473,-432 479,-438 479,-444 479,-444 479,-456 479,-456 479,-462 473,-468 467,-468"/>
<text text-anchor="middle" x="430" y="-447.5" font-family="sans" font-size="10.00">cell_snp_counting</text>
</g>
<!-- 4&#45;&gt;21 -->
<g id="edge42" class="edge">
<title>4&#45;&gt;21</title>
<path fill="none" stroke="grey" stroke-width="2" d="M370.95,-575.84C384.99,-566.94 400.32,-554.81 410,-540 422.02,-521.6 426.88,-497 428.82,-478.32"/>
<polygon fill="grey" stroke="grey" stroke-width="2" points="432.33,-478.36 429.65,-468.1 425.35,-477.79 432.33,-478.36"/>
</g>
<!-- 5 -->
<g id="node6" class="node">
<title>5</title>
<path fill="none" stroke="#56c9d8" stroke-width="2" d="M79,-684C79,-684 39,-684 39,-684 33,-684 27,-678 27,-672 27,-672 27,-660 27,-660 27,-654 33,-648 39,-648 39,-648 79,-648 79,-648 85,-648 91,-654 91,-660 91,-660 91,-672 91,-672 91,-678 85,-684 79,-684"/>
<text text-anchor="middle" x="59" y="-663.5" font-family="sans" font-size="10.00">star_index</text>
</g>
<!-- 5&#45;&gt;4 -->
<g id="edge19" class="edge">
<title>5&#45;&gt;4</title>
<path fill="none" stroke="grey" stroke-width="2" d="M91.03,-651.1C94.04,-649.98 97.06,-648.93 100,-648 163.69,-627.87 239.27,-612.42 287.9,-603.53"/>
<polygon fill="grey" stroke="grey" stroke-width="2" points="288.64,-606.96 297.86,-601.73 287.39,-600.07 288.64,-606.96"/>
</g>
<!-- 6 -->
<g id="node7" class="node">
<title>6</title>
<path fill="none" stroke="#70d856" stroke-width="2" d="M106,-756C106,-756 12,-756 12,-756 6,-756 0,-750 0,-744 0,-744 0,-732 0,-732 0,-726 6,-720 12,-720 12,-720 106,-720 106,-720 112,-720 118,-726 118,-732 118,-732 118,-744 118,-744 118,-750 112,-756 106,-756"/>
<text text-anchor="middle" x="59" y="-741" font-family="sans" font-size="10.00">gff_to_gtf</text>
<text text-anchor="middle" x="59" y="-730" font-family="sans" font-size="10.00">sample: 6303_B_hap2</text>
</g>
<!-- 6&#45;&gt;5 -->
<g id="edge20" class="edge">
<title>6&#45;&gt;5</title>
<path fill="none" stroke="grey" stroke-width="2" d="M59,-719.7C59,-711.98 59,-702.71 59,-694.11"/>
<polygon fill="grey" stroke="grey" stroke-width="2" points="62.5,-694.1 59,-684.1 55.5,-694.1 62.5,-694.1"/>
</g>
<!-- 7&#45;&gt;0 -->
<g id="edge3" class="edge">
<title>7&#45;&gt;0</title>
<path fill="none" stroke="grey" stroke-width="2" d="M787.35,-503.66C780.62,-477.05 769,-424.45 769,-379 769,-379 769,-379 769,-161 769,-120.03 768.01,-105.89 745,-72 736.01,-58.77 722.61,-47.54 709.86,-38.87"/>
<polygon fill="grey" stroke="grey" stroke-width="2" points="711.51,-35.76 701.21,-33.28 707.71,-41.65 711.51,-35.76"/>
</g>
<!-- 7&#45;&gt;20 -->
<g id="edge40" class="edge">
<title>7&#45;&gt;20</title>
<path fill="none" stroke="grey" stroke-width="2" d="M805.35,-503.7C811.76,-495.39 819.56,-485.28 826.61,-476.14"/>
<polygon fill="grey" stroke="grey" stroke-width="2" points="829.47,-478.16 832.81,-468.1 823.93,-473.88 829.47,-478.16"/>
</g>
<!-- 8&#45;&gt;0 -->
<g id="edge4" class="edge">
<title>8&#45;&gt;0</title>
<path fill="none" stroke="grey" stroke-width="2" d="M364.95,-503.62C359.11,-476.97 349,-424.31 349,-379 349,-379 349,-379 349,-161 349,-36.58 551.5,-20.1 636.81,-18.68"/>
<polygon fill="grey" stroke="grey" stroke-width="2" points="636.89,-22.18 646.85,-18.58 636.81,-15.18 636.89,-22.18"/>
</g>
<!-- 8&#45;&gt;21 -->
<g id="edge43" class="edge">
<title>8&#45;&gt;21</title>
<path fill="none" stroke="grey" stroke-width="2" d="M384.08,-503.7C391.39,-495.3 400.31,-485.07 408.34,-475.86"/>
<polygon fill="grey" stroke="grey" stroke-width="2" points="411.16,-477.94 415.09,-468.1 405.89,-473.34 411.16,-477.94"/>
</g>
<!-- 9 -->
<g id="node10" class="node">
<title>9</title>
<path fill="none" stroke="#afd856" stroke-width="2" d="M599.5,-540C599.5,-540 540.5,-540 540.5,-540 534.5,-540 528.5,-534 528.5,-528 528.5,-528 528.5,-516 528.5,-516 528.5,-510 534.5,-504 540.5,-504 540.5,-504 599.5,-504 599.5,-504 605.5,-504 611.5,-510 611.5,-516 611.5,-516 611.5,-528 611.5,-528 611.5,-534 605.5,-540 599.5,-540"/>
<text text-anchor="middle" x="570" y="-519.5" font-family="sans" font-size="10.00">filter_markers</text>
</g>
<!-- 9&#45;&gt;0 -->
<g id="edge5" class="edge">
<title>9&#45;&gt;0</title>
<path fill="none" stroke="grey" stroke-width="2" d="M571.98,-503.68C574.32,-485.56 578.82,-456.4 586,-432 600.69,-382.12 617.26,-374.15 631,-324 658.43,-223.88 668.99,-100.22 672.49,-46.29"/>
<polygon fill="grey" stroke="grey" stroke-width="2" points="675.99,-46.37 673.11,-36.17 669,-45.94 675.99,-46.37"/>
</g>
<!-- 9&#45;&gt;20 -->
<g id="edge41" class="edge">
<title>9&#45;&gt;20</title>
<path fill="none" stroke="grey" stroke-width="2" d="M611.62,-510.44C658.16,-498.64 733.93,-479.42 786.67,-466.05"/>
<polygon fill="grey" stroke="grey" stroke-width="2" points="787.73,-469.39 796.57,-463.54 786.01,-462.6 787.73,-469.39"/>
</g>
<!-- 9&#45;&gt;21 -->
<g id="edge44" class="edge">
<title>9&#45;&gt;21</title>
<path fill="none" stroke="grey" stroke-width="2" d="M535.75,-503.88C516.94,-494.47 493.42,-482.71 473.33,-472.67"/>
<polygon fill="grey" stroke="grey" stroke-width="2" points="474.89,-469.53 464.38,-468.19 471.76,-475.79 474.89,-469.53"/>
</g>
<!-- 10 -->
<g id="node11" class="node">
<title>10</title>
<path fill="none" stroke="#56d873" stroke-width="2" d="M649.5,-612C649.5,-612 566.5,-612 566.5,-612 560.5,-612 554.5,-606 554.5,-600 554.5,-600 554.5,-588 554.5,-588 554.5,-582 560.5,-576 566.5,-576 566.5,-576 649.5,-576 649.5,-576 655.5,-576 661.5,-582 661.5,-588 661.5,-588 661.5,-600 661.5,-600 661.5,-606 655.5,-612 649.5,-612"/>
<text text-anchor="middle" x="608" y="-591.5" font-family="sans" font-size="10.00">hifi_variants_merge</text>
</g>
<!-- 10&#45;&gt;9 -->
<g id="edge23" class="edge">
<title>10&#45;&gt;9</title>
<path fill="none" stroke="grey" stroke-width="2" d="M598.61,-575.7C594.24,-567.64 588.94,-557.89 584.1,-548.98"/>
<polygon fill="grey" stroke="grey" stroke-width="2" points="587.13,-547.22 579.29,-540.1 580.98,-550.56 587.13,-547.22"/>
</g>
<!-- 19 -->
<g id="node20" class="node">
<title>19</title>
<path fill="none" stroke="#56d8a9" stroke-width="2" d="M690.5,-468C690.5,-468 607.5,-468 607.5,-468 601.5,-468 595.5,-462 595.5,-456 595.5,-456 595.5,-444 595.5,-444 595.5,-438 601.5,-432 607.5,-432 607.5,-432 690.5,-432 690.5,-432 696.5,-432 702.5,-438 702.5,-444 702.5,-444 702.5,-456 702.5,-456 702.5,-462 696.5,-468 690.5,-468"/>
<text text-anchor="middle" x="649" y="-447.5" font-family="sans" font-size="10.00">marker_diagnostics</text>
</g>
<!-- 10&#45;&gt;19 -->
<g id="edge38" class="edge">
<title>10&#45;&gt;19</title>
<path fill="none" stroke="grey" stroke-width="2" d="M612.95,-575.87C619.96,-551.56 632.88,-506.82 641.2,-478.01"/>
<polygon fill="grey" stroke="grey" stroke-width="2" points="644.63,-478.77 644.04,-468.19 637.9,-476.83 644.63,-478.77"/>
</g>
<!-- 11 -->
<g id="node12" class="node">
<title>11</title>
<path fill="none" stroke="#56d892" stroke-width="2" d="M1094.5,-684C1094.5,-684 991.5,-684 991.5,-684 985.5,-684 979.5,-678 979.5,-672 979.5,-672 979.5,-660 979.5,-660 979.5,-654 985.5,-648 991.5,-648 991.5,-648 1094.5,-648 1094.5,-648 1100.5,-648 1106.5,-654 1106.5,-660 1106.5,-660 1106.5,-672 1106.5,-672 1106.5,-678 1100.5,-684 1094.5,-684"/>
<text text-anchor="middle" x="1043" y="-669" font-family="sans" font-size="10.00">hifi_variants_per_chrom</text>
<text text-anchor="middle" x="1043" y="-658" font-family="sans" font-size="10.00">chrom: scaffold_1</text>
</g>
<!-- 11&#45;&gt;10 -->
<g id="edge24" class="edge">
<title>11&#45;&gt;10</title>
<path fill="none" stroke="grey" stroke-width="2" d="M979.37,-649.85C976.2,-649.2 973.07,-648.58 970,-648 866.2,-628.35 744.48,-611.86 671.93,-602.72"/>
<polygon fill="grey" stroke="grey" stroke-width="2" points="671.95,-599.2 661.6,-601.43 671.08,-606.14 671.95,-599.2"/>
</g>
<!-- 12 -->
<g id="node13" class="node">
<title>12</title>
<path fill="none" stroke="#59d856" stroke-width="2" d="M655,-756C655,-756 561,-756 561,-756 555,-756 549,-750 549,-744 549,-744 549,-732 549,-732 549,-726 555,-720 561,-720 561,-720 655,-720 655,-720 661,-720 667,-726 667,-732 667,-732 667,-744 667,-744 667,-750 661,-756 655,-756"/>
<text text-anchor="middle" x="608" y="-741" font-family="sans" font-size="10.00">hifi_align</text>
<text text-anchor="middle" x="608" y="-730" font-family="sans" font-size="10.00">sample: 6303_B_hap1</text>
</g>
<!-- 12&#45;&gt;11 -->
<g id="edge31" class="edge">
<title>12&#45;&gt;11</title>
<path fill="none" stroke="grey" stroke-width="2" d="M667.19,-729.87C737.05,-721.12 856.88,-705.03 969.53,-684"/>
<polygon fill="grey" stroke="grey" stroke-width="2" points="970.19,-687.44 979.37,-682.15 968.89,-680.56 970.19,-687.44"/>
</g>
<!-- 13 -->
<g id="node14" class="node">
<title>13</title>
<path fill="none" stroke="#56d892" stroke-width="2" d="M224.5,-684C224.5,-684 121.5,-684 121.5,-684 115.5,-684 109.5,-678 109.5,-672 109.5,-672 109.5,-660 109.5,-660 109.5,-654 115.5,-648 121.5,-648 121.5,-648 224.5,-648 224.5,-648 230.5,-648 236.5,-654 236.5,-660 236.5,-660 236.5,-672 236.5,-672 236.5,-678 230.5,-684 224.5,-684"/>
<text text-anchor="middle" x="173" y="-669" font-family="sans" font-size="10.00">hifi_variants_per_chrom</text>
<text text-anchor="middle" x="173" y="-658" font-family="sans" font-size="10.00">chrom: scaffold_3</text>
</g>
<!-- 12&#45;&gt;13 -->
<g id="edge32" class="edge">
<title>12&#45;&gt;13</title>
<path fill="none" stroke="grey" stroke-width="2" d="M548.95,-729.98C479.01,-721.31 358.81,-705.28 246.67,-684.24"/>
<polygon fill="grey" stroke="grey" stroke-width="2" points="247.02,-680.74 236.54,-682.32 245.71,-687.62 247.02,-680.74"/>
</g>
<!-- 14 -->
<g id="node15" class="node">
<title>14</title>
<path fill="none" stroke="#56d892" stroke-width="2" d="M369.5,-684C369.5,-684 266.5,-684 266.5,-684 260.5,-684 254.5,-678 254.5,-672 254.5,-672 254.5,-660 254.5,-660 254.5,-654 260.5,-648 266.5,-648 266.5,-648 369.5,-648 369.5,-648 375.5,-648 381.5,-654 381.5,-660 381.5,-660 381.5,-672 381.5,-672 381.5,-678 375.5,-684 369.5,-684"/>
<text text-anchor="middle" x="318" y="-669" font-family="sans" font-size="10.00">hifi_variants_per_chrom</text>
<text text-anchor="middle" x="318" y="-658" font-family="sans" font-size="10.00">chrom: scaffold_5</text>
</g>
<!-- 12&#45;&gt;14 -->
<g id="edge33" class="edge">
<title>12&#45;&gt;14</title>
<path fill="none" stroke="grey" stroke-width="2" d="M548.96,-722.75C503.49,-711.77 440.36,-696.54 391.6,-684.76"/>
<polygon fill="grey" stroke="grey" stroke-width="2" points="392.27,-681.33 381.73,-682.38 390.63,-688.13 392.27,-681.33"/>
</g>
<!-- 15 -->
<g id="node16" class="node">
<title>15</title>
<path fill="none" stroke="#56d892" stroke-width="2" d="M514.5,-684C514.5,-684 411.5,-684 411.5,-684 405.5,-684 399.5,-678 399.5,-672 399.5,-672 399.5,-660 399.5,-660 399.5,-654 405.5,-648 411.5,-648 411.5,-648 514.5,-648 514.5,-648 520.5,-648 526.5,-654 526.5,-660 526.5,-660 526.5,-672 526.5,-672 526.5,-678 520.5,-684 514.5,-684"/>
<text text-anchor="middle" x="463" y="-669" font-family="sans" font-size="10.00">hifi_variants_per_chrom</text>
<text text-anchor="middle" x="463" y="-658" font-family="sans" font-size="10.00">chrom: scaffold_7</text>
</g>
<!-- 12&#45;&gt;15 -->
<g id="edge34" class="edge">
<title>12&#45;&gt;15</title>
<path fill="none" stroke="grey" stroke-width="2" d="M572.53,-719.88C552.88,-710.39 528.28,-698.51 507.37,-688.42"/>
<polygon fill="grey" stroke="grey" stroke-width="2" points="508.88,-685.26 498.36,-684.07 505.84,-691.57 508.88,-685.26"/>
</g>
<!-- 16 -->
<g id="node17" class="node">
<title>16</title>
<path fill="none" stroke="#56d892" stroke-width="2" d="M659.5,-684C659.5,-684 556.5,-684 556.5,-684 550.5,-684 544.5,-678 544.5,-672 544.5,-672 544.5,-660 544.5,-660 544.5,-654 550.5,-648 556.5,-648 556.5,-648 659.5,-648 659.5,-648 665.5,-648 671.5,-654 671.5,-660 671.5,-660 671.5,-672 671.5,-672 671.5,-678 665.5,-684 659.5,-684"/>
<text text-anchor="middle" x="608" y="-669" font-family="sans" font-size="10.00">hifi_variants_per_chrom</text>
<text text-anchor="middle" x="608" y="-658" font-family="sans" font-size="10.00">chrom: scaffold_9</text>
</g>
<!-- 12&#45;&gt;16 -->
<g id="edge35" class="edge">
<title>12&#45;&gt;16</title>
<path fill="none" stroke="grey" stroke-width="2" d="M608,-719.7C608,-711.98 608,-702.71 608,-694.11"/>
<polygon fill="grey" stroke="grey" stroke-width="2" points="611.5,-694.1 608,-684.1 604.5,-694.1 611.5,-694.1"/>
</g>
<!-- 17 -->
<g id="node18" class="node">
<title>17</title>
<path fill="none" stroke="#56d892" stroke-width="2" d="M804.5,-684C804.5,-684 701.5,-684 701.5,-684 695.5,-684 689.5,-678 689.5,-672 689.5,-672 689.5,-660 689.5,-660 689.5,-654 695.5,-648 701.5,-648 701.5,-648 804.5,-648 804.5,-648 810.5,-648 816.5,-654 816.5,-660 816.5,-660 816.5,-672 816.5,-672 816.5,-678 810.5,-684 804.5,-684"/>
<text text-anchor="middle" x="753" y="-669" font-family="sans" font-size="10.00">hifi_variants_per_chrom</text>
<text text-anchor="middle" x="753" y="-658" font-family="sans" font-size="10.00">chrom: scaffold_11</text>
</g>
<!-- 12&#45;&gt;17 -->
<g id="edge36" class="edge">
<title>12&#45;&gt;17</title>
<path fill="none" stroke="grey" stroke-width="2" d="M643.47,-719.88C663.12,-710.39 687.72,-698.51 708.63,-688.42"/>
<polygon fill="grey" stroke="grey" stroke-width="2" points="710.16,-691.57 717.64,-684.07 707.12,-685.26 710.16,-691.57"/>
</g>
<!-- 18 -->
<g id="node19" class="node">
<title>18</title>
<path fill="none" stroke="#56d892" stroke-width="2" d="M949.5,-684C949.5,-684 846.5,-684 846.5,-684 840.5,-684 834.5,-678 834.5,-672 834.5,-672 834.5,-660 834.5,-660 834.5,-654 840.5,-648 846.5,-648 846.5,-648 949.5,-648 949.5,-648 955.5,-648 961.5,-654 961.5,-660 961.5,-660 961.5,-672 961.5,-672 961.5,-678 955.5,-684 949.5,-684"/>
<text text-anchor="middle" x="898" y="-669" font-family="sans" font-size="10.00">hifi_variants_per_chrom</text>
<text text-anchor="middle" x="898" y="-658" font-family="sans" font-size="10.00">chrom: scaffold_13</text>
</g>
<!-- 12&#45;&gt;18 -->
<g id="edge37" class="edge">
<title>12&#45;&gt;18</title>
<path fill="none" stroke="grey" stroke-width="2" d="M667.04,-722.75C712.51,-711.77 775.64,-696.54 824.4,-684.76"/>
<polygon fill="grey" stroke="grey" stroke-width="2" points="825.37,-688.13 834.27,-682.38 823.73,-681.33 825.37,-688.13"/>
</g>
<!-- 13&#45;&gt;10 -->
<g id="edge25" class="edge">
<title>13&#45;&gt;10</title>
<path fill="none" stroke="grey" stroke-width="2" d="M236.54,-649.68C239.39,-649.09 242.22,-648.53 245,-648 349.05,-628.16 471.12,-611.73 543.88,-602.65"/>
<polygon fill="grey" stroke="grey" stroke-width="2" points="544.75,-606.07 554.25,-601.37 543.89,-599.12 544.75,-606.07"/>
</g>
<!-- 14&#45;&gt;10 -->
<g id="edge26" class="edge">
<title>14&#45;&gt;10</title>
<path fill="none" stroke="grey" stroke-width="2" d="M381.64,-649.64C429.9,-637.99 495.92,-622.05 544.21,-610.4"/>
<polygon fill="grey" stroke="grey" stroke-width="2" points="545.34,-613.73 554.24,-607.98 543.69,-606.92 545.34,-613.73"/>
</g>
<!-- 15&#45;&gt;10 -->
<g id="edge27" class="edge">
<title>15&#45;&gt;10</title>
<path fill="none" stroke="grey" stroke-width="2" d="M498.47,-647.88C518.12,-638.39 542.72,-626.51 563.63,-616.42"/>
<polygon fill="grey" stroke="grey" stroke-width="2" points="565.16,-619.57 572.64,-612.07 562.12,-613.26 565.16,-619.57"/>
</g>
<!-- 16&#45;&gt;10 -->
<g id="edge28" class="edge">
<title>16&#45;&gt;10</title>
<path fill="none" stroke="grey" stroke-width="2" d="M608,-647.7C608,-639.98 608,-630.71 608,-622.11"/>
<polygon fill="grey" stroke="grey" stroke-width="2" points="611.5,-622.1 608,-612.1 604.5,-622.1 611.5,-622.1"/>
</g>
<!-- 17&#45;&gt;10 -->
<g id="edge29" class="edge">
<title>17&#45;&gt;10</title>
<path fill="none" stroke="grey" stroke-width="2" d="M717.53,-647.88C697.88,-638.39 673.28,-626.51 652.37,-616.42"/>
<polygon fill="grey" stroke="grey" stroke-width="2" points="653.88,-613.26 643.36,-612.07 650.84,-619.57 653.88,-613.26"/>
</g>
<!-- 18&#45;&gt;10 -->
<g id="edge30" class="edge">
<title>18&#45;&gt;10</title>
<path fill="none" stroke="grey" stroke-width="2" d="M834.36,-649.64C786.1,-637.99 720.08,-622.05 671.79,-610.4"/>
<polygon fill="grey" stroke="grey" stroke-width="2" points="672.31,-606.92 661.76,-607.98 670.66,-613.73 672.31,-606.92"/>
</g>
<!-- 19&#45;&gt;0 -->
<g id="edge6" class="edge">
<title>19&#45;&gt;0</title>
<path fill="none" stroke="grey" stroke-width="2" d="M658.12,-431.61C671,-405.36 693,-353.71 693,-307 693,-307 693,-307 693,-161 693,-120.86 685.45,-74.9 679.87,-46.4"/>
<polygon fill="grey" stroke="grey" stroke-width="2" points="683.26,-45.5 677.84,-36.39 676.39,-46.88 683.26,-45.5"/>
</g>
<!-- 20&#45;&gt;0 -->
<g id="edge7" class="edge">
<title>20&#45;&gt;0</title>
<path fill="none" stroke="grey" stroke-width="2" d="M838.11,-431.93C826.71,-405.67 807,-353.53 807,-307 807,-307 807,-307 807,-161 807,-120.03 809.1,-103.58 783,-72 764.7,-49.86 734.93,-36.26 711.12,-28.39"/>
<polygon fill="grey" stroke="grey" stroke-width="2" points="711.92,-24.98 701.33,-25.36 709.85,-31.66 711.92,-24.98"/>
</g>
<!-- 24 -->
<g id="node25" class="node">
<title>24</title>
<path fill="none" stroke="#d8ac56" stroke-width="2" d="M939.5,-396C939.5,-396 860.5,-396 860.5,-396 854.5,-396 848.5,-390 848.5,-384 848.5,-384 848.5,-372 848.5,-372 848.5,-366 854.5,-360 860.5,-360 860.5,-360 939.5,-360 939.5,-360 945.5,-360 951.5,-366 951.5,-372 951.5,-372 951.5,-384 951.5,-384 951.5,-390 945.5,-396 939.5,-396"/>
<text text-anchor="middle" x="900" y="-375.5" font-family="sans" font-size="10.00">cellsnp_to_per_cell</text>
</g>
<!-- 20&#45;&gt;24 -->
<g id="edge47" class="edge">
<title>20&#45;&gt;24</title>
<path fill="none" stroke="grey" stroke-width="2" d="M859.35,-431.7C865.76,-423.39 873.56,-413.28 880.61,-404.14"/>
<polygon fill="grey" stroke="grey" stroke-width="2" points="883.47,-406.16 886.81,-396.1 877.93,-401.88 883.47,-406.16"/>
</g>
<!-- 21&#45;&gt;0 -->
<g id="edge8" class="edge">
<title>21&#45;&gt;0</title>
<path fill="none" stroke="grey" stroke-width="2" d="M421.09,-431.58C408.5,-405.3 387,-353.62 387,-307 387,-307 387,-307 387,-161 387,-50.83 559,-26.13 636.69,-20.6"/>
<polygon fill="grey" stroke="grey" stroke-width="2" points="637.24,-24.07 647,-19.94 636.8,-17.09 637.24,-24.07"/>
</g>
<!-- 27 -->
<g id="node28" class="node">
<title>27</title>
<path fill="none" stroke="#d8ac56" stroke-width="2" d="M519.5,-396C519.5,-396 440.5,-396 440.5,-396 434.5,-396 428.5,-390 428.5,-384 428.5,-384 428.5,-372 428.5,-372 428.5,-366 434.5,-360 440.5,-360 440.5,-360 519.5,-360 519.5,-360 525.5,-360 531.5,-366 531.5,-372 531.5,-372 531.5,-384 531.5,-384 531.5,-390 525.5,-396 519.5,-396"/>
<text text-anchor="middle" x="480" y="-375.5" font-family="sans" font-size="10.00">cellsnp_to_per_cell</text>
</g>
<!-- 21&#45;&gt;27 -->
<g id="edge50" class="edge">
<title>21&#45;&gt;27</title>
<path fill="none" stroke="grey" stroke-width="2" d="M442.36,-431.7C448.23,-423.47 455.37,-413.48 461.84,-404.42"/>
<polygon fill="grey" stroke="grey" stroke-width="2" points="464.82,-406.28 467.78,-396.1 459.12,-402.21 464.82,-406.28"/>
</g>
<!-- 22 -->
<g id="node23" class="node">
<title>22</title>
<path fill="none" stroke="#56d8c9" stroke-width="2" d="M1002,-252C1002,-252 958,-252 958,-252 952,-252 946,-246 946,-240 946,-240 946,-228 946,-228 946,-222 952,-216 958,-216 958,-216 1002,-216 1002,-216 1008,-216 1014,-222 1014,-228 1014,-228 1014,-240 1014,-240 1014,-246 1008,-252 1002,-252"/>
<text text-anchor="middle" x="980" y="-231.5" font-family="sans" font-size="10.00">select_cells</text>
</g>
<!-- 22&#45;&gt;0 -->
<g id="edge9" class="edge">
<title>22&#45;&gt;0</title>
<path fill="none" stroke="grey" stroke-width="2" d="M984.63,-215.83C992.28,-183.25 1003.34,-112.11 967,-72 933.41,-34.93 783.11,-23.62 711.79,-20.3"/>
<polygon fill="grey" stroke="grey" stroke-width="2" points="711.6,-16.79 701.46,-19.86 711.3,-23.79 711.6,-16.79"/>
</g>
<!-- 28 -->
<g id="node29" class="node">
<title>28</title>
<path fill="none" stroke="#c6d856" stroke-width="2" d="M883,-180C883,-180 847,-180 847,-180 841,-180 835,-174 835,-168 835,-168 835,-156 835,-156 835,-150 841,-144 847,-144 847,-144 883,-144 883,-144 889,-144 895,-150 895,-156 895,-156 895,-168 895,-168 895,-174 889,-180 883,-180"/>
<text text-anchor="middle" x="865" y="-159.5" font-family="sans" font-size="10.00">co_calling</text>
</g>
<!-- 22&#45;&gt;28 -->
<g id="edge51" class="edge">
<title>22&#45;&gt;28</title>
<path fill="none" stroke="grey" stroke-width="2" d="M951.87,-215.88C936.83,-206.72 918.13,-195.34 901.94,-185.48"/>
<polygon fill="grey" stroke="grey" stroke-width="2" points="903.6,-182.4 893.24,-180.19 899.96,-188.38 903.6,-182.4"/>
</g>
<!-- 30 -->
<g id="node31" class="node">
<title>30</title>
<path fill="none" stroke="#d8cb56" stroke-width="2" d="M946,-108C946,-108 890,-108 890,-108 884,-108 878,-102 878,-96 878,-96 878,-84 878,-84 878,-78 884,-72 890,-72 890,-72 946,-72 946,-72 952,-72 958,-78 958,-84 958,-84 958,-96 958,-96 958,-102 952,-108 946,-108"/>
<text text-anchor="middle" x="918" y="-87.5" font-family="sans" font-size="10.00">co_aggregate</text>
</g>
<!-- 22&#45;&gt;30 -->
<g id="edge56" class="edge">
<title>22&#45;&gt;30</title>
<path fill="none" stroke="grey" stroke-width="2" d="M972.52,-215.87C961.86,-191.46 942.2,-146.43 929.63,-117.64"/>
<polygon fill="grey" stroke="grey" stroke-width="2" points="932.71,-115.95 925.51,-108.19 926.3,-118.75 932.71,-115.95"/>
</g>
<!-- 23 -->
<g id="node24" class="node">
<title>23</title>
<path fill="none" stroke="#5673d8" stroke-width="2" d="M1035.5,-324C1035.5,-324 958.5,-324 958.5,-324 952.5,-324 946.5,-318 946.5,-312 946.5,-312 946.5,-300 946.5,-300 946.5,-294 952.5,-288 958.5,-288 958.5,-288 1035.5,-288 1035.5,-288 1041.5,-288 1047.5,-294 1047.5,-300 1047.5,-300 1047.5,-312 1047.5,-312 1047.5,-318 1041.5,-324 1035.5,-324"/>
<text text-anchor="middle" x="997" y="-303.5" font-family="sans" font-size="10.00">switch_diagnostics</text>
</g>
<!-- 23&#45;&gt;0 -->
<g id="edge11" class="edge">
<title>23&#45;&gt;0</title>
<path fill="none" stroke="grey" stroke-width="2" d="M1008.05,-287.61C1013.74,-277.62 1020.08,-264.58 1023,-252 1036.99,-191.7 1002.2,-82.62 991,-72 951.3,-34.35 786.4,-23.28 711.42,-20.16"/>
<polygon fill="grey" stroke="grey" stroke-width="2" points="711.16,-16.65 701.03,-19.76 710.89,-23.65 711.16,-16.65"/>
</g>
<!-- 23&#45;&gt;22 -->
<g id="edge45" class="edge">
<title>23&#45;&gt;22</title>
<path fill="none" stroke="grey" stroke-width="2" d="M992.8,-287.7C990.9,-279.9 988.62,-270.51 986.52,-261.83"/>
<polygon fill="grey" stroke="grey" stroke-width="2" points="989.92,-261 984.15,-252.1 983.11,-262.65 989.92,-261"/>
</g>
<!-- 24&#45;&gt;23 -->
<g id="edge46" class="edge">
<title>24&#45;&gt;23</title>
<path fill="none" stroke="grey" stroke-width="2" d="M923.98,-359.7C936.31,-350.8 951.52,-339.82 964.85,-330.2"/>
<polygon fill="grey" stroke="grey" stroke-width="2" points="967.24,-332.79 973.3,-324.1 963.14,-327.12 967.24,-332.79"/>
</g>
<!-- 24&#45;&gt;28 -->
<g id="edge52" class="edge">
<title>24&#45;&gt;28</title>
<path fill="none" stroke="grey" stroke-width="2" d="M897.19,-359.85C891.13,-322.75 876.74,-234.81 869.43,-190.1"/>
<polygon fill="grey" stroke="grey" stroke-width="2" points="872.89,-189.54 867.82,-180.23 865.98,-190.67 872.89,-189.54"/>
</g>
<!-- 24&#45;&gt;30 -->
<g id="edge57" class="edge">
<title>24&#45;&gt;30</title>
<path fill="none" stroke="grey" stroke-width="2" d="M901.07,-359.97C904.07,-312.29 912.58,-177.18 916.26,-118.63"/>
<polygon fill="grey" stroke="grey" stroke-width="2" points="919.78,-118.51 916.91,-108.31 912.79,-118.07 919.78,-118.51"/>
</g>
<!-- 25 -->
<g id="node26" class="node">
<title>25</title>
<path fill="none" stroke="#56d8c9" stroke-width="2" d="M577,-252C577,-252 533,-252 533,-252 527,-252 521,-246 521,-240 521,-240 521,-228 521,-228 521,-222 527,-216 533,-216 533,-216 577,-216 577,-216 583,-216 589,-222 589,-228 589,-228 589,-240 589,-240 589,-246 583,-252 577,-252"/>
<text text-anchor="middle" x="555" y="-231.5" font-family="sans" font-size="10.00">select_cells</text>
</g>
<!-- 25&#45;&gt;0 -->
<g id="edge10" class="edge">
<title>25&#45;&gt;0</title>
<path fill="none" stroke="grey" stroke-width="2" d="M556.54,-215.97C560.08,-184.82 571.1,-117.67 603,-72 612.16,-58.88 625.59,-47.68 638.32,-38.99"/>
<polygon fill="grey" stroke="grey" stroke-width="2" points="640.47,-41.77 646.96,-33.39 636.66,-35.9 640.47,-41.77"/>
</g>
<!-- 29 -->
<g id="node30" class="node">
<title>29</title>
<path fill="none" stroke="#c6d856" stroke-width="2" d="M463,-180C463,-180 427,-180 427,-180 421,-180 415,-174 415,-168 415,-168 415,-156 415,-156 415,-150 421,-144 427,-144 427,-144 463,-144 463,-144 469,-144 475,-150 475,-156 475,-156 475,-168 475,-168 475,-174 469,-180 463,-180"/>
<text text-anchor="middle" x="445" y="-159.5" font-family="sans" font-size="10.00">co_calling</text>
</g>
<!-- 25&#45;&gt;29 -->
<g id="edge53" class="edge">
<title>25&#45;&gt;29</title>
<path fill="none" stroke="grey" stroke-width="2" d="M528.09,-215.88C513.84,-206.81 496.15,-195.55 480.76,-185.76"/>
<polygon fill="grey" stroke="grey" stroke-width="2" points="482.33,-182.61 472.01,-180.19 478.57,-188.51 482.33,-182.61"/>
</g>
<!-- 31 -->
<g id="node32" class="node">
<title>31</title>
<path fill="none" stroke="#d8cb56" stroke-width="2" d="M539,-108C539,-108 483,-108 483,-108 477,-108 471,-102 471,-96 471,-96 471,-84 471,-84 471,-78 477,-72 483,-72 483,-72 539,-72 539,-72 545,-72 551,-78 551,-84 551,-84 551,-96 551,-96 551,-102 545,-108 539,-108"/>
<text text-anchor="middle" x="511" y="-87.5" font-family="sans" font-size="10.00">co_aggregate</text>
</g>
<!-- 25&#45;&gt;31 -->
<g id="edge59" class="edge">
<title>25&#45;&gt;31</title>
<path fill="none" stroke="grey" stroke-width="2" d="M549.69,-215.87C542.16,-191.56 528.3,-146.82 519.37,-118.01"/>
<polygon fill="grey" stroke="grey" stroke-width="2" points="522.63,-116.71 516.33,-108.19 515.94,-118.78 522.63,-116.71"/>
</g>
<!-- 26 -->
<g id="node27" class="node">
<title>26</title>
<path fill="none" stroke="#5673d8" stroke-width="2" d="M610.5,-324C610.5,-324 533.5,-324 533.5,-324 527.5,-324 521.5,-318 521.5,-312 521.5,-312 521.5,-300 521.5,-300 521.5,-294 527.5,-288 533.5,-288 533.5,-288 610.5,-288 610.5,-288 616.5,-288 622.5,-294 622.5,-300 622.5,-300 622.5,-312 622.5,-312 622.5,-318 616.5,-324 610.5,-324"/>
<text text-anchor="middle" x="572" y="-303.5" font-family="sans" font-size="10.00">switch_diagnostics</text>
</g>
<!-- 26&#45;&gt;0 -->
<g id="edge12" class="edge">
<title>26&#45;&gt;0</title>
<path fill="none" stroke="grey" stroke-width="2" d="M581.67,-287.76C587.06,-277.59 593.56,-264.34 598,-252 625.84,-174.6 609.3,-147.9 641,-72 644.87,-62.75 650.25,-53.26 655.55,-44.91"/>
<polygon fill="grey" stroke="grey" stroke-width="2" points="658.6,-46.65 661.19,-36.37 652.75,-42.79 658.6,-46.65"/>
</g>
<!-- 26&#45;&gt;25 -->
<g id="edge48" class="edge">
<title>26&#45;&gt;25</title>
<path fill="none" stroke="grey" stroke-width="2" d="M567.8,-287.7C565.9,-279.9 563.62,-270.51 561.52,-261.83"/>
<polygon fill="grey" stroke="grey" stroke-width="2" points="564.92,-261 559.15,-252.1 558.11,-262.65 564.92,-261"/>
</g>
<!-- 27&#45;&gt;26 -->
<g id="edge49" class="edge">
<title>27&#45;&gt;26</title>
<path fill="none" stroke="grey" stroke-width="2" d="M502.74,-359.7C514.44,-350.8 528.86,-339.82 541.51,-330.2"/>
<polygon fill="grey" stroke="grey" stroke-width="2" points="543.68,-332.94 549.52,-324.1 539.44,-327.37 543.68,-332.94"/>
</g>
<!-- 27&#45;&gt;29 -->
<g id="edge54" class="edge">
<title>27&#45;&gt;29</title>
<path fill="none" stroke="grey" stroke-width="2" d="M477.19,-359.85C471.13,-322.75 456.74,-234.81 449.43,-190.1"/>
<polygon fill="grey" stroke="grey" stroke-width="2" points="452.89,-189.54 447.82,-180.23 445.98,-190.67 452.89,-189.54"/>
</g>
<!-- 27&#45;&gt;31 -->
<g id="edge60" class="edge">
<title>27&#45;&gt;31</title>
<path fill="none" stroke="grey" stroke-width="2" d="M481.85,-359.97C487.02,-312.19 501.72,-176.62 508.04,-118.27"/>
<polygon fill="grey" stroke="grey" stroke-width="2" points="511.53,-118.63 509.12,-108.31 504.57,-117.87 511.53,-118.63"/>
</g>
<!-- 28&#45;&gt;0 -->
<g id="edge13" class="edge">
<title>28&#45;&gt;0</title>
<path fill="none" stroke="grey" stroke-width="2" d="M860.74,-143.87C854.94,-123.97 842.73,-91.4 821,-72 790.05,-44.37 743.61,-30.83 711.24,-24.42"/>
<polygon fill="grey" stroke="grey" stroke-width="2" points="711.73,-20.95 701.26,-22.57 710.46,-27.83 711.73,-20.95"/>
</g>
<!-- 28&#45;&gt;30 -->
<g id="edge55" class="edge">
<title>28&#45;&gt;30</title>
<path fill="none" stroke="grey" stroke-width="2" d="M878.1,-143.7C884.39,-135.39 892.05,-125.28 898.96,-116.14"/>
<polygon fill="grey" stroke="grey" stroke-width="2" points="901.8,-118.19 905.05,-108.1 896.22,-113.96 901.8,-118.19"/>
</g>
<!-- 29&#45;&gt;0 -->
<g id="edge14" class="edge">
<title>29&#45;&gt;0</title>
<path fill="none" stroke="grey" stroke-width="2" d="M443.23,-143.84C442.18,-123.92 443.74,-91.32 462,-72 485.69,-46.94 582.63,-30.75 636.85,-23.46"/>
<polygon fill="grey" stroke="grey" stroke-width="2" points="637.31,-26.93 646.77,-22.16 636.4,-19.99 637.31,-26.93"/>
</g>
<!-- 29&#45;&gt;31 -->
<g id="edge58" class="edge">
<title>29&#45;&gt;31</title>
<path fill="none" stroke="grey" stroke-width="2" d="M461.31,-143.7C469.31,-135.22 479.07,-124.86 487.82,-115.58"/>
<polygon fill="grey" stroke="grey" stroke-width="2" points="490.56,-117.78 494.87,-108.1 485.47,-112.98 490.56,-117.78"/>
</g>
<!-- 30&#45;&gt;0 -->
<g id="edge15" class="edge">
<title>30&#45;&gt;0</title>
<path fill="none" stroke="grey" stroke-width="2" d="M877.96,-76.74C872.6,-75.13 867.17,-73.51 862,-72 809.79,-56.72 749.19,-39.78 711.22,-29.26"/>
<polygon fill="grey" stroke="grey" stroke-width="2" points="711.71,-25.76 701.13,-26.47 709.84,-32.51 711.71,-25.76"/>
</g>
<!-- 31&#45;&gt;0 -->
<g id="edge16" class="edge">
<title>31&#45;&gt;0</title>
<path fill="none" stroke="grey" stroke-width="2" d="M550.87,-71.88C577.28,-60.53 611.66,-45.77 637.38,-34.73"/>
<polygon fill="grey" stroke="grey" stroke-width="2" points="638.97,-37.85 646.78,-30.69 636.21,-31.42 638.97,-37.85"/>
</g>
</g>
</svg>
