<?xml version="1.0" encoding="UTF-8" standalone="no"?>
<!DOCTYPE svg PUBLIC "-//W3C//DTD SVG 1.1//EN"
 "http://www.w3.org/Graphics/SVG/1.1/DTD/svg11.dtd">
<!-- Generated by graphviz version 2.43.0 (0)
 -->
<!-- Title: snakemake_dag Pages: 1 -->
<svg width="1224pt" height="404pt"
 viewBox="0.00 0.00 1224.00 404.00" xmlns="http://www.w3.org/2000/svg" xmlns:xlink="http://www.w3.org/1999/xlink">
<g id="graph0" class="graph" transform="scale(1 1) rotate(0) translate(4 400)">
<title>snakemake_dag</title>
<polygon fill="white" stroke="transparent" points="-4,4 -4,-400 1220,-400 1220,4 -4,4"/>
<!-- 0 -->
<g id="node1" class="node">
<title>0</title>
<path fill="none" stroke="#d85656" stroke-width="2" d="M623,-36C623,-36 593,-36 593,-36 587,-36 581,-30 581,-24 581,-24 581,-12 581,-12 581,-6 587,0 593,0 593,0 623,0 623,0 629,0 635,-6 635,-12 635,-12 635,-24 635,-24 635,-30 629,-36 623,-36"/>
<text text-anchor="middle" x="608" y="-15.5" font-family="sans" font-size="10.00">all</text>
</g>
<!-- 1 -->
<g id="node2" class="node">
<title>1</title>
<path fill="none" stroke="#56c1d8" stroke-width="2" d="M889,-252C889,-252 833,-252 833,-252 827,-252 821,-246 821,-240 821,-240 821,-228 821,-228 821,-222 827,-216 833,-216 833,-216 889,-216 889,-216 895,-216 901,-222 901,-228 901,-228 901,-240 901,-240 901,-246 895,-252 889,-252"/>
<text text-anchor="middle" x="861" y="-231.5" font-family="sans" font-size="10.00">starsolo_align</text>
</g>
<!-- 1&#45;&gt;0 -->
<g id="edge1" class="edge">
<title>1&#45;&gt;0</title>
<path fill="none" stroke="grey" stroke-width="2" d="M866.13,-215.91C874.98,-182.47 888.53,-108.5 848,-72 818.54,-45.46 705.37,-29.52 645.56,-22.78"/>
<polygon fill="grey" stroke="grey" stroke-width="2" points="645.71,-19.28 635.39,-21.67 644.95,-26.24 645.71,-19.28"/>
</g>
<!-- 7 -->
<g id="node8" class="node">
<title>7</title>
<path fill="none" stroke="#d87556" stroke-width="2" d="M851.5,-180C851.5,-180 810.5,-180 810.5,-180 804.5,-180 798.5,-174 798.5,-168 798.5,-168 798.5,-156 798.5,-156 798.5,-150 804.5,-144 810.5,-144 810.5,-144 851.5,-144 851.5,-144 857.5,-144 863.5,-150 863.5,-156 863.5,-156 863.5,-168 863.5,-168 863.5,-174 857.5,-180 851.5,-180"/>
<text text-anchor="middle" x="831" y="-159.5" font-family="sans" font-size="10.00">cell_calling</text>
</g>
<!-- 1&#45;&gt;7 -->
<g id="edge13" class="edge">
<title>1&#45;&gt;7</title>
<path fill="none" stroke="grey" stroke-width="2" d="M853.58,-215.7C850.21,-207.81 846.13,-198.3 842.38,-189.55"/>
<polygon fill="grey" stroke="grey" stroke-width="2" points="845.49,-187.92 838.33,-180.1 839.05,-190.67 845.49,-187.92"/>
</g>
<!-- 20 -->
<g id="node21" class="node">
<title>20</title>
<path fill="none" stroke="#d89c56" stroke-width="2" d="M807,-108C807,-108 733,-108 733,-108 727,-108 721,-102 721,-96 721,-96 721,-84 721,-84 721,-78 727,-72 733,-72 733,-72 807,-72 807,-72 813,-72 819,-78 819,-84 819,-84 819,-96 819,-96 819,-102 813,-108 807,-108"/>
<text text-anchor="middle" x="770" y="-87.5" font-family="sans" font-size="10.00">cell_snp_counting</text>
</g>
<!-- 1&#45;&gt;20 -->
<g id="edge31" class="edge">
<title>1&#45;&gt;20</title>
<path fill="none" stroke="grey" stroke-width="2" d="M827.98,-215.89C813.92,-207 798.6,-194.87 789,-180 777.11,-161.58 772.53,-136.98 770.82,-118.31"/>
<polygon fill="grey" stroke="grey" stroke-width="2" points="774.3,-117.83 770.12,-108.1 767.31,-118.31 774.3,-117.83"/>
</g>
<!-- 2 -->
<g id="node3" class="node">
<title>2</title>
<path fill="none" stroke="#56d8d0" stroke-width="2" d="M1177,-324C1177,-324 1137,-324 1137,-324 1131,-324 1125,-318 1125,-312 1125,-312 1125,-300 1125,-300 1125,-294 1131,-288 1137,-288 1137,-288 1177,-288 1177,-288 1183,-288 1189,-294 1189,-300 1189,-300 1189,-312 1189,-312 1189,-318 1183,-324 1177,-324"/>
<text text-anchor="middle" x="1157" y="-303.5" font-family="sans" font-size="10.00">star_index</text>
</g>
<!-- 2&#45;&gt;1 -->
<g id="edge9" class="edge">
<title>2&#45;&gt;1</title>
<path fill="none" stroke="grey" stroke-width="2" d="M1124.98,-291.05C1121.97,-289.95 1118.95,-288.91 1116,-288 1046.32,-266.52 963.25,-251.07 911.3,-242.58"/>
<polygon fill="grey" stroke="grey" stroke-width="2" points="911.77,-239.11 901.34,-240.97 910.66,-246.02 911.77,-239.11"/>
</g>
<!-- 3 -->
<g id="node4" class="node">
<title>3</title>
<path fill="none" stroke="#88d856" stroke-width="2" d="M1204,-396C1204,-396 1110,-396 1110,-396 1104,-396 1098,-390 1098,-384 1098,-384 1098,-372 1098,-372 1098,-366 1104,-360 1110,-360 1110,-360 1204,-360 1204,-360 1210,-360 1216,-366 1216,-372 1216,-372 1216,-384 1216,-384 1216,-390 1210,-396 1204,-396"/>
<text text-anchor="middle" x="1157" y="-381" font-family="sans" font-size="10.00">gff_to_gtf</text>
<text text-anchor="middle" x="1157" y="-370" font-family="sans" font-size="10.00">sample: 6303_B_hap1</text>
</g>
<!-- 3&#45;&gt;2 -->
<g id="edge10" class="edge">
<title>3&#45;&gt;2</title>
<path fill="none" stroke="grey" stroke-width="2" d="M1157,-359.7C1157,-351.98 1157,-342.71 1157,-334.11"/>
<polygon fill="grey" stroke="grey" stroke-width="2" points="1160.5,-334.1 1157,-324.1 1153.5,-334.1 1160.5,-334.1"/>
</g>
<!-- 4 -->
<g id="node5" class="node">
<title>4</title>
<path fill="none" stroke="#56c1d8" stroke-width="2" d="M426,-252C426,-252 370,-252 370,-252 364,-252 358,-246 358,-240 358,-240 358,-228 358,-228 358,-222 364,-216 370,-216 370,-216 426,-216 426,-216 432,-216 438,-222 438,-228 438,-228 438,-240 438,-240 438,-246 432,-252 426,-252"/>
<text text-anchor="middle" x="398" y="-231.5" font-family="sans" font-size="10.00">starsolo_align</text>
</g>
<!-- 4&#45;&gt;0 -->
<g id="edge2" class="edge">
<title>4&#45;&gt;0</title>
<path fill="none" stroke="grey" stroke-width="2" d="M393.54,-215.95C391.06,-205.63 388.25,-192.15 387,-180 381.91,-130.44 379.66,-104.97 417,-72 460.16,-33.89 528.5,-22.96 570.66,-19.95"/>
<polygon fill="grey" stroke="grey" stroke-width="2" points="571.01,-23.44 580.78,-19.35 570.59,-16.45 571.01,-23.44"/>
</g>
<!-- 8 -->
<g id="node9" class="node">
<title>8</title>
<path fill="none" stroke="#d87556" stroke-width="2" d="M449.5,-180C449.5,-180 408.5,-180 408.5,-180 402.5,-180 396.5,-174 396.5,-168 396.5,-168 396.5,-156 396.5,-156 396.5,-150 402.5,-144 408.5,-144 408.5,-144 449.5,-144 449.5,-144 455.5,-144 461.5,-150 461.5,-156 461.5,-156 461.5,-168 461.5,-168 461.5,-174 455.5,-180 449.5,-180"/>
<text text-anchor="middle" x="429" y="-159.5" font-family="sans" font-size="10.00">cell_calling</text>
</g>
<!-- 4&#45;&gt;8 -->
<g id="edge14" class="edge">
<title>4&#45;&gt;8</title>
<path fill="none" stroke="grey" stroke-width="2" d="M405.66,-215.7C409.19,-207.73 413.46,-198.1 417.37,-189.26"/>
<polygon fill="grey" stroke="grey" stroke-width="2" points="420.58,-190.67 421.43,-180.1 414.18,-187.83 420.58,-190.67"/>
</g>
<!-- 21 -->
<g id="node22" class="node">
<title>21</title>
<path fill="none" stroke="#d89c56" stroke-width="2" d="M527,-108C527,-108 453,-108 453,-108 447,-108 441,-102 441,-96 441,-96 441,-84 441,-84 441,-78 447,-72 453,-72 453,-72 527,-72 527,-72 533,-72 539,-78 539,-84 539,-84 539,-96 539,-96 539,-102 533,-108 527,-108"/>
<text text-anchor="middle" x="490" y="-87.5" font-family="sans" font-size="10.00">cell_snp_counting</text>
</g>
<!-- 4&#45;&gt;21 -->
<g id="edge34" class="edge">
<title>4&#45;&gt;21</title>
<path fill="none" stroke="grey" stroke-width="2" d="M430.95,-215.84C444.99,-206.94 460.32,-194.81 470,-180 482.02,-161.6 486.88,-137 488.82,-118.32"/>
<polygon fill="grey" stroke="grey" stroke-width="2" points="492.33,-118.36 489.65,-108.1 485.35,-117.79 492.33,-118.36"/>
</g>
<!-- 5 -->
<g id="node6" class="node">
<title>5</title>
<path fill="none" stroke="#56d8d0" stroke-width="2" d="M79,-324C79,-324 39,-324 39,-324 33,-324 27,-318 27,-312 27,-312 27,-300 27,-300 27,-294 33,-288 39,-288 39,-288 79,-288 79,-288 85,-288 91,-294 91,-300 91,-300 91,-312 91,-312 91,-318 85,-324 79,-324"/>
<text text-anchor="middle" x="59" y="-303.5" font-family="sans" font-size="10.00">star_index</text>
</g>
<!-- 5&#45;&gt;4 -->
<g id="edge11" class="edge">
<title>5&#45;&gt;4</title>
<path fill="none" stroke="grey" stroke-width="2" d="M91.44,-290.8C94.31,-289.77 97.19,-288.82 100,-288 185.34,-263.04 288.06,-247.92 347.9,-240.54"/>
<polygon fill="grey" stroke="grey" stroke-width="2" points="348.33,-244.01 357.84,-239.33 347.49,-237.06 348.33,-244.01"/>
</g>
<!-- 6 -->
<g id="node7" class="node">
<title>6</title>
<path fill="none" stroke="#88d856" stroke-width="2" d="M106,-396C106,-396 12,-396 12,-396 6,-396 0,-390 0,-384 0,-384 0,-372 0,-372 0,-366 6,-360 12,-360 12,-360 106,-360 106,-360 112,-360 118,-366 118,-372 118,-372 118,-384 118,-384 118,-390 112,-396 106,-396"/>
<text text-anchor="middle" x="59" y="-381" font-family="sans" font-size="10.00">gff_to_gtf</text>
<text text-anchor="middle" x="59" y="-370" font-family="sans" font-size="10.00">sample: 6303_B_hap2</text>
</g>
<!-- 6&#45;&gt;5 -->
<g id="edge12" class="edge">
<title>6&#45;&gt;5</title>
<path fill="none" stroke="grey" stroke-width="2" d="M59,-359.7C59,-351.98 59,-342.71 59,-334.11"/>
<polygon fill="grey" stroke="grey" stroke-width="2" points="62.5,-334.1 59,-324.1 55.5,-334.1 62.5,-334.1"/>
</g>
<!-- 7&#45;&gt;0 -->
<g id="edge3" class="edge">
<title>7&#45;&gt;0</title>
<path fill="none" stroke="grey" stroke-width="2" d="M836,-143.82C840.58,-124.17 844.41,-92.13 828,-72 805.21,-44.05 701.98,-28.93 645.39,-22.62"/>
<polygon fill="grey" stroke="grey" stroke-width="2" points="645.72,-19.13 635.4,-21.54 644.96,-26.09 645.72,-19.13"/>
</g>
<!-- 7&#45;&gt;20 -->
<g id="edge32" class="edge">
<title>7&#45;&gt;20</title>
<path fill="none" stroke="grey" stroke-width="2" d="M815.92,-143.7C808.61,-135.3 799.69,-125.07 791.66,-115.86"/>
<polygon fill="grey" stroke="grey" stroke-width="2" points="794.11,-113.34 784.91,-108.1 788.84,-117.94 794.11,-113.34"/>
</g>
<!-- 8&#45;&gt;0 -->
<g id="edge4" class="edge">
<title>8&#45;&gt;0</title>
<path fill="none" stroke="grey" stroke-width="2" d="M424.2,-143.98C419.82,-124.48 416.16,-92.58 432,-72 464.5,-29.78 529.47,-20.09 570.73,-18.45"/>
<polygon fill="grey" stroke="grey" stroke-width="2" points="571.03,-21.95 580.93,-18.19 570.85,-14.95 571.03,-21.95"/>
</g>
<!-- 8&#45;&gt;21 -->
<g id="edge35" class="edge">
<title>8&#45;&gt;21</title>
<path fill="none" stroke="grey" stroke-width="2" d="M444.08,-143.7C451.39,-135.3 460.31,-125.07 468.34,-115.86"/>
<polygon fill="grey" stroke="grey" stroke-width="2" points="471.16,-117.94 475.09,-108.1 465.89,-113.34 471.16,-117.94"/>
</g>
<!-- 9 -->
<g id="node10" class="node">
<title>9</title>
<path fill="none" stroke="#ced856" stroke-width="2" d="M599.5,-180C599.5,-180 540.5,-180 540.5,-180 534.5,-180 528.5,-174 528.5,-168 528.5,-168 528.5,-156 528.5,-156 528.5,-150 534.5,-144 540.5,-144 540.5,-144 599.5,-144 599.5,-144 605.5,-144 611.5,-150 611.5,-156 611.5,-156 611.5,-168 611.5,-168 611.5,-174 605.5,-180 599.5,-180"/>
<text text-anchor="middle" x="570" y="-159.5" font-family="sans" font-size="10.00">filter_markers</text>
</g>
<!-- 9&#45;&gt;0 -->
<g id="edge5" class="edge">
<title>9&#45;&gt;0</title>
<path fill="none" stroke="grey" stroke-width="2" d="M571.99,-143.68C574.33,-125.56 578.83,-96.4 586,-72 588.58,-63.21 592.15,-53.89 595.66,-45.56"/>
<polygon fill="grey" stroke="grey" stroke-width="2" points="598.9,-46.89 599.7,-36.32 592.48,-44.09 598.9,-46.89"/>
</g>
<!-- 9&#45;&gt;20 -->
<g id="edge33" class="edge">
<title>9&#45;&gt;20</title>
<path fill="none" stroke="grey" stroke-width="2" d="M611.93,-146.33C640.78,-136.23 679.52,-122.67 711.42,-111.5"/>
<polygon fill="grey" stroke="grey" stroke-width="2" points="712.8,-114.73 721.08,-108.12 710.49,-108.12 712.8,-114.73"/>
</g>
<!-- 9&#45;&gt;21 -->
<g id="edge36" class="edge">
<title>9&#45;&gt;21</title>
<path fill="none" stroke="grey" stroke-width="2" d="M550.22,-143.7C540.25,-134.97 527.99,-124.24 517.14,-114.75"/>
<polygon fill="grey" stroke="grey" stroke-width="2" points="519.38,-112.06 509.55,-108.1 514.77,-117.32 519.38,-112.06"/>
</g>
<!-- 10 -->
<g id="node11" class="node">
<title>10</title>
<path fill="none" stroke="#56d86b" stroke-width="2" d="M649.5,-252C649.5,-252 566.5,-252 566.5,-252 560.5,-252 554.5,-246 554.5,-240 554.5,-240 554.5,-228 554.5,-228 554.5,-222 560.5,-216 566.5,-216 566.5,-216 649.5,-216 649.5,-216 655.5,-216 661.5,-222 661.5,-228 661.5,-228 661.5,-240 661.5,-240 661.5,-246 655.5,-252 649.5,-252"/>
<text text-anchor="middle" x="608" y="-231.5" font-family="sans" font-size="10.00">hifi_variants_merge</text>
</g>
<!-- 10&#45;&gt;9 -->
<g id="edge15" class="edge">
<title>10&#45;&gt;9</title>
<path fill="none" stroke="grey" stroke-width="2" d="M598.61,-215.7C594.24,-207.64 588.94,-197.89 584.1,-188.98"/>
<polygon fill="grey" stroke="grey" stroke-width="2" points="587.13,-187.22 579.29,-180.1 580.98,-190.56 587.13,-187.22"/>
</g>
<!-- 19 -->
<g id="node20" class="node">
<title>19</title>
<path fill="none" stroke="#56d8a9" stroke-width="2" d="M690.5,-108C690.5,-108 607.5,-108 607.5,-108 601.5,-108 595.5,-102 595.5,-96 595.5,-96 595.5,-84 595.5,-84 595.5,-78 601.5,-72 607.5,-72 607.5,-72 690.5,-72 690.5,-72 696.5,-72 702.5,-78 702.5,-84 702.5,-84 702.5,-96 702.5,-96 702.5,-102 696.5,-108 690.5,-108"/>
<text text-anchor="middle" x="649" y="-87.5" font-family="sans" font-size="10.00">marker_diagnostics</text>
</g>
<!-- 10&#45;&gt;19 -->
<g id="edge30" class="edge">
<title>10&#45;&gt;19</title>
<path fill="none" stroke="grey" stroke-width="2" d="M612.95,-215.87C619.96,-191.56 632.88,-146.82 641.2,-118.01"/>
<polygon fill="grey" stroke="grey" stroke-width="2" points="644.63,-118.77 644.04,-108.19 637.9,-116.83 644.63,-118.77"/>
</g>
<!-- 11 -->
<g id="node12" class="node">
<title>11</title>
<path fill="none" stroke="#56d88a" stroke-width="2" d="M514.5,-324C514.5,-324 411.5,-324 411.5,-324 405.5,-324 399.5,-318 399.5,-312 399.5,-312 399.5,-300 399.5,-300 399.5,-294 405.5,-288 411.5,-288 411.5,-288 514.5,-288 514.5,-288 520.5,-288 526.5,-294 526.5,-300 526.5,-300 526.5,-312 526.5,-312 526.5,-318 520.5,-324 514.5,-324"/>
<text text-anchor="middle" x="463" y="-309" font-family="sans" font-size="10.00">hifi_variants_per_chrom</text>
<text text-anchor="middle" x="463" y="-298" font-family="sans" font-size="10.00">chrom: scaffold_1</text>
</g>
<!-- 11&#45;&gt;10 -->
<g id="edge16" class="edge">
<title>11&#45;&gt;10</title>
<path fill="none" stroke="grey" stroke-width="2" d="M498.47,-287.88C518.12,-278.39 542.72,-266.51 563.63,-256.42"/>
<polygon fill="grey" stroke="grey" stroke-width="2" points="565.16,-259.57 572.64,-252.07 562.12,-253.26 565.16,-259.57"/>
</g>
<!-- 12 -->
<g id="node13" class="node">
<title>12</title>
<path fill="none" stroke="#68d856" stroke-width="2" d="M655,-396C655,-396 561,-396 561,-396 555,-396 549,-390 549,-384 549,-384 549,-372 549,-372 549,-366 555,-360 561,-360 561,-360 655,-360 655,-360 661,-360 667,-366 667,-372 667,-372 667,-384 667,-384 667,-390 661,-396 655,-396"/>
<text text-anchor="middle" x="608" y="-381" font-family="sans" font-size="10.00">hifi_align</text>
<text text-anchor="middle" x="608" y="-370" font-family="sans" font-size="10.00">sample: 6303_B_hap1</text>
</g>
<!-- 12&#45;&gt;11 -->
<g id="edge23" class="edge">
<title>12&#45;&gt;11</title>
<path fill="none" stroke="grey" stroke-width="2" d="M572.53,-359.88C552.88,-350.39 528.28,-338.51 507.37,-328.42"/>
<polygon fill="grey" stroke="grey" stroke-width="2" points="508.88,-325.26 498.36,-324.07 505.84,-331.57 508.88,-325.26"/>
</g>
<!-- 13 -->
<g id="node14" class="node">
<title>13</title>
<path fill="none" stroke="#56d88a" stroke-width="2" d="M659.5,-324C659.5,-324 556.5,-324 556.5,-324 550.5,-324 544.5,-318 544.5,-312 544.5,-312 544.5,-300 544.5,-300 544.5,-294 550.5,-288 556.5,-288 556.5,-288 659.5,-288 659.5,-288 665.5,-288 671.5,-294 671.5,-300 671.5,-300 671.5,-312 671.5,-312 671.5,-318 665.5,-324 659.5,-324"/>
<text text-anchor="middle" x="608" y="-309" font-family="sans" font-size="10.00">hifi_variants_per_chrom</text>
<text text-anchor="middle" x="608" y="-298" font-family="sans" font-size="10.00">chrom: scaffold_3</text>
</g>
<!-- 12&#45;&gt;13 -->
<g id="edge24" class="edge">
<title>12&#45;&gt;13</title>
<path fill="none" stroke="grey" stroke-width="2" d="M608,-359.7C608,-351.98 608,-342.71 608,-334.11"/>
<polygon fill="grey" stroke="grey" stroke-width="2" points="611.5,-334.1 608,-324.1 604.5,-334.1 611.5,-334.1"/>
</g>
<!-- 14 -->
<g id="node15" class="node">
<title>14</title>
<path fill="none" stroke="#56d88a" stroke-width="2" d="M804.5,-324C804.5,-324 701.5,-324 701.5,-324 695.5,-324 689.5,-318 689.5,-312 689.5,-312 689.5,-300 689.5,-300 689.5,-294 695.5,-288 701.5,-288 701.5,-288 804.5,-288 804.5,-288 810.5,-288 816.5,-294 816.5,-300 816.5,-300 816.5,-312 816.5,-312 816.5,-318 810.5,-324 804.5,-324"/>
<text text-anchor="middle" x="753" y="-309" font-family="sans" font-size="10.00">hifi_variants_per_chrom</text>
<text text-anchor="middle" x="753" y="-298" font-family="sans" font-size="10.00">chrom: scaffold_5</text>
</g>
<!-- 12&#45;&gt;14 -->
<g id="edge25" class="edge">
<title>12&#45;&gt;14</title>
<path fill="none" stroke="grey" stroke-width="2" d="M643.47,-359.88C663.12,-350.39 687.72,-338.51 708.63,-328.42"/>
<polygon fill="grey" stroke="grey" stroke-width="2" points="710.16,-331.57 717.64,-324.07 707.12,-325.26 710.16,-331.57"/>
</g>
<!-- 15 -->
<g id="node16" class="node">
<title>15</title>
<path fill="none" stroke="#56d88a" stroke-width="2" d="M949.5,-324C949.5,-324 846.5,-324 846.5,-324 840.5,-324 834.5,-318 834.5,-312 834.5,-312 834.5,-300 834.5,-300 834.5,-294 840.5,-288 846.5,-288 846.5,-288 949.5,-288 949.5,-288 955.5,-288 961.5,-294 961.5,-300 961.5,-300 961.5,-312 961.5,-312 961.5,-318 955.5,-324 949.5,-324"/>
<text text-anchor="middle" x="898" y="-309" font-family="sans" font-size="10.00">hifi_variants_per_chrom</text>
<text text-anchor="middle" x="898" y="-298" font-family="sans" font-size="10.00">chrom: scaffold_7</text>
</g>
<!-- 12&#45;&gt;15 -->
<g id="edge26" class="edge">
<title>12&#45;&gt;15</title>
<path fill="none" stroke="grey" stroke-width="2" d="M667.04,-362.75C712.51,-351.77 775.64,-336.54 824.4,-324.76"/>
<polygon fill="grey" stroke="grey" stroke-width="2" points="825.37,-328.13 834.27,-322.38 823.73,-321.33 825.37,-328.13"/>
</g>
<!-- 16 -->
<g id="node17" class="node">
<title>16</title>
<path fill="none" stroke="#56d88a" stroke-width="2" d="M1094.5,-324C1094.5,-324 991.5,-324 991.5,-324 985.5,-324 979.5,-318 979.5,-312 979.5,-312 979.5,-300 979.5,-300 979.5,-294 985.5,-288 991.5,-288 991.5,-288 1094.5,-288 1094.5,-288 1100.5,-288 1106.5,-294 1106.5,-300 1106.5,-300 1106.5,-312 1106.5,-312 1106.5,-318 1100.5,-324 1094.5,-324"/>
<text text-anchor="middle" x="1043" y="-309" font-family="sans" font-size="10.00">hifi_variants_per_chrom</text>
<text text-anchor="middle" x="1043" y="-298" font-family="sans" font-size="10.00">chrom: scaffold_9</text>
</g>
<!-- 12&#45;&gt;16 -->
<g id="edge27" class="edge">
<title>12&#45;&gt;16</title>
<path fill="none" stroke="grey" stroke-width="2" d="M667.19,-369.87C737.05,-361.12 856.88,-345.03 969.53,-324"/>
<polygon fill="grey" stroke="grey" stroke-width="2" points="970.19,-327.44 979.37,-322.15 968.89,-320.56 970.19,-327.44"/>
</g>
<!-- 17 -->
<g id="node18" class="node">
<title>17</title>
<path fill="none" stroke="#56d88a" stroke-width="2" d="M224.5,-324C224.5,-324 121.5,-324 121.5,-324 115.5,-324 109.5,-318 109.5,-312 109.5,-312 109.5,-300 109.5,-300 109.5,-294 115.5,-288 121.5,-288 121.5,-288 224.5,-288 224.5,-288 230.5,-288 236.5,-294 236.5,-300 236.5,-300 236.5,-312 236.5,-312 236.5,-318 230.5,-324 224.5,-324"/>
<text text-anchor="middle" x="173" y="-309" font-family="sans" font-size="10.00">hifi_variants_per_chrom</text>
<text text-anchor="middle" x="173" y="-298" font-family="sans" font-size="10.00">chrom: scaffold_11</text>
</g>
<!-- 12&#45;&gt;17 -->
<g id="edge28" class="edge">
<title>12&#45;&gt;17</title>
<path fill="none" stroke="grey" stroke-width="2" d="M548.95,-369.98C479.01,-361.31 358.81,-345.28 246.67,-324.24"/>
<polygon fill="grey" stroke="grey" stroke-width="2" points="247.02,-320.74 236.54,-322.32 245.71,-327.62 247.02,-320.74"/>
</g>
<!-- 18 -->
<g id="node19" class="node">
<title>18</title>
<path fill="none" stroke="#56d88a" stroke-width="2" d="M369.5,-324C369.5,-324 266.5,-324 266.5,-324 260.5,-324 254.5,-318 254.5,-312 254.5,-312 254.5,-300 254.5,-300 254.5,-294 260.5,-288 266.5,-288 266.5,-288 369.5,-288 369.5,-288 375.5,-288 381.5,-294 381.5,-300 381.5,-300 381.5,-312 381.5,-312 381.5,-318 375.5,-324 369.5,-324"/>
<text text-anchor="middle" x="318" y="-309" font-family="sans" font-size="10.00">hifi_variants_per_chrom</text>
<text text-anchor="middle" x="318" y="-298" font-family="sans" font-size="10.00">chrom: scaffold_13</text>
</g>
<!-- 12&#45;&gt;18 -->
<g id="edge29" class="edge">
<title>12&#45;&gt;18</title>
<path fill="none" stroke="grey" stroke-width="2" d="M548.96,-362.75C503.49,-351.77 440.36,-336.54 391.6,-324.76"/>
<polygon fill="grey" stroke="grey" stroke-width="2" points="392.27,-321.33 381.73,-322.38 390.63,-328.13 392.27,-321.33"/>
</g>
<!-- 13&#45;&gt;10 -->
<g id="edge17" class="edge">
<title>13&#45;&gt;10</title>
<path fill="none" stroke="grey" stroke-width="2" d="M608,-287.7C608,-279.98 608,-270.71 608,-262.11"/>
<polygon fill="grey" stroke="grey" stroke-width="2" points="611.5,-262.1 608,-252.1 604.5,-262.1 611.5,-262.1"/>
</g>
<!-- 14&#45;&gt;10 -->
<g id="edge18" class="edge">
<title>14&#45;&gt;10</title>
<path fill="none" stroke="grey" stroke-width="2" d="M717.53,-287.88C697.88,-278.39 673.28,-266.51 652.37,-256.42"/>
<polygon fill="grey" stroke="grey" stroke-width="2" points="653.88,-253.26 643.36,-252.07 650.84,-259.57 653.88,-253.26"/>
</g>
<!-- 15&#45;&gt;10 -->
<g id="edge19" class="edge">
<title>15&#45;&gt;10</title>
<path fill="none" stroke="grey" stroke-width="2" d="M834.36,-289.64C786.1,-277.99 720.08,-262.05 671.79,-250.4"/>
<polygon fill="grey" stroke="grey" stroke-width="2" points="672.31,-246.92 661.76,-247.98 670.66,-253.73 672.31,-246.92"/>
</g>
<!-- 16&#45;&gt;10 -->
<g id="edge20" class="edge">
<title>16&#45;&gt;10</title>
<path fill="none" stroke="grey" stroke-width="2" d="M979.37,-289.85C976.2,-289.2 973.07,-288.58 970,-288 866.2,-268.35 744.48,-251.86 671.93,-242.72"/>
<polygon fill="grey" stroke="grey" stroke-width="2" points="671.95,-239.2 661.6,-241.43 671.08,-246.14 671.95,-239.2"/>
</g>
<!-- 17&#45;&gt;10 -->
<g id="edge21" class="edge">
<title>17&#45;&gt;10</title>
<path fill="none" stroke="grey" stroke-width="2" d="M236.54,-289.68C239.39,-289.09 242.22,-288.53 245,-288 349.05,-268.16 471.12,-251.73 543.88,-242.65"/>
<polygon fill="grey" stroke="grey" stroke-width="2" points="544.75,-246.07 554.25,-241.37 543.89,-239.12 544.75,-246.07"/>
</g>
<!-- 18&#45;&gt;10 -->
<g id="edge22" class="edge">
<title>18&#45;&gt;10</title>
<path fill="none" stroke="grey" stroke-width="2" d="M381.64,-289.64C429.9,-277.99 495.92,-262.05 544.21,-250.4"/>
<polygon fill="grey" stroke="grey" stroke-width="2" points="545.34,-253.73 554.24,-247.98 543.69,-246.92 545.34,-253.73"/>
</g>
<!-- 19&#45;&gt;0 -->
<g id="edge6" class="edge">
<title>19&#45;&gt;0</title>
<path fill="none" stroke="grey" stroke-width="2" d="M638.87,-71.7C634.15,-63.64 628.44,-53.89 623.22,-44.98"/>
<polygon fill="grey" stroke="grey" stroke-width="2" points="626.09,-42.96 618.02,-36.1 620.05,-46.5 626.09,-42.96"/>
</g>
<!-- 20&#45;&gt;0 -->
<g id="edge7" class="edge">
<title>20&#45;&gt;0</title>
<path fill="none" stroke="grey" stroke-width="2" d="M730.37,-71.88C704.12,-60.53 669.95,-45.77 644.4,-34.73"/>
<polygon fill="grey" stroke="grey" stroke-width="2" points="645.62,-31.44 635.06,-30.69 642.85,-37.87 645.62,-31.44"/>
</g>
<!-- 21&#45;&gt;0 -->
<g id="edge8" class="edge">
<title>21&#45;&gt;0</title>
<path fill="none" stroke="grey" stroke-width="2" d="M518.87,-71.88C534.76,-62.45 554.63,-50.66 571.58,-40.61"/>
<polygon fill="grey" stroke="grey" stroke-width="2" points="573.83,-43.34 580.65,-35.23 570.26,-37.32 573.83,-43.34"/>
</g>
</g>
</svg>
