<?xml version="1.0" encoding="UTF-8" standalone="no"?>
<!DOCTYPE svg PUBLIC "-//W3C//DTD SVG 1.1//EN"
 "http://www.w3.org/Graphics/SVG/1.1/DTD/svg11.dtd">
<!-- Generated by graphviz version 2.43.0 (0)
 -->
<!-- Title: snakemake_dag Pages: 1 -->
<svg width="1224pt" height="620pt"
 viewBox="0.00 0.00 1224.00 620.00" xmlns="http://www.w3.org/2000/svg" xmlns:xlink="http://www.w3.org/1999/xlink">
<g id="graph0" class="graph" transform="scale(1 1) rotate(0) translate(4 616)">
<title>snakemake_dag</title>
<polygon fill="white" stroke="transparent" points="-4,4 -4,-616 1220,-616 1220,4 -4,4"/>
<!-- 0 -->
<g id="node1" class="node">
<title>0</title>
<path fill="none" stroke="#d85656" stroke-width="2" d="M634,-36C634,-36 604,-36 604,-36 598,-36 592,-30 592,-24 592,-24 592,-12 592,-12 592,-6 598,0 604,0 604,0 634,0 634,0 640,0 646,-6 646,-12 646,-12 646,-24 646,-24 646,-30 640,-36 634,-36"/>
<text text-anchor="middle" x="619" y="-15.5" font-family="sans" font-size="10.00">all</text>
</g>
<!-- 1 -->
<g id="node2" class="node">
<title>1</title>
<path fill="none" stroke="#56b9d8" stroke-width="2" d="M889,-468C889,-468 833,-468 833,-468 827,-468 821,-462 821,-456 821,-456 821,-444 821,-444 821,-438 827,-432 833,-432 833,-432 889,-432 889,-432 895,-432 901,-438 901,-444 901,-444 901,-456 901,-456 901,-462 895,-468 889,-468"/>
<text text-anchor="middle" x="861" y="-447.5" font-family="sans" font-size="10.00">starsolo_align</text>
</g>
<!-- 1&#45;&gt;0 -->
<g id="edge1" class="edge">
<title>1&#45;&gt;0</title>
<path fill="none" stroke="grey" stroke-width="2" d="M867.27,-431.78C876.33,-405.32 892,-352.92 892,-307 892,-307 892,-307 892,-161 892,-116.27 880.4,-99.34 845,-72 789.28,-28.97 704.38,-19.99 656.06,-18.62"/>
<polygon fill="grey" stroke="grey" stroke-width="2" points="656.1,-15.12 646.04,-18.43 655.97,-22.12 656.1,-15.12"/>
</g>
<!-- 7 -->
<g id="node8" class="node">
<title>7</title>
<path fill="none" stroke="#d87556" stroke-width="2" d="M851.5,-396C851.5,-396 810.5,-396 810.5,-396 804.5,-396 798.5,-390 798.5,-384 798.5,-384 798.5,-372 798.5,-372 798.5,-366 804.5,-360 810.5,-360 810.5,-360 851.5,-360 851.5,-360 857.5,-360 863.5,-366 863.5,-372 863.5,-372 863.5,-384 863.5,-384 863.5,-390 857.5,-396 851.5,-396"/>
<text text-anchor="middle" x="831" y="-375.5" font-family="sans" font-size="10.00">cell_calling</text>
</g>
<!-- 1&#45;&gt;7 -->
<g id="edge17" class="edge">
<title>1&#45;&gt;7</title>
<path fill="none" stroke="grey" stroke-width="2" d="M853.58,-431.7C850.21,-423.81 846.13,-414.3 842.38,-405.55"/>
<polygon fill="grey" stroke="grey" stroke-width="2" points="845.49,-403.92 838.33,-396.1 839.05,-406.67 845.49,-403.92"/>
</g>
<!-- 20 -->
<g id="node21" class="node">
<title>20</title>
<path fill="none" stroke="#d89556" stroke-width="2" d="M807,-324C807,-324 733,-324 733,-324 727,-324 721,-318 721,-312 721,-312 721,-300 721,-300 721,-294 727,-288 733,-288 733,-288 807,-288 807,-288 813,-288 819,-294 819,-300 819,-300 819,-312 819,-312 819,-318 813,-324 807,-324"/>
<text text-anchor="middle" x="770" y="-303.5" font-family="sans" font-size="10.00">cell_snp_counting</text>
</g>
<!-- 1&#45;&gt;20 -->
<g id="edge35" class="edge">
<title>1&#45;&gt;20</title>
<path fill="none" stroke="grey" stroke-width="2" d="M827.98,-431.89C813.92,-423 798.6,-410.87 789,-396 777.11,-377.58 772.53,-352.98 770.82,-334.31"/>
<polygon fill="grey" stroke="grey" stroke-width="2" points="774.3,-333.83 770.12,-324.1 767.31,-334.31 774.3,-333.83"/>
</g>
<!-- 2 -->
<g id="node3" class="node">
<title>2</title>
<path fill="none" stroke="#56d8d8" stroke-width="2" d="M1177,-540C1177,-540 1137,-540 1137,-540 1131,-540 1125,-534 1125,-528 1125,-528 1125,-516 1125,-516 1125,-510 1131,-504 1137,-504 1137,-504 1177,-504 1177,-504 1183,-504 1189,-510 1189,-516 1189,-516 1189,-528 1189,-528 1189,-534 1183,-540 1177,-540"/>
<text text-anchor="middle" x="1157" y="-519.5" font-family="sans" font-size="10.00">star_index</text>
</g>
<!-- 2&#45;&gt;1 -->
<g id="edge13" class="edge">
<title>2&#45;&gt;1</title>
<path fill="none" stroke="grey" stroke-width="2" d="M1124.98,-507.05C1121.97,-505.95 1118.95,-504.91 1116,-504 1046.32,-482.52 963.25,-467.07 911.3,-458.58"/>
<polygon fill="grey" stroke="grey" stroke-width="2" points="911.77,-455.11 901.34,-456.97 910.66,-462.02 911.77,-455.11"/>
</g>
<!-- 3 -->
<g id="node4" class="node">
<title>3</title>
<path fill="none" stroke="#97d856" stroke-width="2" d="M1204,-612C1204,-612 1110,-612 1110,-612 1104,-612 1098,-606 1098,-600 1098,-600 1098,-588 1098,-588 1098,-582 1104,-576 1110,-576 1110,-576 1204,-576 1204,-576 1210,-576 1216,-582 1216,-588 1216,-588 1216,-600 1216,-600 1216,-606 1210,-612 1204,-612"/>
<text text-anchor="middle" x="1157" y="-597" font-family="sans" font-size="10.00">gff_to_gtf</text>
<text text-anchor="middle" x="1157" y="-586" font-family="sans" font-size="10.00">sample: 6303_B_hap1</text>
</g>
<!-- 3&#45;&gt;2 -->
<g id="edge14" class="edge">
<title>3&#45;&gt;2</title>
<path fill="none" stroke="grey" stroke-width="2" d="M1157,-575.7C1157,-567.98 1157,-558.71 1157,-550.11"/>
<polygon fill="grey" stroke="grey" stroke-width="2" points="1160.5,-550.1 1157,-540.1 1153.5,-550.1 1160.5,-550.1"/>
</g>
<!-- 4 -->
<g id="node5" class="node">
<title>4</title>
<path fill="none" stroke="#56b9d8" stroke-width="2" d="M416,-468C416,-468 360,-468 360,-468 354,-468 348,-462 348,-456 348,-456 348,-444 348,-444 348,-438 354,-432 360,-432 360,-432 416,-432 416,-432 422,-432 428,-438 428,-444 428,-444 428,-456 428,-456 428,-462 422,-468 416,-468"/>
<text text-anchor="middle" x="388" y="-447.5" font-family="sans" font-size="10.00">starsolo_align</text>
</g>
<!-- 4&#45;&gt;0 -->
<g id="edge2" class="edge">
<title>4&#45;&gt;0</title>
<path fill="none" stroke="grey" stroke-width="2" d="M381.93,-431.76C373.16,-405.28 358,-352.86 358,-307 358,-307 358,-307 358,-161 358,-114.73 374.84,-99.56 412,-72 462.62,-34.46 537.21,-23.41 581.67,-20.21"/>
<polygon fill="grey" stroke="grey" stroke-width="2" points="581.99,-23.7 591.75,-19.59 581.56,-16.71 581.99,-23.7"/>
</g>
<!-- 8 -->
<g id="node9" class="node">
<title>8</title>
<path fill="none" stroke="#d87556" stroke-width="2" d="M439.5,-396C439.5,-396 398.5,-396 398.5,-396 392.5,-396 386.5,-390 386.5,-384 386.5,-384 386.5,-372 386.5,-372 386.5,-366 392.5,-360 398.5,-360 398.5,-360 439.5,-360 439.5,-360 445.5,-360 451.5,-366 451.5,-372 451.5,-372 451.5,-384 451.5,-384 451.5,-390 445.5,-396 439.5,-396"/>
<text text-anchor="middle" x="419" y="-375.5" font-family="sans" font-size="10.00">cell_calling</text>
</g>
<!-- 4&#45;&gt;8 -->
<g id="edge18" class="edge">
<title>4&#45;&gt;8</title>
<path fill="none" stroke="grey" stroke-width="2" d="M395.66,-431.7C399.19,-423.73 403.46,-414.1 407.37,-405.26"/>
<polygon fill="grey" stroke="grey" stroke-width="2" points="410.58,-406.67 411.43,-396.1 404.18,-403.83 410.58,-406.67"/>
</g>
<!-- 21 -->
<g id="node22" class="node">
<title>21</title>
<path fill="none" stroke="#d89556" stroke-width="2" d="M517,-324C517,-324 443,-324 443,-324 437,-324 431,-318 431,-312 431,-312 431,-300 431,-300 431,-294 437,-288 443,-288 443,-288 517,-288 517,-288 523,-288 529,-294 529,-300 529,-300 529,-312 529,-312 529,-318 523,-324 517,-324"/>
<text text-anchor="middle" x="480" y="-303.5" font-family="sans" font-size="10.00">cell_snp_counting</text>
</g>
<!-- 4&#45;&gt;21 -->
<g id="edge38" class="edge">
<title>4&#45;&gt;21</title>
<path fill="none" stroke="grey" stroke-width="2" d="M420.95,-431.84C434.99,-422.94 450.32,-410.81 460,-396 472.02,-377.6 476.88,-353 478.82,-334.32"/>
<polygon fill="grey" stroke="grey" stroke-width="2" points="482.33,-334.36 479.65,-324.1 475.35,-333.79 482.33,-334.36"/>
</g>
<!-- 5 -->
<g id="node6" class="node">
<title>5</title>
<path fill="none" stroke="#56d8d8" stroke-width="2" d="M79,-540C79,-540 39,-540 39,-540 33,-540 27,-534 27,-528 27,-528 27,-516 27,-516 27,-510 33,-504 39,-504 39,-504 79,-504 79,-504 85,-504 91,-510 91,-516 91,-516 91,-528 91,-528 91,-534 85,-540 79,-540"/>
<text text-anchor="middle" x="59" y="-519.5" font-family="sans" font-size="10.00">star_index</text>
</g>
<!-- 5&#45;&gt;4 -->
<g id="edge15" class="edge">
<title>5&#45;&gt;4</title>
<path fill="none" stroke="grey" stroke-width="2" d="M91.45,-506.82C94.31,-505.79 97.19,-504.83 100,-504 181.63,-479.86 279.69,-464.62 337.76,-456.97"/>
<polygon fill="grey" stroke="grey" stroke-width="2" points="338.31,-460.43 347.78,-455.68 337.41,-453.49 338.31,-460.43"/>
</g>
<!-- 6 -->
<g id="node7" class="node">
<title>6</title>
<path fill="none" stroke="#97d856" stroke-width="2" d="M106,-612C106,-612 12,-612 12,-612 6,-612 0,-606 0,-600 0,-600 0,-588 0,-588 0,-582 6,-576 12,-576 12,-576 106,-576 106,-576 112,-576 118,-582 118,-588 118,-588 118,-600 118,-600 118,-606 112,-612 106,-612"/>
<text text-anchor="middle" x="59" y="-597" font-family="sans" font-size="10.00">gff_to_gtf</text>
<text text-anchor="middle" x="59" y="-586" font-family="sans" font-size="10.00">sample: 6303_B_hap2</text>
</g>
<!-- 6&#45;&gt;5 -->
<g id="edge16" class="edge">
<title>6&#45;&gt;5</title>
<path fill="none" stroke="grey" stroke-width="2" d="M59,-575.7C59,-567.98 59,-558.71 59,-550.11"/>
<polygon fill="grey" stroke="grey" stroke-width="2" points="62.5,-550.1 59,-540.1 55.5,-550.1 62.5,-550.1"/>
</g>
<!-- 7&#45;&gt;0 -->
<g id="edge3" class="edge">
<title>7&#45;&gt;0</title>
<path fill="none" stroke="grey" stroke-width="2" d="M834.24,-359.58C838.91,-332.87 847,-280.15 847,-235 847,-235 847,-235 847,-161 847,-119.53 848.98,-100.64 819,-72 774.75,-29.73 700.84,-20.25 656.33,-18.63"/>
<polygon fill="grey" stroke="grey" stroke-width="2" points="656.3,-15.13 646.22,-18.38 656.13,-22.13 656.3,-15.13"/>
</g>
<!-- 7&#45;&gt;20 -->
<g id="edge36" class="edge">
<title>7&#45;&gt;20</title>
<path fill="none" stroke="grey" stroke-width="2" d="M815.92,-359.7C808.61,-351.3 799.69,-341.07 791.66,-331.86"/>
<polygon fill="grey" stroke="grey" stroke-width="2" points="794.11,-329.34 784.91,-324.1 788.84,-333.94 794.11,-329.34"/>
</g>
<!-- 8&#45;&gt;0 -->
<g id="edge4" class="edge">
<title>8&#45;&gt;0</title>
<path fill="none" stroke="grey" stroke-width="2" d="M415.16,-359.61C409.6,-332.94 400,-280.27 400,-235 400,-235 400,-235 400,-161 400,-114.73 417.68,-100.66 454,-72 491.4,-42.48 545.67,-29.2 581.63,-23.37"/>
<polygon fill="grey" stroke="grey" stroke-width="2" points="582.34,-26.8 591.71,-21.85 581.3,-19.88 582.34,-26.8"/>
</g>
<!-- 8&#45;&gt;21 -->
<g id="edge39" class="edge">
<title>8&#45;&gt;21</title>
<path fill="none" stroke="grey" stroke-width="2" d="M434.08,-359.7C441.39,-351.3 450.31,-341.07 458.34,-331.86"/>
<polygon fill="grey" stroke="grey" stroke-width="2" points="461.16,-333.94 465.09,-324.1 455.89,-329.34 461.16,-333.94"/>
</g>
<!-- 9 -->
<g id="node10" class="node">
<title>9</title>
<path fill="none" stroke="#d6d856" stroke-width="2" d="M599.5,-396C599.5,-396 540.5,-396 540.5,-396 534.5,-396 528.5,-390 528.5,-384 528.5,-384 528.5,-372 528.5,-372 528.5,-366 534.5,-360 540.5,-360 540.5,-360 599.5,-360 599.5,-360 605.5,-360 611.5,-366 611.5,-372 611.5,-372 611.5,-384 611.5,-384 611.5,-390 605.5,-396 599.5,-396"/>
<text text-anchor="middle" x="570" y="-375.5" font-family="sans" font-size="10.00">filter_markers</text>
</g>
<!-- 9&#45;&gt;0 -->
<g id="edge5" class="edge">
<title>9&#45;&gt;0</title>
<path fill="none" stroke="grey" stroke-width="2" d="M572.36,-359.73C580.24,-302.19 605.63,-116.66 615.26,-46.35"/>
<polygon fill="grey" stroke="grey" stroke-width="2" points="618.77,-46.48 616.66,-36.09 611.84,-45.53 618.77,-46.48"/>
</g>
<!-- 9&#45;&gt;20 -->
<g id="edge37" class="edge">
<title>9&#45;&gt;20</title>
<path fill="none" stroke="grey" stroke-width="2" d="M611.93,-362.33C640.78,-352.23 679.52,-338.67 711.42,-327.5"/>
<polygon fill="grey" stroke="grey" stroke-width="2" points="712.8,-330.73 721.08,-324.12 710.49,-324.12 712.8,-330.73"/>
</g>
<!-- 9&#45;&gt;21 -->
<g id="edge40" class="edge">
<title>9&#45;&gt;21</title>
<path fill="none" stroke="grey" stroke-width="2" d="M547.75,-359.7C536.42,-350.88 522.47,-340.03 510.18,-330.47"/>
<polygon fill="grey" stroke="grey" stroke-width="2" points="512.03,-327.48 501.99,-324.1 507.74,-333.01 512.03,-327.48"/>
</g>
<!-- 10 -->
<g id="node11" class="node">
<title>10</title>
<path fill="none" stroke="#59d856" stroke-width="2" d="M649.5,-468C649.5,-468 566.5,-468 566.5,-468 560.5,-468 554.5,-462 554.5,-456 554.5,-456 554.5,-444 554.5,-444 554.5,-438 560.5,-432 566.5,-432 566.5,-432 649.5,-432 649.5,-432 655.5,-432 661.5,-438 661.5,-444 661.5,-444 661.5,-456 661.5,-456 661.5,-462 655.5,-468 649.5,-468"/>
<text text-anchor="middle" x="608" y="-447.5" font-family="sans" font-size="10.00">hifi_variants_merge</text>
</g>
<!-- 10&#45;&gt;9 -->
<g id="edge19" class="edge">
<title>10&#45;&gt;9</title>
<path fill="none" stroke="grey" stroke-width="2" d="M598.61,-431.7C594.24,-423.64 588.94,-413.89 584.1,-404.98"/>
<polygon fill="grey" stroke="grey" stroke-width="2" points="587.13,-403.22 579.29,-396.1 580.98,-406.56 587.13,-403.22"/>
</g>
<!-- 19 -->
<g id="node20" class="node">
<title>19</title>
<path fill="none" stroke="#56d89a" stroke-width="2" d="M690.5,-324C690.5,-324 607.5,-324 607.5,-324 601.5,-324 595.5,-318 595.5,-312 595.5,-312 595.5,-300 595.5,-300 595.5,-294 601.5,-288 607.5,-288 607.5,-288 690.5,-288 690.5,-288 696.5,-288 702.5,-294 702.5,-300 702.5,-300 702.5,-312 702.5,-312 702.5,-318 696.5,-324 690.5,-324"/>
<text text-anchor="middle" x="649" y="-303.5" font-family="sans" font-size="10.00">marker_diagnostics</text>
</g>
<!-- 10&#45;&gt;19 -->
<g id="edge34" class="edge">
<title>10&#45;&gt;19</title>
<path fill="none" stroke="grey" stroke-width="2" d="M612.95,-431.87C619.96,-407.56 632.88,-362.82 641.2,-334.01"/>
<polygon fill="grey" stroke="grey" stroke-width="2" points="644.63,-334.77 644.04,-324.19 637.9,-332.83 644.63,-334.77"/>
</g>
<!-- 11 -->
<g id="node12" class="node">
<title>11</title>
<path fill="none" stroke="#56d87b" stroke-width="2" d="M514.5,-540C514.5,-540 411.5,-540 411.5,-540 405.5,-540 399.5,-534 399.5,-528 399.5,-528 399.5,-516 399.5,-516 399.5,-510 405.5,-504 411.5,-504 411.5,-504 514.5,-504 514.5,-504 520.5,-504 526.5,-510 526.5,-516 526.5,-516 526.5,-528 526.5,-528 526.5,-534 520.5,-540 514.5,-540"/>
<text text-anchor="middle" x="463" y="-525" font-family="sans" font-size="10.00">hifi_variants_per_chrom</text>
<text text-anchor="middle" x="463" y="-514" font-family="sans" font-size="10.00">chrom: scaffold_1</text>
</g>
<!-- 11&#45;&gt;10 -->
<g id="edge20" class="edge">
<title>11&#45;&gt;10</title>
<path fill="none" stroke="grey" stroke-width="2" d="M498.47,-503.88C518.12,-494.39 542.72,-482.51 563.63,-472.42"/>
<polygon fill="grey" stroke="grey" stroke-width="2" points="565.16,-475.57 572.64,-468.07 562.12,-469.26 565.16,-475.57"/>
</g>
<!-- 12 -->
<g id="node13" class="node">
<title>12</title>
<path fill="none" stroke="#78d856" stroke-width="2" d="M655,-612C655,-612 561,-612 561,-612 555,-612 549,-606 549,-600 549,-600 549,-588 549,-588 549,-582 555,-576 561,-576 561,-576 655,-576 655,-576 661,-576 667,-582 667,-588 667,-588 667,-600 667,-600 667,-606 661,-612 655,-612"/>
<text text-anchor="middle" x="608" y="-597" font-family="sans" font-size="10.00">hifi_align</text>
<text text-anchor="middle" x="608" y="-586" font-family="sans" font-size="10.00">sample: 6303_B_hap1</text>
</g>
<!-- 12&#45;&gt;11 -->
<g id="edge27" class="edge">
<title>12&#45;&gt;11</title>
<path fill="none" stroke="grey" stroke-width="2" d="M572.53,-575.88C552.88,-566.39 528.28,-554.51 507.37,-544.42"/>
<polygon fill="grey" stroke="grey" stroke-width="2" points="508.88,-541.26 498.36,-540.07 505.84,-547.57 508.88,-541.26"/>
</g>
<!-- 13 -->
<g id="node14" class="node">
<title>13</title>
<path fill="none" stroke="#56d87b" stroke-width="2" d="M659.5,-540C659.5,-540 556.5,-540 556.5,-540 550.5,-540 544.5,-534 544.5,-528 544.5,-528 544.5,-516 544.5,-516 544.5,-510 550.5,-504 556.5,-504 556.5,-504 659.5,-504 659.5,-504 665.5,-504 671.5,-510 671.5,-516 671.5,-516 671.5,-528 671.5,-528 671.5,-534 665.5,-540 659.5,-540"/>
<text text-anchor="middle" x="608" y="-525" font-family="sans" font-size="10.00">hifi_variants_per_chrom</text>
<text text-anchor="middle" x="608" y="-514" font-family="sans" font-size="10.00">chrom: scaffold_3</text>
</g>
<!-- 12&#45;&gt;13 -->
<g id="edge28" class="edge">
<title>12&#45;&gt;13</title>
<path fill="none" stroke="grey" stroke-width="2" d="M608,-575.7C608,-567.98 608,-558.71 608,-550.11"/>
<polygon fill="grey" stroke="grey" stroke-width="2" points="611.5,-550.1 608,-540.1 604.5,-550.1 611.5,-550.1"/>
</g>
<!-- 14 -->
<g id="node15" class="node">
<title>14</title>
<path fill="none" stroke="#56d87b" stroke-width="2" d="M804.5,-540C804.5,-540 701.5,-540 701.5,-540 695.5,-540 689.5,-534 689.5,-528 689.5,-528 689.5,-516 689.5,-516 689.5,-510 695.5,-504 701.5,-504 701.5,-504 804.5,-504 804.5,-504 810.5,-504 816.5,-510 816.5,-516 816.5,-516 816.5,-528 816.5,-528 816.5,-534 810.5,-540 804.5,-540"/>
<text text-anchor="middle" x="753" y="-525" font-family="sans" font-size="10.00">hifi_variants_per_chrom</text>
<text text-anchor="middle" x="753" y="-514" font-family="sans" font-size="10.00">chrom: scaffold_5</text>
</g>
<!-- 12&#45;&gt;14 -->
<g id="edge29" class="edge">
<title>12&#45;&gt;14</title>
<path fill="none" stroke="grey" stroke-width="2" d="M643.47,-575.88C663.12,-566.39 687.72,-554.51 708.63,-544.42"/>
<polygon fill="grey" stroke="grey" stroke-width="2" points="710.16,-547.57 717.64,-540.07 707.12,-541.26 710.16,-547.57"/>
</g>
<!-- 15 -->
<g id="node16" class="node">
<title>15</title>
<path fill="none" stroke="#56d87b" stroke-width="2" d="M949.5,-540C949.5,-540 846.5,-540 846.5,-540 840.5,-540 834.5,-534 834.5,-528 834.5,-528 834.5,-516 834.5,-516 834.5,-510 840.5,-504 846.5,-504 846.5,-504 949.5,-504 949.5,-504 955.5,-504 961.5,-510 961.5,-516 961.5,-516 961.5,-528 961.5,-528 961.5,-534 955.5,-540 949.5,-540"/>
<text text-anchor="middle" x="898" y="-525" font-family="sans" font-size="10.00">hifi_variants_per_chrom</text>
<text text-anchor="middle" x="898" y="-514" font-family="sans" font-size="10.00">chrom: scaffold_7</text>
</g>
<!-- 12&#45;&gt;15 -->
<g id="edge30" class="edge">
<title>12&#45;&gt;15</title>
<path fill="none" stroke="grey" stroke-width="2" d="M667.04,-578.75C712.51,-567.77 775.64,-552.54 824.4,-540.76"/>
<polygon fill="grey" stroke="grey" stroke-width="2" points="825.37,-544.13 834.27,-538.38 823.73,-537.33 825.37,-544.13"/>
</g>
<!-- 16 -->
<g id="node17" class="node">
<title>16</title>
<path fill="none" stroke="#56d87b" stroke-width="2" d="M1094.5,-540C1094.5,-540 991.5,-540 991.5,-540 985.5,-540 979.5,-534 979.5,-528 979.5,-528 979.5,-516 979.5,-516 979.5,-510 985.5,-504 991.5,-504 991.5,-504 1094.5,-504 1094.5,-504 1100.5,-504 1106.5,-510 1106.5,-516 1106.5,-516 1106.5,-528 1106.5,-528 1106.5,-534 1100.5,-540 1094.5,-540"/>
<text text-anchor="middle" x="1043" y="-525" font-family="sans" font-size="10.00">hifi_variants_per_chrom</text>
<text text-anchor="middle" x="1043" y="-514" font-family="sans" font-size="10.00">chrom: scaffold_9</text>
</g>
<!-- 12&#45;&gt;16 -->
<g id="edge31" class="edge">
<title>12&#45;&gt;16</title>
<path fill="none" stroke="grey" stroke-width="2" d="M667.19,-585.87C737.05,-577.12 856.88,-561.03 969.53,-540"/>
<polygon fill="grey" stroke="grey" stroke-width="2" points="970.19,-543.44 979.37,-538.15 968.89,-536.56 970.19,-543.44"/>
</g>
<!-- 17 -->
<g id="node18" class="node">
<title>17</title>
<path fill="none" stroke="#56d87b" stroke-width="2" d="M224.5,-540C224.5,-540 121.5,-540 121.5,-540 115.5,-540 109.5,-534 109.5,-528 109.5,-528 109.5,-516 109.5,-516 109.5,-510 115.5,-504 121.5,-504 121.5,-504 224.5,-504 224.5,-504 230.5,-504 236.5,-510 236.5,-516 236.5,-516 236.5,-528 236.5,-528 236.5,-534 230.5,-540 224.5,-540"/>
<text text-anchor="middle" x="173" y="-525" font-family="sans" font-size="10.00">hifi_variants_per_chrom</text>
<text text-anchor="middle" x="173" y="-514" font-family="sans" font-size="10.00">chrom: scaffold_11</text>
</g>
<!-- 12&#45;&gt;17 -->
<g id="edge32" class="edge">
<title>12&#45;&gt;17</title>
<path fill="none" stroke="grey" stroke-width="2" d="M548.95,-585.98C479.01,-577.31 358.81,-561.28 246.67,-540.24"/>
<polygon fill="grey" stroke="grey" stroke-width="2" points="247.02,-536.74 236.54,-538.32 245.71,-543.62 247.02,-536.74"/>
</g>
<!-- 18 -->
<g id="node19" class="node">
<title>18</title>
<path fill="none" stroke="#56d87b" stroke-width="2" d="M369.5,-540C369.5,-540 266.5,-540 266.5,-540 260.5,-540 254.5,-534 254.5,-528 254.5,-528 254.5,-516 254.5,-516 254.5,-510 260.5,-504 266.5,-504 266.5,-504 369.5,-504 369.5,-504 375.5,-504 381.5,-510 381.5,-516 381.5,-516 381.5,-528 381.5,-528 381.5,-534 375.5,-540 369.5,-540"/>
<text text-anchor="middle" x="318" y="-525" font-family="sans" font-size="10.00">hifi_variants_per_chrom</text>
<text text-anchor="middle" x="318" y="-514" font-family="sans" font-size="10.00">chrom: scaffold_13</text>
</g>
<!-- 12&#45;&gt;18 -->
<g id="edge33" class="edge">
<title>12&#45;&gt;18</title>
<path fill="none" stroke="grey" stroke-width="2" d="M548.96,-578.75C503.49,-567.77 440.36,-552.54 391.6,-540.76"/>
<polygon fill="grey" stroke="grey" stroke-width="2" points="392.27,-537.33 381.73,-538.38 390.63,-544.13 392.27,-537.33"/>
</g>
<!-- 13&#45;&gt;10 -->
<g id="edge21" class="edge">
<title>13&#45;&gt;10</title>
<path fill="none" stroke="grey" stroke-width="2" d="M608,-503.7C608,-495.98 608,-486.71 608,-478.11"/>
<polygon fill="grey" stroke="grey" stroke-width="2" points="611.5,-478.1 608,-468.1 604.5,-478.1 611.5,-478.1"/>
</g>
<!-- 14&#45;&gt;10 -->
<g id="edge22" class="edge">
<title>14&#45;&gt;10</title>
<path fill="none" stroke="grey" stroke-width="2" d="M717.53,-503.88C697.88,-494.39 673.28,-482.51 652.37,-472.42"/>
<polygon fill="grey" stroke="grey" stroke-width="2" points="653.88,-469.26 643.36,-468.07 650.84,-475.57 653.88,-469.26"/>
</g>
<!-- 15&#45;&gt;10 -->
<g id="edge23" class="edge">
<title>15&#45;&gt;10</title>
<path fill="none" stroke="grey" stroke-width="2" d="M834.36,-505.64C786.1,-493.99 720.08,-478.05 671.79,-466.4"/>
<polygon fill="grey" stroke="grey" stroke-width="2" points="672.31,-462.92 661.76,-463.98 670.66,-469.73 672.31,-462.92"/>
</g>
<!-- 16&#45;&gt;10 -->
<g id="edge24" class="edge">
<title>16&#45;&gt;10</title>
<path fill="none" stroke="grey" stroke-width="2" d="M979.37,-505.85C976.2,-505.2 973.07,-504.58 970,-504 866.2,-484.35 744.48,-467.86 671.93,-458.72"/>
<polygon fill="grey" stroke="grey" stroke-width="2" points="671.95,-455.2 661.6,-457.43 671.08,-462.14 671.95,-455.2"/>
</g>
<!-- 17&#45;&gt;10 -->
<g id="edge25" class="edge">
<title>17&#45;&gt;10</title>
<path fill="none" stroke="grey" stroke-width="2" d="M236.54,-505.68C239.39,-505.09 242.22,-504.53 245,-504 349.05,-484.16 471.12,-467.73 543.88,-458.65"/>
<polygon fill="grey" stroke="grey" stroke-width="2" points="544.75,-462.07 554.25,-457.37 543.89,-455.12 544.75,-462.07"/>
</g>
<!-- 18&#45;&gt;10 -->
<g id="edge26" class="edge">
<title>18&#45;&gt;10</title>
<path fill="none" stroke="grey" stroke-width="2" d="M381.64,-505.64C429.9,-493.99 495.92,-478.05 544.21,-466.4"/>
<polygon fill="grey" stroke="grey" stroke-width="2" points="545.34,-469.73 554.24,-463.98 543.69,-462.92 545.34,-469.73"/>
</g>
<!-- 19&#45;&gt;0 -->
<g id="edge6" class="edge">
<title>19&#45;&gt;0</title>
<path fill="none" stroke="grey" stroke-width="2" d="M647.21,-287.97C642.2,-240.19 627.98,-104.62 621.86,-46.27"/>
<polygon fill="grey" stroke="grey" stroke-width="2" points="625.34,-45.89 620.82,-36.31 618.38,-46.62 625.34,-45.89"/>
</g>
<!-- 20&#45;&gt;0 -->
<g id="edge7" class="edge">
<title>20&#45;&gt;0</title>
<path fill="none" stroke="grey" stroke-width="2" d="M743.11,-287.78C730.4,-278.48 715.87,-266.04 706,-252 657.08,-182.42 671.76,-151.3 641,-72 637.63,-63.32 633.79,-53.92 630.27,-45.47"/>
<polygon fill="grey" stroke="grey" stroke-width="2" points="633.44,-43.97 626.34,-36.1 626.98,-46.68 633.44,-43.97"/>
</g>
<!-- 24 -->
<g id="node25" class="node">
<title>24</title>
<path fill="none" stroke="#d8b456" stroke-width="2" d="M806.5,-252C806.5,-252 727.5,-252 727.5,-252 721.5,-252 715.5,-246 715.5,-240 715.5,-240 715.5,-228 715.5,-228 715.5,-222 721.5,-216 727.5,-216 727.5,-216 806.5,-216 806.5,-216 812.5,-216 818.5,-222 818.5,-228 818.5,-228 818.5,-240 818.5,-240 818.5,-246 812.5,-252 806.5,-252"/>
<text text-anchor="middle" x="767" y="-231.5" font-family="sans" font-size="10.00">cellsnp_to_per_cell</text>
</g>
<!-- 20&#45;&gt;24 -->
<g id="edge43" class="edge">
<title>20&#45;&gt;24</title>
<path fill="none" stroke="grey" stroke-width="2" d="M769.26,-287.7C768.93,-279.98 768.53,-270.71 768.16,-262.11"/>
<polygon fill="grey" stroke="grey" stroke-width="2" points="771.66,-261.95 767.73,-252.1 764.66,-262.25 771.66,-261.95"/>
</g>
<!-- 21&#45;&gt;0 -->
<g id="edge8" class="edge">
<title>21&#45;&gt;0</title>
<path fill="none" stroke="grey" stroke-width="2" d="M470.46,-287.93C465.36,-277.82 459.61,-264.57 457,-252 440.54,-172.73 428.26,-129.76 485,-72 511.03,-45.5 551.95,-31.91 581.73,-25.17"/>
<polygon fill="grey" stroke="grey" stroke-width="2" points="582.68,-28.54 591.75,-23.06 581.24,-21.69 582.68,-28.54"/>
</g>
<!-- 27 -->
<g id="node28" class="node">
<title>27</title>
<path fill="none" stroke="#d8b456" stroke-width="2" d="M557.5,-252C557.5,-252 478.5,-252 478.5,-252 472.5,-252 466.5,-246 466.5,-240 466.5,-240 466.5,-228 466.5,-228 466.5,-222 472.5,-216 478.5,-216 478.5,-216 557.5,-216 557.5,-216 563.5,-216 569.5,-222 569.5,-228 569.5,-228 569.5,-240 569.5,-240 569.5,-246 563.5,-252 557.5,-252"/>
<text text-anchor="middle" x="518" y="-231.5" font-family="sans" font-size="10.00">cellsnp_to_per_cell</text>
</g>
<!-- 21&#45;&gt;27 -->
<g id="edge46" class="edge">
<title>21&#45;&gt;27</title>
<path fill="none" stroke="grey" stroke-width="2" d="M489.39,-287.7C493.76,-279.64 499.06,-269.89 503.9,-260.98"/>
<polygon fill="grey" stroke="grey" stroke-width="2" points="507.02,-262.56 508.71,-252.1 500.87,-259.22 507.02,-262.56"/>
</g>
<!-- 22 -->
<g id="node23" class="node">
<title>22</title>
<path fill="none" stroke="#56d8b9" stroke-width="2" d="M798,-108C798,-108 754,-108 754,-108 748,-108 742,-102 742,-96 742,-96 742,-84 742,-84 742,-78 748,-72 754,-72 754,-72 798,-72 798,-72 804,-72 810,-78 810,-84 810,-84 810,-96 810,-96 810,-102 804,-108 798,-108"/>
<text text-anchor="middle" x="776" y="-87.5" font-family="sans" font-size="10.00">select_cells</text>
</g>
<!-- 22&#45;&gt;0 -->
<g id="edge9" class="edge">
<title>22&#45;&gt;0</title>
<path fill="none" stroke="grey" stroke-width="2" d="M741.93,-73.81C716.39,-62.42 681.49,-46.86 655.4,-35.23"/>
<polygon fill="grey" stroke="grey" stroke-width="2" points="656.78,-32.01 646.22,-31.14 653.93,-38.41 656.78,-32.01"/>
</g>
<!-- 23 -->
<g id="node24" class="node">
<title>23</title>
<path fill="none" stroke="#567bd8" stroke-width="2" d="M805.5,-180C805.5,-180 728.5,-180 728.5,-180 722.5,-180 716.5,-174 716.5,-168 716.5,-168 716.5,-156 716.5,-156 716.5,-150 722.5,-144 728.5,-144 728.5,-144 805.5,-144 805.5,-144 811.5,-144 817.5,-150 817.5,-156 817.5,-156 817.5,-168 817.5,-168 817.5,-174 811.5,-180 805.5,-180"/>
<text text-anchor="middle" x="767" y="-159.5" font-family="sans" font-size="10.00">switch_diagnostics</text>
</g>
<!-- 23&#45;&gt;0 -->
<g id="edge11" class="edge">
<title>23&#45;&gt;0</title>
<path fill="none" stroke="grey" stroke-width="2" d="M754.08,-143.96C739.53,-125.3 714.68,-94.96 690,-72 678.56,-61.36 665.03,-50.82 652.85,-41.97"/>
<polygon fill="grey" stroke="grey" stroke-width="2" points="654.86,-39.11 644.69,-36.14 650.79,-44.8 654.86,-39.11"/>
</g>
<!-- 23&#45;&gt;22 -->
<g id="edge41" class="edge">
<title>23&#45;&gt;22</title>
<path fill="none" stroke="grey" stroke-width="2" d="M769.22,-143.7C770.22,-135.98 771.41,-126.71 772.51,-118.11"/>
<polygon fill="grey" stroke="grey" stroke-width="2" points="776,-118.47 773.8,-108.1 769.05,-117.58 776,-118.47"/>
</g>
<!-- 24&#45;&gt;23 -->
<g id="edge42" class="edge">
<title>24&#45;&gt;23</title>
<path fill="none" stroke="grey" stroke-width="2" d="M767,-215.7C767,-207.98 767,-198.71 767,-190.11"/>
<polygon fill="grey" stroke="grey" stroke-width="2" points="770.5,-190.1 767,-180.1 763.5,-190.1 770.5,-190.1"/>
</g>
<!-- 25 -->
<g id="node26" class="node">
<title>25</title>
<path fill="none" stroke="#56d8b9" stroke-width="2" d="M560,-108C560,-108 516,-108 516,-108 510,-108 504,-102 504,-96 504,-96 504,-84 504,-84 504,-78 510,-72 516,-72 516,-72 560,-72 560,-72 566,-72 572,-78 572,-84 572,-84 572,-96 572,-96 572,-102 566,-108 560,-108"/>
<text text-anchor="middle" x="538" y="-87.5" font-family="sans" font-size="10.00">select_cells</text>
</g>
<!-- 25&#45;&gt;0 -->
<g id="edge10" class="edge">
<title>25&#45;&gt;0</title>
<path fill="none" stroke="grey" stroke-width="2" d="M558.02,-71.7C568.13,-62.97 580.54,-52.24 591.52,-42.75"/>
<polygon fill="grey" stroke="grey" stroke-width="2" points="593.93,-45.29 599.21,-36.1 589.35,-39.99 593.93,-45.29"/>
</g>
<!-- 26 -->
<g id="node27" class="node">
<title>26</title>
<path fill="none" stroke="#567bd8" stroke-width="2" d="M556.5,-180C556.5,-180 479.5,-180 479.5,-180 473.5,-180 467.5,-174 467.5,-168 467.5,-168 467.5,-156 467.5,-156 467.5,-150 473.5,-144 479.5,-144 479.5,-144 556.5,-144 556.5,-144 562.5,-144 568.5,-150 568.5,-156 568.5,-156 568.5,-168 568.5,-168 568.5,-174 562.5,-180 556.5,-180"/>
<text text-anchor="middle" x="518" y="-159.5" font-family="sans" font-size="10.00">switch_diagnostics</text>
</g>
<!-- 26&#45;&gt;0 -->
<g id="edge12" class="edge">
<title>26&#45;&gt;0</title>
<path fill="none" stroke="grey" stroke-width="2" d="M506.06,-143.93C494.41,-124.97 480.41,-94.11 495,-72 514.15,-42.99 552.81,-29.8 581.89,-23.84"/>
<polygon fill="grey" stroke="grey" stroke-width="2" points="582.54,-27.28 591.74,-22.02 581.27,-20.4 582.54,-27.28"/>
</g>
<!-- 26&#45;&gt;25 -->
<g id="edge44" class="edge">
<title>26&#45;&gt;25</title>
<path fill="none" stroke="grey" stroke-width="2" d="M522.94,-143.7C525.17,-135.9 527.85,-126.51 530.33,-117.83"/>
<polygon fill="grey" stroke="grey" stroke-width="2" points="533.73,-118.68 533.11,-108.1 527,-116.76 533.73,-118.68"/>
</g>
<!-- 27&#45;&gt;26 -->
<g id="edge45" class="edge">
<title>27&#45;&gt;26</title>
<path fill="none" stroke="grey" stroke-width="2" d="M518,-215.7C518,-207.98 518,-198.71 518,-190.11"/>
<polygon fill="grey" stroke="grey" stroke-width="2" points="521.5,-190.1 518,-180.1 514.5,-190.1 521.5,-190.1"/>
</g>
</g>
</svg>
