<?xml version="1.0" encoding="UTF-8" standalone="no"?>
<!DOCTYPE svg PUBLIC "-//W3C//DTD SVG 1.1//EN"
 "http://www.w3.org/Graphics/SVG/1.1/DTD/svg11.dtd">
<!-- Generated by graphviz version 2.43.0 (0)
 -->
<!-- Title: snakemake_dag Pages: 1 -->
<svg width="1115pt" height="764pt"
 viewBox="0.00 0.00 1114.50 764.00" xmlns="http://www.w3.org/2000/svg" xmlns:xlink="http://www.w3.org/1999/xlink">
<g id="graph0" class="graph" transform="scale(1 1) rotate(0) translate(4 760)">
<title>snakemake_dag</title>
<polygon fill="white" stroke="transparent" points="-4,4 -4,-760 1110.5,-760 1110.5,4 -4,4"/>
<!-- 0 -->
<g id="node1" class="node">
<title>0</title>
<path fill="none" stroke="#d85656" stroke-width="2" d="M226,-36C226,-36 196,-36 196,-36 190,-36 184,-30 184,-24 184,-24 184,-12 184,-12 184,-6 190,0 196,0 196,0 226,0 226,0 232,0 238,-6 238,-12 238,-12 238,-24 238,-24 238,-30 232,-36 226,-36"/>
<text text-anchor="middle" x="211" y="-15.5" font-family="sans" font-size="10.00">all</text>
</g>
<!-- 1 -->
<g id="node2" class="node">
<title>1</title>
<path fill="none" stroke="#56a9d8" stroke-width="2" d="M106,-612C106,-612 50,-612 50,-612 44,-612 38,-606 38,-600 38,-600 38,-588 38,-588 38,-582 44,-576 50,-576 50,-576 106,-576 106,-576 112,-576 118,-582 118,-588 118,-588 118,-600 118,-600 118,-606 112,-612 106,-612"/>
<text text-anchor="middle" x="78" y="-591.5" font-family="sans" font-size="10.00">starsolo_align</text>
</g>
<!-- 1&#45;&gt;0 -->
<g id="edge1" class="edge">
<title>1&#45;&gt;0</title>
<path fill="none" stroke="grey" stroke-width="2" d="M73.55,-575.65C67.12,-549.02 56,-496.4 56,-451 56,-451 56,-451 56,-161 56,-97.12 128.47,-54.2 174.31,-33.45"/>
<polygon fill="grey" stroke="grey" stroke-width="2" points="175.89,-36.58 183.65,-29.36 173.08,-30.17 175.89,-36.58"/>
</g>
<!-- 4 -->
<g id="node5" class="node">
<title>4</title>
<path fill="none" stroke="#d87556" stroke-width="2" d="M137.5,-540C137.5,-540 96.5,-540 96.5,-540 90.5,-540 84.5,-534 84.5,-528 84.5,-528 84.5,-516 84.5,-516 84.5,-510 90.5,-504 96.5,-504 96.5,-504 137.5,-504 137.5,-504 143.5,-504 149.5,-510 149.5,-516 149.5,-516 149.5,-528 149.5,-528 149.5,-534 143.5,-540 137.5,-540"/>
<text text-anchor="middle" x="117" y="-519.5" font-family="sans" font-size="10.00">cell_calling</text>
</g>
<!-- 1&#45;&gt;4 -->
<g id="edge12" class="edge">
<title>1&#45;&gt;4</title>
<path fill="none" stroke="grey" stroke-width="2" d="M87.64,-575.7C92.13,-567.64 97.56,-557.89 102.52,-548.98"/>
<polygon fill="grey" stroke="grey" stroke-width="2" points="105.66,-550.54 107.47,-540.1 99.55,-547.14 105.66,-550.54"/>
</g>
<!-- 16 -->
<g id="node17" class="node">
<title>16</title>
<path fill="none" stroke="#d88d56" stroke-width="2" d="M215,-468C215,-468 141,-468 141,-468 135,-468 129,-462 129,-456 129,-456 129,-444 129,-444 129,-438 135,-432 141,-432 141,-432 215,-432 215,-432 221,-432 227,-438 227,-444 227,-444 227,-456 227,-456 227,-462 221,-468 215,-468"/>
<text text-anchor="middle" x="178" y="-447.5" font-family="sans" font-size="10.00">cell_snp_counting</text>
</g>
<!-- 1&#45;&gt;16 -->
<g id="edge29" class="edge">
<title>1&#45;&gt;16</title>
<path fill="none" stroke="grey" stroke-width="2" d="M115.82,-575.91C131.07,-567.21 147.51,-555.23 158,-540 170.53,-521.82 175.34,-497.05 177.13,-478.25"/>
<polygon fill="grey" stroke="grey" stroke-width="2" points="180.62,-478.47 177.85,-468.24 173.64,-477.96 180.62,-478.47"/>
</g>
<!-- 2 -->
<g id="node3" class="node">
<title>2</title>
<path fill="none" stroke="#56c9d8" stroke-width="2" d="M79,-684C79,-684 39,-684 39,-684 33,-684 27,-678 27,-672 27,-672 27,-660 27,-660 27,-654 33,-648 39,-648 39,-648 79,-648 79,-648 85,-648 91,-654 91,-660 91,-660 91,-672 91,-672 91,-678 85,-684 79,-684"/>
<text text-anchor="middle" x="59" y="-663.5" font-family="sans" font-size="10.00">star_index</text>
</g>
<!-- 2&#45;&gt;1 -->
<g id="edge10" class="edge">
<title>2&#45;&gt;1</title>
<path fill="none" stroke="grey" stroke-width="2" d="M63.7,-647.7C65.81,-639.9 68.36,-630.51 70.72,-621.83"/>
<polygon fill="grey" stroke="grey" stroke-width="2" points="74.12,-622.67 73.36,-612.1 67.36,-620.84 74.12,-622.67"/>
</g>
<!-- 3 -->
<g id="node4" class="node">
<title>3</title>
<path fill="none" stroke="#70d856" stroke-width="2" d="M106,-756C106,-756 12,-756 12,-756 6,-756 0,-750 0,-744 0,-744 0,-732 0,-732 0,-726 6,-720 12,-720 12,-720 106,-720 106,-720 112,-720 118,-726 118,-732 118,-732 118,-744 118,-744 118,-750 112,-756 106,-756"/>
<text text-anchor="middle" x="59" y="-741" font-family="sans" font-size="10.00">gff_to_gtf</text>
<text text-anchor="middle" x="59" y="-730" font-family="sans" font-size="10.00">sample: 6303_B_hap1</text>
</g>
<!-- 3&#45;&gt;2 -->
<g id="edge11" class="edge">
<title>3&#45;&gt;2</title>
<path fill="none" stroke="grey" stroke-width="2" d="M59,-719.7C59,-711.98 59,-702.71 59,-694.11"/>
<polygon fill="grey" stroke="grey" stroke-width="2" points="62.5,-694.1 59,-684.1 55.5,-694.1 62.5,-694.1"/>
</g>
<!-- 4&#45;&gt;0 -->
<g id="edge2" class="edge">
<title>4&#45;&gt;0</title>
<path fill="none" stroke="grey" stroke-width="2" d="M112.95,-503.62C107.11,-476.97 97,-424.31 97,-379 97,-379 97,-379 97,-161 97,-110 142.27,-66.88 175.76,-41.97"/>
<polygon fill="grey" stroke="grey" stroke-width="2" points="177.92,-44.73 183.98,-36.04 173.83,-39.05 177.92,-44.73"/>
</g>
<!-- 4&#45;&gt;16 -->
<g id="edge30" class="edge">
<title>4&#45;&gt;16</title>
<path fill="none" stroke="grey" stroke-width="2" d="M132.08,-503.7C139.39,-495.3 148.31,-485.07 156.34,-475.86"/>
<polygon fill="grey" stroke="grey" stroke-width="2" points="159.16,-477.94 163.09,-468.1 153.89,-473.34 159.16,-477.94"/>
</g>
<!-- 5 -->
<g id="node6" class="node">
<title>5</title>
<path fill="none" stroke="#afd856" stroke-width="2" d="M432.5,-540C432.5,-540 373.5,-540 373.5,-540 367.5,-540 361.5,-534 361.5,-528 361.5,-528 361.5,-516 361.5,-516 361.5,-510 367.5,-504 373.5,-504 373.5,-504 432.5,-504 432.5,-504 438.5,-504 444.5,-510 444.5,-516 444.5,-516 444.5,-528 444.5,-528 444.5,-534 438.5,-540 432.5,-540"/>
<text text-anchor="middle" x="403" y="-519.5" font-family="sans" font-size="10.00">filter_markers</text>
</g>
<!-- 5&#45;&gt;0 -->
<g id="edge3" class="edge">
<title>5&#45;&gt;0</title>
<path fill="none" stroke="grey" stroke-width="2" d="M403,-503.95C403,-477.29 403,-424.11 403,-379 403,-379 403,-379 403,-161 403,-114.73 384.5,-101.67 349,-72 319.76,-47.56 278.01,-33.64 248.1,-26.26"/>
<polygon fill="grey" stroke="grey" stroke-width="2" points="248.59,-22.78 238.05,-23.92 247,-29.6 248.59,-22.78"/>
</g>
<!-- 5&#45;&gt;16 -->
<g id="edge31" class="edge">
<title>5&#45;&gt;16</title>
<path fill="none" stroke="grey" stroke-width="2" d="M361.47,-508.08C326.47,-497.19 275.98,-481.48 236.82,-469.3"/>
<polygon fill="grey" stroke="grey" stroke-width="2" points="237.72,-465.91 227.13,-466.28 235.64,-472.6 237.72,-465.91"/>
</g>
<!-- 6 -->
<g id="node7" class="node">
<title>6</title>
<path fill="none" stroke="#56d873" stroke-width="2" d="M526.5,-612C526.5,-612 443.5,-612 443.5,-612 437.5,-612 431.5,-606 431.5,-600 431.5,-600 431.5,-588 431.5,-588 431.5,-582 437.5,-576 443.5,-576 443.5,-576 526.5,-576 526.5,-576 532.5,-576 538.5,-582 538.5,-588 538.5,-588 538.5,-600 538.5,-600 538.5,-606 532.5,-612 526.5,-612"/>
<text text-anchor="middle" x="485" y="-591.5" font-family="sans" font-size="10.00">hifi_variants_merge</text>
</g>
<!-- 6&#45;&gt;5 -->
<g id="edge13" class="edge">
<title>6&#45;&gt;5</title>
<path fill="none" stroke="grey" stroke-width="2" d="M464.73,-575.7C454.5,-566.97 441.94,-556.24 430.82,-546.75"/>
<polygon fill="grey" stroke="grey" stroke-width="2" points="432.91,-543.94 423.04,-540.1 428.37,-549.26 432.91,-543.94"/>
</g>
<!-- 15 -->
<g id="node16" class="node">
<title>15</title>
<path fill="none" stroke="#56d8a9" stroke-width="2" d="M526.5,-468C526.5,-468 443.5,-468 443.5,-468 437.5,-468 431.5,-462 431.5,-456 431.5,-456 431.5,-444 431.5,-444 431.5,-438 437.5,-432 443.5,-432 443.5,-432 526.5,-432 526.5,-432 532.5,-432 538.5,-438 538.5,-444 538.5,-444 538.5,-456 538.5,-456 538.5,-462 532.5,-468 526.5,-468"/>
<text text-anchor="middle" x="485" y="-447.5" font-family="sans" font-size="10.00">marker_diagnostics</text>
</g>
<!-- 6&#45;&gt;15 -->
<g id="edge28" class="edge">
<title>6&#45;&gt;15</title>
<path fill="none" stroke="grey" stroke-width="2" d="M485,-575.87C485,-551.67 485,-507.21 485,-478.39"/>
<polygon fill="grey" stroke="grey" stroke-width="2" points="488.5,-478.19 485,-468.19 481.5,-478.19 488.5,-478.19"/>
</g>
<!-- 7 -->
<g id="node8" class="node">
<title>7</title>
<path fill="none" stroke="#56d892" stroke-width="2" d="M949.5,-684C949.5,-684 846.5,-684 846.5,-684 840.5,-684 834.5,-678 834.5,-672 834.5,-672 834.5,-660 834.5,-660 834.5,-654 840.5,-648 846.5,-648 846.5,-648 949.5,-648 949.5,-648 955.5,-648 961.5,-654 961.5,-660 961.5,-660 961.5,-672 961.5,-672 961.5,-678 955.5,-684 949.5,-684"/>
<text text-anchor="middle" x="898" y="-669" font-family="sans" font-size="10.00">hifi_variants_per_chrom</text>
<text text-anchor="middle" x="898" y="-658" font-family="sans" font-size="10.00">chrom: scaffold_1</text>
</g>
<!-- 7&#45;&gt;6 -->
<g id="edge14" class="edge">
<title>7&#45;&gt;6</title>
<path fill="none" stroke="grey" stroke-width="2" d="M834.45,-649.71C831.6,-649.12 828.77,-648.54 826,-648 729.94,-629.22 617.62,-612.83 548.91,-603.42"/>
<polygon fill="grey" stroke="grey" stroke-width="2" points="549.06,-599.91 538.68,-602.03 548.11,-606.85 549.06,-599.91"/>
</g>
<!-- 8 -->
<g id="node9" class="node">
<title>8</title>
<path fill="none" stroke="#59d856" stroke-width="2" d="M655,-756C655,-756 561,-756 561,-756 555,-756 549,-750 549,-744 549,-744 549,-732 549,-732 549,-726 555,-720 561,-720 561,-720 655,-720 655,-720 661,-720 667,-726 667,-732 667,-732 667,-744 667,-744 667,-750 661,-756 655,-756"/>
<text text-anchor="middle" x="608" y="-741" font-family="sans" font-size="10.00">hifi_align</text>
<text text-anchor="middle" x="608" y="-730" font-family="sans" font-size="10.00">sample: 6303_B_hap1</text>
</g>
<!-- 8&#45;&gt;7 -->
<g id="edge21" class="edge">
<title>8&#45;&gt;7</title>
<path fill="none" stroke="grey" stroke-width="2" d="M667.04,-722.75C712.51,-711.77 775.64,-696.54 824.4,-684.76"/>
<polygon fill="grey" stroke="grey" stroke-width="2" points="825.37,-688.13 834.27,-682.38 823.73,-681.33 825.37,-688.13"/>
</g>
<!-- 9 -->
<g id="node10" class="node">
<title>9</title>
<path fill="none" stroke="#56d892" stroke-width="2" d="M1094.5,-684C1094.5,-684 991.5,-684 991.5,-684 985.5,-684 979.5,-678 979.5,-672 979.5,-672 979.5,-660 979.5,-660 979.5,-654 985.5,-648 991.5,-648 991.5,-648 1094.5,-648 1094.5,-648 1100.5,-648 1106.5,-654 1106.5,-660 1106.5,-660 1106.5,-672 1106.5,-672 1106.5,-678 1100.5,-684 1094.5,-684"/>
<text text-anchor="middle" x="1043" y="-669" font-family="sans" font-size="10.00">hifi_variants_per_chrom</text>
<text text-anchor="middle" x="1043" y="-658" font-family="sans" font-size="10.00">chrom: scaffold_3</text>
</g>
<!-- 8&#45;&gt;9 -->
<g id="edge22" class="edge">
<title>8&#45;&gt;9</title>
<path fill="none" stroke="grey" stroke-width="2" d="M667.05,-729.98C736.99,-721.31 857.19,-705.28 969.33,-684.24"/>
<polygon fill="grey" stroke="grey" stroke-width="2" points="970.29,-687.62 979.46,-682.32 968.98,-680.74 970.29,-687.62"/>
</g>
<!-- 10 -->
<g id="node11" class="node">
<title>10</title>
<path fill="none" stroke="#56d892" stroke-width="2" d="M224.5,-684C224.5,-684 121.5,-684 121.5,-684 115.5,-684 109.5,-678 109.5,-672 109.5,-672 109.5,-660 109.5,-660 109.5,-654 115.5,-648 121.5,-648 121.5,-648 224.5,-648 224.5,-648 230.5,-648 236.5,-654 236.5,-660 236.5,-660 236.5,-672 236.5,-672 236.5,-678 230.5,-684 224.5,-684"/>
<text text-anchor="middle" x="173" y="-669" font-family="sans" font-size="10.00">hifi_variants_per_chrom</text>
<text text-anchor="middle" x="173" y="-658" font-family="sans" font-size="10.00">chrom: scaffold_5</text>
</g>
<!-- 8&#45;&gt;10 -->
<g id="edge23" class="edge">
<title>8&#45;&gt;10</title>
<path fill="none" stroke="grey" stroke-width="2" d="M548.81,-729.87C478.95,-721.12 359.12,-705.03 246.47,-684"/>
<polygon fill="grey" stroke="grey" stroke-width="2" points="247.11,-680.56 236.63,-682.15 245.81,-687.44 247.11,-680.56"/>
</g>
<!-- 11 -->
<g id="node12" class="node">
<title>11</title>
<path fill="none" stroke="#56d892" stroke-width="2" d="M369.5,-684C369.5,-684 266.5,-684 266.5,-684 260.5,-684 254.5,-678 254.5,-672 254.5,-672 254.5,-660 254.5,-660 254.5,-654 260.5,-648 266.5,-648 266.5,-648 369.5,-648 369.5,-648 375.5,-648 381.5,-654 381.5,-660 381.5,-660 381.5,-672 381.5,-672 381.5,-678 375.5,-684 369.5,-684"/>
<text text-anchor="middle" x="318" y="-669" font-family="sans" font-size="10.00">hifi_variants_per_chrom</text>
<text text-anchor="middle" x="318" y="-658" font-family="sans" font-size="10.00">chrom: scaffold_7</text>
</g>
<!-- 8&#45;&gt;11 -->
<g id="edge24" class="edge">
<title>8&#45;&gt;11</title>
<path fill="none" stroke="grey" stroke-width="2" d="M548.96,-722.75C503.49,-711.77 440.36,-696.54 391.6,-684.76"/>
<polygon fill="grey" stroke="grey" stroke-width="2" points="392.27,-681.33 381.73,-682.38 390.63,-688.13 392.27,-681.33"/>
</g>
<!-- 12 -->
<g id="node13" class="node">
<title>12</title>
<path fill="none" stroke="#56d892" stroke-width="2" d="M514.5,-684C514.5,-684 411.5,-684 411.5,-684 405.5,-684 399.5,-678 399.5,-672 399.5,-672 399.5,-660 399.5,-660 399.5,-654 405.5,-648 411.5,-648 411.5,-648 514.5,-648 514.5,-648 520.5,-648 526.5,-654 526.5,-660 526.5,-660 526.5,-672 526.5,-672 526.5,-678 520.5,-684 514.5,-684"/>
<text text-anchor="middle" x="463" y="-669" font-family="sans" font-size="10.00">hifi_variants_per_chrom</text>
<text text-anchor="middle" x="463" y="-658" font-family="sans" font-size="10.00">chrom: scaffold_9</text>
</g>
<!-- 8&#45;&gt;12 -->
<g id="edge25" class="edge">
<title>8&#45;&gt;12</title>
<path fill="none" stroke="grey" stroke-width="2" d="M572.53,-719.88C552.88,-710.39 528.28,-698.51 507.37,-688.42"/>
<polygon fill="grey" stroke="grey" stroke-width="2" points="508.88,-685.26 498.36,-684.07 505.84,-691.57 508.88,-685.26"/>
</g>
<!-- 13 -->
<g id="node14" class="node">
<title>13</title>
<path fill="none" stroke="#56d892" stroke-width="2" d="M659.5,-684C659.5,-684 556.5,-684 556.5,-684 550.5,-684 544.5,-678 544.5,-672 544.5,-672 544.5,-660 544.5,-660 544.5,-654 550.5,-648 556.5,-648 556.5,-648 659.5,-648 659.5,-648 665.5,-648 671.5,-654 671.5,-660 671.5,-660 671.5,-672 671.5,-672 671.5,-678 665.5,-684 659.5,-684"/>
<text text-anchor="middle" x="608" y="-669" font-family="sans" font-size="10.00">hifi_variants_per_chrom</text>
<text text-anchor="middle" x="608" y="-658" font-family="sans" font-size="10.00">chrom: scaffold_11</text>
</g>
<!-- 8&#45;&gt;13 -->
<g id="edge26" class="edge">
<title>8&#45;&gt;13</title>
<path fill="none" stroke="grey" stroke-width="2" d="M608,-719.7C608,-711.98 608,-702.71 608,-694.11"/>
<polygon fill="grey" stroke="grey" stroke-width="2" points="611.5,-694.1 608,-684.1 604.5,-694.1 611.5,-694.1"/>
</g>
<!-- 14 -->
<g id="node15" class="node">
<title>14</title>
<path fill="none" stroke="#56d892" stroke-width="2" d="M804.5,-684C804.5,-684 701.5,-684 701.5,-684 695.5,-684 689.5,-678 689.5,-672 689.5,-672 689.5,-660 689.5,-660 689.5,-654 695.5,-648 701.5,-648 701.5,-648 804.5,-648 804.5,-648 810.5,-648 816.5,-654 816.5,-660 816.5,-660 816.5,-672 816.5,-672 816.5,-678 810.5,-684 804.5,-684"/>
<text text-anchor="middle" x="753" y="-669" font-family="sans" font-size="10.00">hifi_variants_per_chrom</text>
<text text-anchor="middle" x="753" y="-658" font-family="sans" font-size="10.00">chrom: scaffold_13</text>
</g>
<!-- 8&#45;&gt;14 -->
<g id="edge27" class="edge">
<title>8&#45;&gt;14</title>
<path fill="none" stroke="grey" stroke-width="2" d="M643.47,-719.88C663.12,-710.39 687.72,-698.51 708.63,-688.42"/>
<polygon fill="grey" stroke="grey" stroke-width="2" points="710.16,-691.57 717.64,-684.07 707.12,-685.26 710.16,-691.57"/>
</g>
<!-- 9&#45;&gt;6 -->
<g id="edge15" class="edge">
<title>9&#45;&gt;6</title>
<path fill="none" stroke="grey" stroke-width="2" d="M979.48,-649.56C976.62,-649 973.78,-648.48 971,-648 820.63,-622.15 641.81,-606.47 548.63,-599.42"/>
<polygon fill="grey" stroke="grey" stroke-width="2" points="548.75,-595.92 538.52,-598.67 548.23,-602.9 548.75,-595.92"/>
</g>
<!-- 10&#45;&gt;6 -->
<g id="edge16" class="edge">
<title>10&#45;&gt;6</title>
<path fill="none" stroke="grey" stroke-width="2" d="M236.69,-650.13C239.84,-649.4 242.95,-648.69 246,-648 305.39,-634.5 373.18,-619.51 421.36,-608.92"/>
<polygon fill="grey" stroke="grey" stroke-width="2" points="422.32,-612.29 431.33,-606.73 420.82,-605.46 422.32,-612.29"/>
</g>
<!-- 11&#45;&gt;6 -->
<g id="edge17" class="edge">
<title>11&#45;&gt;6</title>
<path fill="none" stroke="grey" stroke-width="2" d="M358.85,-647.88C381.78,-638.26 410.58,-626.19 434.87,-616.01"/>
<polygon fill="grey" stroke="grey" stroke-width="2" points="436.41,-619.16 444.28,-612.07 433.7,-612.71 436.41,-619.16"/>
</g>
<!-- 12&#45;&gt;6 -->
<g id="edge18" class="edge">
<title>12&#45;&gt;6</title>
<path fill="none" stroke="grey" stroke-width="2" d="M468.44,-647.7C470.89,-639.9 473.84,-630.51 476.57,-621.83"/>
<polygon fill="grey" stroke="grey" stroke-width="2" points="479.96,-622.69 479.62,-612.1 473.29,-620.59 479.96,-622.69"/>
</g>
<!-- 13&#45;&gt;6 -->
<g id="edge19" class="edge">
<title>13&#45;&gt;6</title>
<path fill="none" stroke="grey" stroke-width="2" d="M577.91,-647.88C561.68,-638.64 541.46,-627.13 524.03,-617.21"/>
<polygon fill="grey" stroke="grey" stroke-width="2" points="525.63,-614.09 515.2,-612.19 522.16,-620.18 525.63,-614.09"/>
</g>
<!-- 14&#45;&gt;6 -->
<g id="edge20" class="edge">
<title>14&#45;&gt;6</title>
<path fill="none" stroke="grey" stroke-width="2" d="M689.49,-648.41C646.84,-637.27 590.87,-622.65 548.27,-611.53"/>
<polygon fill="grey" stroke="grey" stroke-width="2" points="549.13,-608.13 538.57,-608.99 547.36,-614.91 549.13,-608.13"/>
</g>
<!-- 15&#45;&gt;0 -->
<g id="edge4" class="edge">
<title>15&#45;&gt;0</title>
<path fill="none" stroke="grey" stroke-width="2" d="M480.55,-431.65C474.12,-405.02 463,-352.4 463,-307 463,-307 463,-307 463,-161 463,-116.47 451.82,-99.75 417,-72 367.8,-32.8 292.87,-22.3 248.23,-19.66"/>
<polygon fill="grey" stroke="grey" stroke-width="2" points="248.27,-16.16 238.11,-19.17 247.93,-23.15 248.27,-16.16"/>
</g>
<!-- 16&#45;&gt;0 -->
<g id="edge5" class="edge">
<title>16&#45;&gt;0</title>
<path fill="none" stroke="grey" stroke-width="2" d="M169.09,-431.58C156.5,-405.3 135,-353.62 135,-307 135,-307 135,-307 135,-161 135,-115.64 165.52,-70.75 187.88,-43.95"/>
<polygon fill="grey" stroke="grey" stroke-width="2" points="190.64,-46.09 194.51,-36.23 185.34,-41.53 190.64,-46.09"/>
</g>
<!-- 19 -->
<g id="node20" class="node">
<title>19</title>
<path fill="none" stroke="#d8ac56" stroke-width="2" d="M297.5,-396C297.5,-396 218.5,-396 218.5,-396 212.5,-396 206.5,-390 206.5,-384 206.5,-384 206.5,-372 206.5,-372 206.5,-366 212.5,-360 218.5,-360 218.5,-360 297.5,-360 297.5,-360 303.5,-360 309.5,-366 309.5,-372 309.5,-372 309.5,-384 309.5,-384 309.5,-390 303.5,-396 297.5,-396"/>
<text text-anchor="middle" x="258" y="-375.5" font-family="sans" font-size="10.00">cellsnp_to_per_cell</text>
</g>
<!-- 16&#45;&gt;19 -->
<g id="edge34" class="edge">
<title>16&#45;&gt;19</title>
<path fill="none" stroke="grey" stroke-width="2" d="M197.78,-431.7C207.75,-422.97 220.01,-412.24 230.86,-402.75"/>
<polygon fill="grey" stroke="grey" stroke-width="2" points="233.23,-405.32 238.45,-396.1 228.62,-400.06 233.23,-405.32"/>
</g>
<!-- 17 -->
<g id="node18" class="node">
<title>17</title>
<path fill="none" stroke="#56d8c9" stroke-width="2" d="M257,-252C257,-252 213,-252 213,-252 207,-252 201,-246 201,-240 201,-240 201,-228 201,-228 201,-222 207,-216 213,-216 213,-216 257,-216 257,-216 263,-216 269,-222 269,-228 269,-228 269,-240 269,-240 269,-246 263,-252 257,-252"/>
<text text-anchor="middle" x="235" y="-231.5" font-family="sans" font-size="10.00">select_cells</text>
</g>
<!-- 17&#45;&gt;0 -->
<g id="edge6" class="edge">
<title>17&#45;&gt;0</title>
<path fill="none" stroke="grey" stroke-width="2" d="M233.08,-215.85C228.93,-178.83 219.1,-91.18 214.07,-46.39"/>
<polygon fill="grey" stroke="grey" stroke-width="2" points="217.53,-45.78 212.93,-36.23 210.57,-46.56 217.53,-45.78"/>
</g>
<!-- 20 -->
<g id="node21" class="node">
<title>20</title>
<path fill="none" stroke="#c6d856" stroke-width="2" d="M363,-180C363,-180 327,-180 327,-180 321,-180 315,-174 315,-168 315,-168 315,-156 315,-156 315,-150 321,-144 327,-144 327,-144 363,-144 363,-144 369,-144 375,-150 375,-156 375,-156 375,-168 375,-168 375,-174 369,-180 363,-180"/>
<text text-anchor="middle" x="345" y="-159.5" font-family="sans" font-size="10.00">co_calling</text>
</g>
<!-- 17&#45;&gt;20 -->
<g id="edge35" class="edge">
<title>17&#45;&gt;20</title>
<path fill="none" stroke="grey" stroke-width="2" d="M261.91,-215.88C276.16,-206.81 293.85,-195.55 309.24,-185.76"/>
<polygon fill="grey" stroke="grey" stroke-width="2" points="311.43,-188.51 317.99,-180.19 307.67,-182.61 311.43,-188.51"/>
</g>
<!-- 21 -->
<g id="node22" class="node">
<title>21</title>
<path fill="none" stroke="#d8cb56" stroke-width="2" d="M307,-108C307,-108 251,-108 251,-108 245,-108 239,-102 239,-96 239,-96 239,-84 239,-84 239,-78 245,-72 251,-72 251,-72 307,-72 307,-72 313,-72 319,-78 319,-84 319,-84 319,-96 319,-96 319,-102 313,-108 307,-108"/>
<text text-anchor="middle" x="279" y="-87.5" font-family="sans" font-size="10.00">co_aggregate</text>
</g>
<!-- 17&#45;&gt;21 -->
<g id="edge38" class="edge">
<title>17&#45;&gt;21</title>
<path fill="none" stroke="grey" stroke-width="2" d="M240.31,-215.87C247.84,-191.56 261.7,-146.82 270.63,-118.01"/>
<polygon fill="grey" stroke="grey" stroke-width="2" points="274.06,-118.78 273.67,-108.19 267.37,-116.71 274.06,-118.78"/>
</g>
<!-- 18 -->
<g id="node19" class="node">
<title>18</title>
<path fill="none" stroke="#5673d8" stroke-width="2" d="M256.5,-324C256.5,-324 179.5,-324 179.5,-324 173.5,-324 167.5,-318 167.5,-312 167.5,-312 167.5,-300 167.5,-300 167.5,-294 173.5,-288 179.5,-288 179.5,-288 256.5,-288 256.5,-288 262.5,-288 268.5,-294 268.5,-300 268.5,-300 268.5,-312 268.5,-312 268.5,-318 262.5,-324 256.5,-324"/>
<text text-anchor="middle" x="218" y="-303.5" font-family="sans" font-size="10.00">switch_diagnostics</text>
</g>
<!-- 18&#45;&gt;0 -->
<g id="edge7" class="edge">
<title>18&#45;&gt;0</title>
<path fill="none" stroke="grey" stroke-width="2" d="M206.95,-287.61C201.26,-277.62 194.92,-264.58 192,-252 175.05,-178.95 192.46,-89.98 203.47,-46.11"/>
<polygon fill="grey" stroke="grey" stroke-width="2" points="206.91,-46.78 206.04,-36.22 200.14,-45.02 206.91,-46.78"/>
</g>
<!-- 18&#45;&gt;17 -->
<g id="edge32" class="edge">
<title>18&#45;&gt;17</title>
<path fill="none" stroke="grey" stroke-width="2" d="M222.2,-287.7C224.1,-279.9 226.38,-270.51 228.48,-261.83"/>
<polygon fill="grey" stroke="grey" stroke-width="2" points="231.89,-262.65 230.85,-252.1 225.08,-261 231.89,-262.65"/>
</g>
<!-- 19&#45;&gt;18 -->
<g id="edge33" class="edge">
<title>19&#45;&gt;18</title>
<path fill="none" stroke="grey" stroke-width="2" d="M248.11,-359.7C243.51,-351.64 237.94,-341.89 232.85,-332.98"/>
<polygon fill="grey" stroke="grey" stroke-width="2" points="235.77,-331.05 227.77,-324.1 229.7,-334.52 235.77,-331.05"/>
</g>
<!-- 19&#45;&gt;20 -->
<g id="edge36" class="edge">
<title>19&#45;&gt;20</title>
<path fill="none" stroke="grey" stroke-width="2" d="M280.41,-359.88C291.25,-350.44 303.5,-337.84 311,-324 334.24,-281.13 341.6,-223.84 343.93,-190.43"/>
<polygon fill="grey" stroke="grey" stroke-width="2" points="347.45,-190.26 344.54,-180.07 340.46,-189.85 347.45,-190.26"/>
</g>
<!-- 19&#45;&gt;21 -->
<g id="edge39" class="edge">
<title>19&#45;&gt;21</title>
<path fill="none" stroke="grey" stroke-width="2" d="M266.29,-359.78C270.71,-349.63 275.71,-336.38 278,-324 291.54,-250.66 286.1,-162.1 281.99,-118.29"/>
<polygon fill="grey" stroke="grey" stroke-width="2" points="285.45,-117.76 280.99,-108.15 278.49,-118.45 285.45,-117.76"/>
</g>
<!-- 20&#45;&gt;0 -->
<g id="edge8" class="edge">
<title>20&#45;&gt;0</title>
<path fill="none" stroke="grey" stroke-width="2" d="M346.16,-143.69C346.54,-124.22 344.25,-92.64 328,-72 308.39,-47.1 274.49,-33.51 248.21,-26.35"/>
<polygon fill="grey" stroke="grey" stroke-width="2" points="248.75,-22.88 238.2,-23.83 247.04,-29.66 248.75,-22.88"/>
</g>
<!-- 20&#45;&gt;21 -->
<g id="edge37" class="edge">
<title>20&#45;&gt;21</title>
<path fill="none" stroke="grey" stroke-width="2" d="M328.69,-143.7C320.69,-135.22 310.93,-124.86 302.18,-115.58"/>
<polygon fill="grey" stroke="grey" stroke-width="2" points="304.53,-112.98 295.13,-108.1 299.44,-117.78 304.53,-112.98"/>
</g>
<!-- 21&#45;&gt;0 -->
<g id="edge9" class="edge">
<title>21&#45;&gt;0</title>
<path fill="none" stroke="grey" stroke-width="2" d="M262.19,-71.7C253.87,-63.14 243.69,-52.66 234.61,-43.3"/>
<polygon fill="grey" stroke="grey" stroke-width="2" points="237.09,-40.84 227.62,-36.1 232.07,-45.72 237.09,-40.84"/>
</g>
</g>
</svg>
