<?xml version="1.0" encoding="UTF-8" standalone="no"?>
<!DOCTYPE svg PUBLIC "-//W3C//DTD SVG 1.1//EN"
 "http://www.w3.org/Graphics/SVG/1.1/DTD/svg11.dtd">
<!-- Generated by graphviz version 2.43.0 (0)
 -->
<!-- Title: snakemake_dag Pages: 1 -->
<svg width="1115pt" height="836pt"
 viewBox="0.00 0.00 1114.50 836.00" xmlns="http://www.w3.org/2000/svg" xmlns:xlink="http://www.w3.org/1999/xlink">
<g id="graph0" class="graph" transform="scale(1 1) rotate(0) translate(4 832)">
<title>snakemake_dag</title>
<polygon fill="white" stroke="transparent" points="-4,4 -4,-832 1110.5,-832 1110.5,4 -4,4"/>
<!-- 0 -->
<g id="node1" class="node">
<title>0</title>
<path fill="none" stroke="#d85656" stroke-width="2" d="M801.5,-36C801.5,-36 771.5,-36 771.5,-36 765.5,-36 759.5,-30 759.5,-24 759.5,-24 759.5,-12 759.5,-12 759.5,-6 765.5,0 771.5,0 771.5,0 801.5,0 801.5,0 807.5,0 813.5,-6 813.5,-12 813.5,-12 813.5,-24 813.5,-24 813.5,-30 807.5,-36 801.5,-36"/>
<text text-anchor="middle" x="786.5" y="-15.5" font-family="sans" font-size="10.00">all</text>
</g>
<!-- 1 -->
<g id="node2" class="node">
<title>1</title>
<path fill="none" stroke="#56a9d8" stroke-width="2" d="M1058.5,-684C1058.5,-684 1002.5,-684 1002.5,-684 996.5,-684 990.5,-678 990.5,-672 990.5,-672 990.5,-660 990.5,-660 990.5,-654 996.5,-648 1002.5,-648 1002.5,-648 1058.5,-648 1058.5,-648 1064.5,-648 1070.5,-654 1070.5,-660 1070.5,-660 1070.5,-672 1070.5,-672 1070.5,-678 1064.5,-684 1058.5,-684"/>
<text text-anchor="middle" x="1030.5" y="-663.5" font-family="sans" font-size="10.00">starsolo_align</text>
</g>
<!-- 1&#45;&gt;0 -->
<g id="edge1" class="edge">
<title>1&#45;&gt;0</title>
<path fill="none" stroke="grey" stroke-width="2" d="M1039.88,-647.75C1045.09,-637.59 1051.34,-624.34 1055.5,-612 1068.44,-573.68 1074.5,-563.45 1074.5,-523 1074.5,-523 1074.5,-523 1074.5,-161 1074.5,-116.47 1063.82,-99.11 1028.5,-72 996.8,-47.67 883.59,-30.73 823.92,-23.28"/>
<polygon fill="grey" stroke="grey" stroke-width="2" points="824.13,-19.78 813.78,-22.04 823.28,-26.73 824.13,-19.78"/>
</g>
<!-- 4 -->
<g id="node5" class="node">
<title>4</title>
<path fill="none" stroke="#d87556" stroke-width="2" d="M1034,-612C1034,-612 993,-612 993,-612 987,-612 981,-606 981,-600 981,-600 981,-588 981,-588 981,-582 987,-576 993,-576 993,-576 1034,-576 1034,-576 1040,-576 1046,-582 1046,-588 1046,-588 1046,-600 1046,-600 1046,-606 1040,-612 1034,-612"/>
<text text-anchor="middle" x="1013.5" y="-591.5" font-family="sans" font-size="10.00">cell_calling</text>
</g>
<!-- 1&#45;&gt;4 -->
<g id="edge13" class="edge">
<title>1&#45;&gt;4</title>
<path fill="none" stroke="grey" stroke-width="2" d="M1026.3,-647.7C1024.4,-639.9 1022.12,-630.51 1020.02,-621.83"/>
<polygon fill="grey" stroke="grey" stroke-width="2" points="1023.42,-621 1017.65,-612.1 1016.61,-622.65 1023.42,-621"/>
</g>
<!-- 16 -->
<g id="node17" class="node">
<title>16</title>
<path fill="none" stroke="#d88d56" stroke-width="2" d="M989.5,-540C989.5,-540 915.5,-540 915.5,-540 909.5,-540 903.5,-534 903.5,-528 903.5,-528 903.5,-516 903.5,-516 903.5,-510 909.5,-504 915.5,-504 915.5,-504 989.5,-504 989.5,-504 995.5,-504 1001.5,-510 1001.5,-516 1001.5,-516 1001.5,-528 1001.5,-528 1001.5,-534 995.5,-540 989.5,-540"/>
<text text-anchor="middle" x="952.5" y="-519.5" font-family="sans" font-size="10.00">cell_snp_counting</text>
</g>
<!-- 1&#45;&gt;16 -->
<g id="edge30" class="edge">
<title>1&#45;&gt;16</title>
<path fill="none" stroke="grey" stroke-width="2" d="M1004.95,-647.89C993.03,-638.63 979.71,-626.18 971.5,-612 960.58,-593.14 955.92,-568.77 953.93,-550.3"/>
<polygon fill="grey" stroke="grey" stroke-width="2" points="957.41,-549.85 953.05,-540.19 950.43,-550.46 957.41,-549.85"/>
</g>
<!-- 2 -->
<g id="node3" class="node">
<title>2</title>
<path fill="none" stroke="#56c1d8" stroke-width="2" d="M1067.5,-756C1067.5,-756 1027.5,-756 1027.5,-756 1021.5,-756 1015.5,-750 1015.5,-744 1015.5,-744 1015.5,-732 1015.5,-732 1015.5,-726 1021.5,-720 1027.5,-720 1027.5,-720 1067.5,-720 1067.5,-720 1073.5,-720 1079.5,-726 1079.5,-732 1079.5,-732 1079.5,-744 1079.5,-744 1079.5,-750 1073.5,-756 1067.5,-756"/>
<text text-anchor="middle" x="1047.5" y="-735.5" font-family="sans" font-size="10.00">star_index</text>
</g>
<!-- 2&#45;&gt;1 -->
<g id="edge11" class="edge">
<title>2&#45;&gt;1</title>
<path fill="none" stroke="grey" stroke-width="2" d="M1043.3,-719.7C1041.4,-711.9 1039.12,-702.51 1037.02,-693.83"/>
<polygon fill="grey" stroke="grey" stroke-width="2" points="1040.42,-693 1034.65,-684.1 1033.61,-694.65 1040.42,-693"/>
</g>
<!-- 3 -->
<g id="node4" class="node">
<title>3</title>
<path fill="none" stroke="#80d856" stroke-width="2" d="M1094.5,-828C1094.5,-828 1000.5,-828 1000.5,-828 994.5,-828 988.5,-822 988.5,-816 988.5,-816 988.5,-804 988.5,-804 988.5,-798 994.5,-792 1000.5,-792 1000.5,-792 1094.5,-792 1094.5,-792 1100.5,-792 1106.5,-798 1106.5,-804 1106.5,-804 1106.5,-816 1106.5,-816 1106.5,-822 1100.5,-828 1094.5,-828"/>
<text text-anchor="middle" x="1047.5" y="-813" font-family="sans" font-size="10.00">gff_to_gtf</text>
<text text-anchor="middle" x="1047.5" y="-802" font-family="sans" font-size="10.00">sample: 6303_B_hap1</text>
</g>
<!-- 3&#45;&gt;2 -->
<g id="edge12" class="edge">
<title>3&#45;&gt;2</title>
<path fill="none" stroke="grey" stroke-width="2" d="M1047.5,-791.7C1047.5,-783.98 1047.5,-774.71 1047.5,-766.11"/>
<polygon fill="grey" stroke="grey" stroke-width="2" points="1051,-766.1 1047.5,-756.1 1044,-766.1 1051,-766.1"/>
</g>
<!-- 4&#45;&gt;0 -->
<g id="edge2" class="edge">
<title>4&#45;&gt;0</title>
<path fill="none" stroke="grey" stroke-width="2" d="M1017.55,-575.62C1023.39,-548.97 1033.5,-496.31 1033.5,-451 1033.5,-451 1033.5,-451 1033.5,-161 1033.5,-118.81 1031.96,-100.11 1000.5,-72 951.15,-27.9 870.83,-19.19 823.89,-18.19"/>
<polygon fill="grey" stroke="grey" stroke-width="2" points="823.88,-14.69 813.84,-18.08 823.81,-21.69 823.88,-14.69"/>
</g>
<!-- 4&#45;&gt;16 -->
<g id="edge31" class="edge">
<title>4&#45;&gt;16</title>
<path fill="none" stroke="grey" stroke-width="2" d="M998.42,-575.7C991.11,-567.3 982.19,-557.07 974.16,-547.86"/>
<polygon fill="grey" stroke="grey" stroke-width="2" points="976.61,-545.34 967.41,-540.1 971.34,-549.94 976.61,-545.34"/>
</g>
<!-- 5 -->
<g id="node6" class="node">
<title>5</title>
<path fill="none" stroke="#b6d856" stroke-width="2" d="M644,-612C644,-612 585,-612 585,-612 579,-612 573,-606 573,-600 573,-600 573,-588 573,-588 573,-582 579,-576 585,-576 585,-576 644,-576 644,-576 650,-576 656,-582 656,-588 656,-588 656,-600 656,-600 656,-606 650,-612 644,-612"/>
<text text-anchor="middle" x="614.5" y="-591.5" font-family="sans" font-size="10.00">filter_markers</text>
</g>
<!-- 5&#45;&gt;0 -->
<g id="edge3" class="edge">
<title>5&#45;&gt;0</title>
<path fill="none" stroke="grey" stroke-width="2" d="M614.5,-575.95C614.5,-549.29 614.5,-496.11 614.5,-451 614.5,-451 614.5,-451 614.5,-161 614.5,-91.48 699.09,-49.63 749.63,-30.83"/>
<polygon fill="grey" stroke="grey" stroke-width="2" points="751.02,-34.05 759.25,-27.38 748.65,-27.46 751.02,-34.05"/>
</g>
<!-- 5&#45;&gt;16 -->
<g id="edge32" class="edge">
<title>5&#45;&gt;16</title>
<path fill="none" stroke="grey" stroke-width="2" d="M656.28,-584.35C715.84,-572.01 825.43,-549.32 893.32,-535.26"/>
<polygon fill="grey" stroke="grey" stroke-width="2" points="894.35,-538.62 903.43,-533.16 892.93,-531.76 894.35,-538.62"/>
</g>
<!-- 6 -->
<g id="node7" class="node">
<title>6</title>
<path fill="none" stroke="#56d863" stroke-width="2" d="M574,-684C574,-684 491,-684 491,-684 485,-684 479,-678 479,-672 479,-672 479,-660 479,-660 479,-654 485,-648 491,-648 491,-648 574,-648 574,-648 580,-648 586,-654 586,-660 586,-660 586,-672 586,-672 586,-678 580,-684 574,-684"/>
<text text-anchor="middle" x="532.5" y="-663.5" font-family="sans" font-size="10.00">hifi_variants_merge</text>
</g>
<!-- 6&#45;&gt;5 -->
<g id="edge14" class="edge">
<title>6&#45;&gt;5</title>
<path fill="none" stroke="grey" stroke-width="2" d="M552.77,-647.7C563,-638.97 575.56,-628.24 586.68,-618.75"/>
<polygon fill="grey" stroke="grey" stroke-width="2" points="589.13,-621.26 594.46,-612.1 584.59,-615.94 589.13,-621.26"/>
</g>
<!-- 15 -->
<g id="node16" class="node">
<title>15</title>
<path fill="none" stroke="#56d89a" stroke-width="2" d="M574,-540C574,-540 491,-540 491,-540 485,-540 479,-534 479,-528 479,-528 479,-516 479,-516 479,-510 485,-504 491,-504 491,-504 574,-504 574,-504 580,-504 586,-510 586,-516 586,-516 586,-528 586,-528 586,-534 580,-540 574,-540"/>
<text text-anchor="middle" x="532.5" y="-519.5" font-family="sans" font-size="10.00">marker_diagnostics</text>
</g>
<!-- 6&#45;&gt;15 -->
<g id="edge29" class="edge">
<title>6&#45;&gt;15</title>
<path fill="none" stroke="grey" stroke-width="2" d="M532.5,-647.87C532.5,-623.67 532.5,-579.21 532.5,-550.39"/>
<polygon fill="grey" stroke="grey" stroke-width="2" points="536,-550.19 532.5,-540.19 529,-550.19 536,-550.19"/>
</g>
<!-- 7 -->
<g id="node8" class="node">
<title>7</title>
<path fill="none" stroke="#56d882" stroke-width="2" d="M260,-756C260,-756 157,-756 157,-756 151,-756 145,-750 145,-744 145,-744 145,-732 145,-732 145,-726 151,-720 157,-720 157,-720 260,-720 260,-720 266,-720 272,-726 272,-732 272,-732 272,-744 272,-744 272,-750 266,-756 260,-756"/>
<text text-anchor="middle" x="208.5" y="-741" font-family="sans" font-size="10.00">hifi_variants_per_chrom</text>
<text text-anchor="middle" x="208.5" y="-730" font-family="sans" font-size="10.00">chrom: scaffold_1</text>
</g>
<!-- 7&#45;&gt;6 -->
<g id="edge15" class="edge">
<title>7&#45;&gt;6</title>
<path fill="none" stroke="grey" stroke-width="2" d="M272.08,-721.9C274.93,-721.25 277.74,-720.62 280.5,-720 344.52,-705.71 417.93,-690.39 468.94,-679.92"/>
<polygon fill="grey" stroke="grey" stroke-width="2" points="469.74,-683.33 478.83,-677.89 468.33,-676.47 469.74,-683.33"/>
</g>
<!-- 8 -->
<g id="node9" class="node">
<title>8</title>
<path fill="none" stroke="#61d856" stroke-width="2" d="M545.5,-828C545.5,-828 451.5,-828 451.5,-828 445.5,-828 439.5,-822 439.5,-816 439.5,-816 439.5,-804 439.5,-804 439.5,-798 445.5,-792 451.5,-792 451.5,-792 545.5,-792 545.5,-792 551.5,-792 557.5,-798 557.5,-804 557.5,-804 557.5,-816 557.5,-816 557.5,-822 551.5,-828 545.5,-828"/>
<text text-anchor="middle" x="498.5" y="-813" font-family="sans" font-size="10.00">hifi_align</text>
<text text-anchor="middle" x="498.5" y="-802" font-family="sans" font-size="10.00">sample: 6303_B_hap1</text>
</g>
<!-- 8&#45;&gt;7 -->
<g id="edge22" class="edge">
<title>8&#45;&gt;7</title>
<path fill="none" stroke="grey" stroke-width="2" d="M439.46,-794.75C393.99,-783.77 330.86,-768.54 282.1,-756.76"/>
<polygon fill="grey" stroke="grey" stroke-width="2" points="282.77,-753.33 272.23,-754.38 281.13,-760.13 282.77,-753.33"/>
</g>
<!-- 9 -->
<g id="node10" class="node">
<title>9</title>
<path fill="none" stroke="#56d882" stroke-width="2" d="M405,-756C405,-756 302,-756 302,-756 296,-756 290,-750 290,-744 290,-744 290,-732 290,-732 290,-726 296,-720 302,-720 302,-720 405,-720 405,-720 411,-720 417,-726 417,-732 417,-732 417,-744 417,-744 417,-750 411,-756 405,-756"/>
<text text-anchor="middle" x="353.5" y="-741" font-family="sans" font-size="10.00">hifi_variants_per_chrom</text>
<text text-anchor="middle" x="353.5" y="-730" font-family="sans" font-size="10.00">chrom: scaffold_3</text>
</g>
<!-- 8&#45;&gt;9 -->
<g id="edge23" class="edge">
<title>8&#45;&gt;9</title>
<path fill="none" stroke="grey" stroke-width="2" d="M463.03,-791.88C443.38,-782.39 418.78,-770.51 397.87,-760.42"/>
<polygon fill="grey" stroke="grey" stroke-width="2" points="399.38,-757.26 388.86,-756.07 396.34,-763.57 399.38,-757.26"/>
</g>
<!-- 10 -->
<g id="node11" class="node">
<title>10</title>
<path fill="none" stroke="#56d882" stroke-width="2" d="M550,-756C550,-756 447,-756 447,-756 441,-756 435,-750 435,-744 435,-744 435,-732 435,-732 435,-726 441,-720 447,-720 447,-720 550,-720 550,-720 556,-720 562,-726 562,-732 562,-732 562,-744 562,-744 562,-750 556,-756 550,-756"/>
<text text-anchor="middle" x="498.5" y="-741" font-family="sans" font-size="10.00">hifi_variants_per_chrom</text>
<text text-anchor="middle" x="498.5" y="-730" font-family="sans" font-size="10.00">chrom: scaffold_5</text>
</g>
<!-- 8&#45;&gt;10 -->
<g id="edge24" class="edge">
<title>8&#45;&gt;10</title>
<path fill="none" stroke="grey" stroke-width="2" d="M498.5,-791.7C498.5,-783.98 498.5,-774.71 498.5,-766.11"/>
<polygon fill="grey" stroke="grey" stroke-width="2" points="502,-766.1 498.5,-756.1 495,-766.1 502,-766.1"/>
</g>
<!-- 11 -->
<g id="node12" class="node">
<title>11</title>
<path fill="none" stroke="#56d882" stroke-width="2" d="M695,-756C695,-756 592,-756 592,-756 586,-756 580,-750 580,-744 580,-744 580,-732 580,-732 580,-726 586,-720 592,-720 592,-720 695,-720 695,-720 701,-720 707,-726 707,-732 707,-732 707,-744 707,-744 707,-750 701,-756 695,-756"/>
<text text-anchor="middle" x="643.5" y="-741" font-family="sans" font-size="10.00">hifi_variants_per_chrom</text>
<text text-anchor="middle" x="643.5" y="-730" font-family="sans" font-size="10.00">chrom: scaffold_7</text>
</g>
<!-- 8&#45;&gt;11 -->
<g id="edge25" class="edge">
<title>8&#45;&gt;11</title>
<path fill="none" stroke="grey" stroke-width="2" d="M533.97,-791.88C553.62,-782.39 578.22,-770.51 599.13,-760.42"/>
<polygon fill="grey" stroke="grey" stroke-width="2" points="600.66,-763.57 608.14,-756.07 597.62,-757.26 600.66,-763.57"/>
</g>
<!-- 12 -->
<g id="node13" class="node">
<title>12</title>
<path fill="none" stroke="#56d882" stroke-width="2" d="M840,-756C840,-756 737,-756 737,-756 731,-756 725,-750 725,-744 725,-744 725,-732 725,-732 725,-726 731,-720 737,-720 737,-720 840,-720 840,-720 846,-720 852,-726 852,-732 852,-732 852,-744 852,-744 852,-750 846,-756 840,-756"/>
<text text-anchor="middle" x="788.5" y="-741" font-family="sans" font-size="10.00">hifi_variants_per_chrom</text>
<text text-anchor="middle" x="788.5" y="-730" font-family="sans" font-size="10.00">chrom: scaffold_9</text>
</g>
<!-- 8&#45;&gt;12 -->
<g id="edge26" class="edge">
<title>8&#45;&gt;12</title>
<path fill="none" stroke="grey" stroke-width="2" d="M557.54,-794.75C603.01,-783.77 666.14,-768.54 714.9,-756.76"/>
<polygon fill="grey" stroke="grey" stroke-width="2" points="715.87,-760.13 724.77,-754.38 714.23,-753.33 715.87,-760.13"/>
</g>
<!-- 13 -->
<g id="node14" class="node">
<title>13</title>
<path fill="none" stroke="#56d882" stroke-width="2" d="M985,-756C985,-756 882,-756 882,-756 876,-756 870,-750 870,-744 870,-744 870,-732 870,-732 870,-726 876,-720 882,-720 882,-720 985,-720 985,-720 991,-720 997,-726 997,-732 997,-732 997,-744 997,-744 997,-750 991,-756 985,-756"/>
<text text-anchor="middle" x="933.5" y="-741" font-family="sans" font-size="10.00">hifi_variants_per_chrom</text>
<text text-anchor="middle" x="933.5" y="-730" font-family="sans" font-size="10.00">chrom: scaffold_11</text>
</g>
<!-- 8&#45;&gt;13 -->
<g id="edge27" class="edge">
<title>8&#45;&gt;13</title>
<path fill="none" stroke="grey" stroke-width="2" d="M557.69,-801.87C627.55,-793.12 747.38,-777.03 860.03,-756"/>
<polygon fill="grey" stroke="grey" stroke-width="2" points="860.69,-759.44 869.87,-754.15 859.39,-752.56 860.69,-759.44"/>
</g>
<!-- 14 -->
<g id="node15" class="node">
<title>14</title>
<path fill="none" stroke="#56d882" stroke-width="2" d="M115,-756C115,-756 12,-756 12,-756 6,-756 0,-750 0,-744 0,-744 0,-732 0,-732 0,-726 6,-720 12,-720 12,-720 115,-720 115,-720 121,-720 127,-726 127,-732 127,-732 127,-744 127,-744 127,-750 121,-756 115,-756"/>
<text text-anchor="middle" x="63.5" y="-741" font-family="sans" font-size="10.00">hifi_variants_per_chrom</text>
<text text-anchor="middle" x="63.5" y="-730" font-family="sans" font-size="10.00">chrom: scaffold_13</text>
</g>
<!-- 8&#45;&gt;14 -->
<g id="edge28" class="edge">
<title>8&#45;&gt;14</title>
<path fill="none" stroke="grey" stroke-width="2" d="M439.45,-801.98C369.51,-793.31 249.31,-777.28 137.17,-756.24"/>
<polygon fill="grey" stroke="grey" stroke-width="2" points="137.52,-752.74 127.04,-754.32 136.21,-759.62 137.52,-752.74"/>
</g>
<!-- 9&#45;&gt;6 -->
<g id="edge16" class="edge">
<title>9&#45;&gt;6</title>
<path fill="none" stroke="grey" stroke-width="2" d="M397.29,-719.88C422.08,-710.18 453.28,-697.98 479.46,-687.74"/>
<polygon fill="grey" stroke="grey" stroke-width="2" points="480.82,-690.97 488.85,-684.07 478.27,-684.45 480.82,-690.97"/>
</g>
<!-- 10&#45;&gt;6 -->
<g id="edge17" class="edge">
<title>10&#45;&gt;6</title>
<path fill="none" stroke="grey" stroke-width="2" d="M506.9,-719.7C510.77,-711.73 515.45,-702.1 519.74,-693.26"/>
<polygon fill="grey" stroke="grey" stroke-width="2" points="522.97,-694.63 524.19,-684.1 516.67,-691.57 522.97,-694.63"/>
</g>
<!-- 11&#45;&gt;6 -->
<g id="edge18" class="edge">
<title>11&#45;&gt;6</title>
<path fill="none" stroke="grey" stroke-width="2" d="M616.35,-719.88C601.97,-710.81 584.12,-699.55 568.59,-689.76"/>
<polygon fill="grey" stroke="grey" stroke-width="2" points="570.08,-686.56 559.76,-684.19 566.35,-692.48 570.08,-686.56"/>
</g>
<!-- 12&#45;&gt;6 -->
<g id="edge19" class="edge">
<title>12&#45;&gt;6</title>
<path fill="none" stroke="grey" stroke-width="2" d="M726.2,-719.97C686.77,-709.18 635.93,-695.28 596.23,-684.43"/>
<polygon fill="grey" stroke="grey" stroke-width="2" points="596.96,-681 586.39,-681.73 595.11,-687.75 596.96,-681"/>
</g>
<!-- 13&#45;&gt;6 -->
<g id="edge20" class="edge">
<title>13&#45;&gt;6</title>
<path fill="none" stroke="grey" stroke-width="2" d="M869.85,-721.91C866.7,-721.24 863.56,-720.6 860.5,-720 769.17,-702.01 662.66,-685.64 596.39,-676"/>
<polygon fill="grey" stroke="grey" stroke-width="2" points="596.5,-672.48 586.1,-674.51 595.5,-679.41 596.5,-672.48"/>
</g>
<!-- 14&#45;&gt;6 -->
<g id="edge21" class="edge">
<title>14&#45;&gt;6</title>
<path fill="none" stroke="grey" stroke-width="2" d="M127.03,-721.64C129.89,-721.06 132.72,-720.51 135.5,-720 252.32,-698.47 390.01,-682.07 468.7,-673.55"/>
<polygon fill="grey" stroke="grey" stroke-width="2" points="469.37,-676.99 478.94,-672.44 468.62,-670.03 469.37,-676.99"/>
</g>
<!-- 15&#45;&gt;0 -->
<g id="edge4" class="edge">
<title>15&#45;&gt;0</title>
<path fill="none" stroke="grey" stroke-width="2" d="M536.95,-503.65C543.38,-477.02 554.5,-424.4 554.5,-379 554.5,-379 554.5,-379 554.5,-161 554.5,-116.47 566.04,-100.19 600.5,-72 643.53,-36.8 708.71,-24.96 749.39,-20.99"/>
<polygon fill="grey" stroke="grey" stroke-width="2" points="749.76,-24.47 759.42,-20.12 749.16,-17.5 749.76,-24.47"/>
</g>
<!-- 16&#45;&gt;0 -->
<g id="edge5" class="edge">
<title>16&#45;&gt;0</title>
<path fill="none" stroke="grey" stroke-width="2" d="M961.41,-503.58C974,-477.3 995.5,-425.62 995.5,-379 995.5,-379 995.5,-379 995.5,-161 995.5,-120.55 1004.2,-101.47 976.5,-72 936.84,-29.82 866.7,-20.24 823.64,-18.59"/>
<polygon fill="grey" stroke="grey" stroke-width="2" points="823.65,-15.09 813.57,-18.33 823.47,-22.09 823.65,-15.09"/>
</g>
<!-- 19 -->
<g id="node20" class="node">
<title>19</title>
<path fill="none" stroke="#d8ac56" stroke-width="2" d="M890,-468C890,-468 811,-468 811,-468 805,-468 799,-462 799,-456 799,-456 799,-444 799,-444 799,-438 805,-432 811,-432 811,-432 890,-432 890,-432 896,-432 902,-438 902,-444 902,-444 902,-456 902,-456 902,-462 896,-468 890,-468"/>
<text text-anchor="middle" x="850.5" y="-447.5" font-family="sans" font-size="10.00">cellsnp_to_per_cell</text>
</g>
<!-- 16&#45;&gt;19 -->
<g id="edge35" class="edge">
<title>16&#45;&gt;19</title>
<path fill="none" stroke="grey" stroke-width="2" d="M927.55,-503.88C914.46,-494.89 898.24,-483.76 884.06,-474.03"/>
<polygon fill="grey" stroke="grey" stroke-width="2" points="885.77,-470.96 875.55,-468.19 881.81,-476.73 885.77,-470.96"/>
</g>
<!-- 17 -->
<g id="node18" class="node">
<title>17</title>
<path fill="none" stroke="#56d8d0" stroke-width="2" d="M810.5,-324C810.5,-324 766.5,-324 766.5,-324 760.5,-324 754.5,-318 754.5,-312 754.5,-312 754.5,-300 754.5,-300 754.5,-294 760.5,-288 766.5,-288 766.5,-288 810.5,-288 810.5,-288 816.5,-288 822.5,-294 822.5,-300 822.5,-300 822.5,-312 822.5,-312 822.5,-318 816.5,-324 810.5,-324"/>
<text text-anchor="middle" x="788.5" y="-303.5" font-family="sans" font-size="10.00">select_cells</text>
</g>
<!-- 17&#45;&gt;0 -->
<g id="edge6" class="edge">
<title>17&#45;&gt;0</title>
<path fill="none" stroke="grey" stroke-width="2" d="M801.84,-287.88C822.89,-258.76 859.97,-197.53 845.5,-144 840.67,-126.12 832.82,-124.55 824.5,-108 814.17,-87.45 804.02,-63.43 796.81,-45.52"/>
<polygon fill="grey" stroke="grey" stroke-width="2" points="799.98,-44.01 793.03,-36.02 793.48,-46.6 799.98,-44.01"/>
</g>
<!-- 20 -->
<g id="node21" class="node">
<title>20</title>
<path fill="none" stroke="#ced856" stroke-width="2" d="M748.5,-252C748.5,-252 712.5,-252 712.5,-252 706.5,-252 700.5,-246 700.5,-240 700.5,-240 700.5,-228 700.5,-228 700.5,-222 706.5,-216 712.5,-216 712.5,-216 748.5,-216 748.5,-216 754.5,-216 760.5,-222 760.5,-228 760.5,-228 760.5,-240 760.5,-240 760.5,-246 754.5,-252 748.5,-252"/>
<text text-anchor="middle" x="730.5" y="-231.5" font-family="sans" font-size="10.00">co_calling</text>
</g>
<!-- 17&#45;&gt;20 -->
<g id="edge36" class="edge">
<title>17&#45;&gt;20</title>
<path fill="none" stroke="grey" stroke-width="2" d="M774.16,-287.7C767.21,-279.3 758.73,-269.07 751.1,-259.86"/>
<polygon fill="grey" stroke="grey" stroke-width="2" points="753.75,-257.57 744.67,-252.1 748.36,-262.04 753.75,-257.57"/>
</g>
<!-- 21 -->
<g id="node22" class="node">
<title>21</title>
<path fill="none" stroke="#d8c356" stroke-width="2" d="M824.5,-180C824.5,-180 768.5,-180 768.5,-180 762.5,-180 756.5,-174 756.5,-168 756.5,-168 756.5,-156 756.5,-156 756.5,-150 762.5,-144 768.5,-144 768.5,-144 824.5,-144 824.5,-144 830.5,-144 836.5,-150 836.5,-156 836.5,-156 836.5,-168 836.5,-168 836.5,-174 830.5,-180 824.5,-180"/>
<text text-anchor="middle" x="796.5" y="-159.5" font-family="sans" font-size="10.00">co_aggregate</text>
</g>
<!-- 17&#45;&gt;21 -->
<g id="edge39" class="edge">
<title>17&#45;&gt;21</title>
<path fill="none" stroke="grey" stroke-width="2" d="M789.46,-287.87C790.83,-263.67 793.33,-219.21 794.96,-190.39"/>
<polygon fill="grey" stroke="grey" stroke-width="2" points="798.46,-190.37 795.53,-180.19 791.47,-189.98 798.46,-190.37"/>
</g>
<!-- 18 -->
<g id="node19" class="node">
<title>18</title>
<path fill="none" stroke="#5673d8" stroke-width="2" d="M732,-396C732,-396 655,-396 655,-396 649,-396 643,-390 643,-384 643,-384 643,-372 643,-372 643,-366 649,-360 655,-360 655,-360 732,-360 732,-360 738,-360 744,-366 744,-372 744,-372 744,-384 744,-384 744,-390 738,-396 732,-396"/>
<text text-anchor="middle" x="693.5" y="-375.5" font-family="sans" font-size="10.00">switch_diagnostics</text>
</g>
<!-- 18&#45;&gt;0 -->
<g id="edge7" class="edge">
<title>18&#45;&gt;0</title>
<path fill="none" stroke="grey" stroke-width="2" d="M689.25,-359.63C683.11,-332.99 672.5,-280.36 672.5,-235 672.5,-235 672.5,-235 672.5,-161 672.5,-110 717.77,-66.88 751.26,-41.97"/>
<polygon fill="grey" stroke="grey" stroke-width="2" points="753.42,-44.73 759.48,-36.04 749.33,-39.05 753.42,-44.73"/>
</g>
<!-- 18&#45;&gt;17 -->
<g id="edge33" class="edge">
<title>18&#45;&gt;17</title>
<path fill="none" stroke="grey" stroke-width="2" d="M716.98,-359.7C729.06,-350.8 743.95,-339.82 757.02,-330.2"/>
<polygon fill="grey" stroke="grey" stroke-width="2" points="759.31,-332.85 765.29,-324.1 755.16,-327.22 759.31,-332.85"/>
</g>
<!-- 19&#45;&gt;18 -->
<g id="edge34" class="edge">
<title>19&#45;&gt;18</title>
<path fill="none" stroke="grey" stroke-width="2" d="M812.09,-431.88C790.63,-422.31 763.7,-410.3 740.93,-400.15"/>
<polygon fill="grey" stroke="grey" stroke-width="2" points="742.34,-396.94 731.78,-396.07 739.49,-403.34 742.34,-396.94"/>
</g>
<!-- 19&#45;&gt;20 -->
<g id="edge37" class="edge">
<title>19&#45;&gt;20</title>
<path fill="none" stroke="grey" stroke-width="2" d="M830.61,-431.75C806.32,-409.47 765.95,-368.25 745.5,-324 736.53,-304.59 732.86,-280.59 731.39,-262.4"/>
<polygon fill="grey" stroke="grey" stroke-width="2" points="734.87,-261.94 730.74,-252.18 727.88,-262.38 734.87,-261.94"/>
</g>
<!-- 19&#45;&gt;21 -->
<g id="edge40" class="edge">
<title>19&#45;&gt;21</title>
<path fill="none" stroke="grey" stroke-width="2" d="M849.36,-431.94C847.2,-402.4 841.77,-339.91 831.5,-288 824.7,-253.61 813.24,-214.85 805.29,-189.74"/>
<polygon fill="grey" stroke="grey" stroke-width="2" points="808.62,-188.64 802.23,-180.19 801.95,-190.78 808.62,-188.64"/>
</g>
<!-- 22 -->
<g id="node23" class="node">
<title>22</title>
<path fill="none" stroke="#56d8b9" stroke-width="2" d="M955.5,-108C955.5,-108 845.5,-108 845.5,-108 839.5,-108 833.5,-102 833.5,-96 833.5,-96 833.5,-84 833.5,-84 833.5,-78 839.5,-72 845.5,-72 845.5,-72 955.5,-72 955.5,-72 961.5,-72 967.5,-78 967.5,-84 967.5,-84 967.5,-96 967.5,-96 967.5,-102 961.5,-108 955.5,-108"/>
<text text-anchor="middle" x="900.5" y="-87.5" font-family="sans" font-size="10.00">recombination_landscape</text>
</g>
<!-- 19&#45;&gt;22 -->
<g id="edge42" class="edge">
<title>19&#45;&gt;22</title>
<path fill="none" stroke="grey" stroke-width="2" d="M861.27,-431.81C876.51,-405.83 902.5,-354.52 902.5,-307 902.5,-307 902.5,-307 902.5,-233 902.5,-192.99 901.7,-146.65 901.11,-118.08"/>
<polygon fill="grey" stroke="grey" stroke-width="2" points="904.61,-117.97 900.9,-108.05 897.61,-118.12 904.61,-117.97"/>
</g>
<!-- 20&#45;&gt;0 -->
<g id="edge8" class="edge">
<title>20&#45;&gt;0</title>
<path fill="none" stroke="grey" stroke-width="2" d="M733.19,-215.81C736.14,-197.79 741.3,-168.72 747.5,-144 756.1,-109.7 768.65,-70.92 777.17,-45.78"/>
<polygon fill="grey" stroke="grey" stroke-width="2" points="780.52,-46.81 780.45,-36.21 773.9,-44.54 780.52,-46.81"/>
</g>
<!-- 20&#45;&gt;21 -->
<g id="edge38" class="edge">
<title>20&#45;&gt;21</title>
<path fill="none" stroke="grey" stroke-width="2" d="M746.81,-215.7C754.81,-207.22 764.57,-196.86 773.32,-187.58"/>
<polygon fill="grey" stroke="grey" stroke-width="2" points="776.06,-189.78 780.37,-180.1 770.97,-184.98 776.06,-189.78"/>
</g>
<!-- 21&#45;&gt;0 -->
<g id="edge9" class="edge">
<title>21&#45;&gt;0</title>
<path fill="none" stroke="grey" stroke-width="2" d="M794.71,-143.83C793.68,-133.46 792.4,-119.98 791.5,-108 789.94,-87.3 788.64,-63.85 787.76,-46.22"/>
<polygon fill="grey" stroke="grey" stroke-width="2" points="791.25,-45.89 787.27,-36.07 784.26,-46.23 791.25,-45.89"/>
</g>
<!-- 21&#45;&gt;22 -->
<g id="edge41" class="edge">
<title>21&#45;&gt;22</title>
<path fill="none" stroke="grey" stroke-width="2" d="M821.94,-143.88C835.29,-134.89 851.82,-123.76 866.28,-114.03"/>
<polygon fill="grey" stroke="grey" stroke-width="2" points="868.62,-116.68 874.96,-108.19 864.71,-110.87 868.62,-116.68"/>
</g>
<!-- 22&#45;&gt;0 -->
<g id="edge10" class="edge">
<title>22&#45;&gt;0</title>
<path fill="none" stroke="grey" stroke-width="2" d="M872.61,-71.88C857.48,-62.59 838.62,-51 822.4,-41.04"/>
<polygon fill="grey" stroke="grey" stroke-width="2" points="824.06,-37.96 813.71,-35.71 820.4,-43.92 824.06,-37.96"/>
</g>
</g>
</svg>
