<?xml version="1.0" encoding="UTF-8" standalone="no"?>
<!DOCTYPE svg PUBLIC "-//W3C//DTD SVG 1.1//EN"
 "http://www.w3.org/Graphics/SVG/1.1/DTD/svg11.dtd">
<!-- Generated by graphviz version 2.43.0 (0)
 -->
<!-- Title: snakemake_dag Pages: 1 -->
<svg width="1123pt" height="836pt"
 viewBox="0.00 0.00 1122.50 836.00" xmlns="http://www.w3.org/2000/svg" xmlns:xlink="http://www.w3.org/1999/xlink">
<g id="graph0" class="graph" transform="scale(1 1) rotate(0) translate(4 832)">
<title>snakemake_dag</title>
<polygon fill="white" stroke="transparent" points="-4,4 -4,-832 1118.5,-832 1118.5,4 -4,4"/>
<!-- 0 -->
<g id="node1" class="node">
<title>0</title>
<path fill="none" stroke="#d85656" stroke-width="2" d="M205,-36C205,-36 175,-36 175,-36 169,-36 163,-30 163,-24 163,-24 163,-12 163,-12 163,-6 169,0 175,0 175,0 205,0 205,0 211,0 217,-6 217,-12 217,-12 217,-24 217,-24 217,-30 211,-36 205,-36"/>
<text text-anchor="middle" x="190" y="-15.5" font-family="sans" font-size="10.00">all</text>
</g>
<!-- 1 -->
<g id="node2" class="node">
<title>1</title>
<path fill="none" stroke="#56a2d8" stroke-width="2" d="M89,-684C89,-684 33,-684 33,-684 27,-684 21,-678 21,-672 21,-672 21,-660 21,-660 21,-654 27,-648 33,-648 33,-648 89,-648 89,-648 95,-648 101,-654 101,-660 101,-660 101,-672 101,-672 101,-678 95,-684 89,-684"/>
<text text-anchor="middle" x="61" y="-663.5" font-family="sans" font-size="10.00">starsolo_align</text>
</g>
<!-- 1&#45;&gt;0 -->
<g id="edge1" class="edge">
<title>1&#45;&gt;0</title>
<path fill="none" stroke="grey" stroke-width="2" d="M43.96,-647.76C35.25,-638.02 25.2,-625.17 19,-612 1.76,-575.41 0,-563.45 0,-523 0,-523 0,-523 0,-161 0,-115.41 16.35,-101.63 51,-72 80.24,-47 122.5,-33.15 152.74,-25.94"/>
<polygon fill="grey" stroke="grey" stroke-width="2" points="153.91,-29.27 162.9,-23.66 152.37,-22.44 153.91,-29.27"/>
</g>
<!-- 4 -->
<g id="node5" class="node">
<title>4</title>
<path fill="none" stroke="#d86e56" stroke-width="2" d="M81.5,-612C81.5,-612 40.5,-612 40.5,-612 34.5,-612 28.5,-606 28.5,-600 28.5,-600 28.5,-588 28.5,-588 28.5,-582 34.5,-576 40.5,-576 40.5,-576 81.5,-576 81.5,-576 87.5,-576 93.5,-582 93.5,-588 93.5,-588 93.5,-600 93.5,-600 93.5,-606 87.5,-612 81.5,-612"/>
<text text-anchor="middle" x="61" y="-591.5" font-family="sans" font-size="10.00">cell_calling</text>
</g>
<!-- 1&#45;&gt;4 -->
<g id="edge14" class="edge">
<title>1&#45;&gt;4</title>
<path fill="none" stroke="grey" stroke-width="2" d="M61,-647.7C61,-639.98 61,-630.71 61,-622.11"/>
<polygon fill="grey" stroke="grey" stroke-width="2" points="64.5,-622.1 61,-612.1 57.5,-622.1 64.5,-622.1"/>
</g>
<!-- 16 -->
<g id="node17" class="node">
<title>16</title>
<path fill="none" stroke="#d88d56" stroke-width="2" d="M159,-540C159,-540 85,-540 85,-540 79,-540 73,-534 73,-528 73,-528 73,-516 73,-516 73,-510 79,-504 85,-504 85,-504 159,-504 159,-504 165,-504 171,-510 171,-516 171,-516 171,-528 171,-528 171,-534 165,-540 159,-540"/>
<text text-anchor="middle" x="122" y="-519.5" font-family="sans" font-size="10.00">cell_snp_counting</text>
</g>
<!-- 1&#45;&gt;16 -->
<g id="edge31" class="edge">
<title>1&#45;&gt;16</title>
<path fill="none" stroke="grey" stroke-width="2" d="M77.56,-647.67C86.05,-637.9 95.86,-625.05 102,-612 111.24,-592.35 116.32,-568.23 119.05,-550.05"/>
<polygon fill="grey" stroke="grey" stroke-width="2" points="122.52,-550.5 120.39,-540.12 115.58,-549.56 122.52,-550.5"/>
</g>
<!-- 2 -->
<g id="node3" class="node">
<title>2</title>
<path fill="none" stroke="#56c1d8" stroke-width="2" d="M81,-756C81,-756 41,-756 41,-756 35,-756 29,-750 29,-744 29,-744 29,-732 29,-732 29,-726 35,-720 41,-720 41,-720 81,-720 81,-720 87,-720 93,-726 93,-732 93,-732 93,-744 93,-744 93,-750 87,-756 81,-756"/>
<text text-anchor="middle" x="61" y="-735.5" font-family="sans" font-size="10.00">star_index</text>
</g>
<!-- 2&#45;&gt;1 -->
<g id="edge12" class="edge">
<title>2&#45;&gt;1</title>
<path fill="none" stroke="grey" stroke-width="2" d="M61,-719.7C61,-711.98 61,-702.71 61,-694.11"/>
<polygon fill="grey" stroke="grey" stroke-width="2" points="64.5,-694.1 61,-684.1 57.5,-694.1 64.5,-694.1"/>
</g>
<!-- 3 -->
<g id="node4" class="node">
<title>3</title>
<path fill="none" stroke="#70d856" stroke-width="2" d="M108,-828C108,-828 14,-828 14,-828 8,-828 2,-822 2,-816 2,-816 2,-804 2,-804 2,-798 8,-792 14,-792 14,-792 108,-792 108,-792 114,-792 120,-798 120,-804 120,-804 120,-816 120,-816 120,-822 114,-828 108,-828"/>
<text text-anchor="middle" x="61" y="-813" font-family="sans" font-size="10.00">gff_to_gtf</text>
<text text-anchor="middle" x="61" y="-802" font-family="sans" font-size="10.00">sample: 6303_B_hap1</text>
</g>
<!-- 3&#45;&gt;2 -->
<g id="edge13" class="edge">
<title>3&#45;&gt;2</title>
<path fill="none" stroke="grey" stroke-width="2" d="M61,-791.7C61,-783.98 61,-774.71 61,-766.11"/>
<polygon fill="grey" stroke="grey" stroke-width="2" points="64.5,-766.1 61,-756.1 57.5,-766.1 64.5,-766.1"/>
</g>
<!-- 4&#45;&gt;0 -->
<g id="edge2" class="edge">
<title>4&#45;&gt;0</title>
<path fill="none" stroke="grey" stroke-width="2" d="M56.35,-575.66C49.62,-549.05 38,-496.45 38,-451 38,-451 38,-451 38,-161 38,-115.41 56.17,-103.63 89,-72 107.34,-54.33 132.75,-41.03 153.49,-32.18"/>
<polygon fill="grey" stroke="grey" stroke-width="2" points="155.02,-35.34 162.95,-28.31 152.37,-28.86 155.02,-35.34"/>
</g>
<!-- 4&#45;&gt;16 -->
<g id="edge32" class="edge">
<title>4&#45;&gt;16</title>
<path fill="none" stroke="grey" stroke-width="2" d="M76.08,-575.7C83.39,-567.3 92.31,-557.07 100.34,-547.86"/>
<polygon fill="grey" stroke="grey" stroke-width="2" points="103.16,-549.94 107.09,-540.1 97.89,-545.34 103.16,-549.94"/>
</g>
<!-- 5 -->
<g id="node6" class="node">
<title>5</title>
<path fill="none" stroke="#a7d856" stroke-width="2" d="M559.5,-612C559.5,-612 500.5,-612 500.5,-612 494.5,-612 488.5,-606 488.5,-600 488.5,-600 488.5,-588 488.5,-588 488.5,-582 494.5,-576 500.5,-576 500.5,-576 559.5,-576 559.5,-576 565.5,-576 571.5,-582 571.5,-588 571.5,-588 571.5,-600 571.5,-600 571.5,-606 565.5,-612 559.5,-612"/>
<text text-anchor="middle" x="530" y="-591.5" font-family="sans" font-size="10.00">filter_markers</text>
</g>
<!-- 5&#45;&gt;0 -->
<g id="edge3" class="edge">
<title>5&#45;&gt;0</title>
<path fill="none" stroke="grey" stroke-width="2" d="M534.45,-575.65C540.88,-549.02 552,-496.4 552,-451 552,-451 552,-451 552,-161 552,-120.55 562.4,-99.77 533,-72 489.45,-30.87 306.65,-21.66 227.17,-19.6"/>
<polygon fill="grey" stroke="grey" stroke-width="2" points="227.19,-16.09 217.11,-19.36 227.03,-23.09 227.19,-16.09"/>
</g>
<!-- 5&#45;&gt;16 -->
<g id="edge33" class="edge">
<title>5&#45;&gt;16</title>
<path fill="none" stroke="grey" stroke-width="2" d="M488.25,-585.84C415.43,-573.34 264.99,-547.53 181.36,-533.18"/>
<polygon fill="grey" stroke="grey" stroke-width="2" points="181.7,-529.69 171.25,-531.45 180.51,-536.59 181.7,-529.69"/>
</g>
<!-- 23 -->
<g id="node24" class="node">
<title>23</title>
<path fill="none" stroke="#bed856" stroke-width="2" d="M511.5,-108C511.5,-108 420.5,-108 420.5,-108 414.5,-108 408.5,-102 408.5,-96 408.5,-96 408.5,-84 408.5,-84 408.5,-78 414.5,-72 420.5,-72 420.5,-72 511.5,-72 511.5,-72 517.5,-72 523.5,-78 523.5,-84 523.5,-84 523.5,-96 523.5,-96 523.5,-102 517.5,-108 511.5,-108"/>
<text text-anchor="middle" x="466" y="-87.5" font-family="sans" font-size="10.00">composite_landscape</text>
</g>
<!-- 5&#45;&gt;23 -->
<g id="edge46" class="edge">
<title>5&#45;&gt;23</title>
<path fill="none" stroke="grey" stroke-width="2" d="M525.75,-575.63C519.61,-548.99 509,-496.36 509,-451 509,-451 509,-451 509,-233 509,-191.29 491.8,-145.54 479.16,-117.54"/>
<polygon fill="grey" stroke="grey" stroke-width="2" points="482.3,-116.01 474.91,-108.42 475.95,-118.96 482.3,-116.01"/>
</g>
<!-- 6 -->
<g id="node7" class="node">
<title>6</title>
<path fill="none" stroke="#56d873" stroke-width="2" d="M657.5,-684C657.5,-684 574.5,-684 574.5,-684 568.5,-684 562.5,-678 562.5,-672 562.5,-672 562.5,-660 562.5,-660 562.5,-654 568.5,-648 574.5,-648 574.5,-648 657.5,-648 657.5,-648 663.5,-648 669.5,-654 669.5,-660 669.5,-660 669.5,-672 669.5,-672 669.5,-678 663.5,-684 657.5,-684"/>
<text text-anchor="middle" x="616" y="-663.5" font-family="sans" font-size="10.00">hifi_variants_merge</text>
</g>
<!-- 6&#45;&gt;5 -->
<g id="edge15" class="edge">
<title>6&#45;&gt;5</title>
<path fill="none" stroke="grey" stroke-width="2" d="M594.74,-647.7C583.91,-638.88 570.58,-628.03 558.84,-618.47"/>
<polygon fill="grey" stroke="grey" stroke-width="2" points="560.98,-615.7 551.01,-612.1 556.56,-621.13 560.98,-615.7"/>
</g>
<!-- 15 -->
<g id="node16" class="node">
<title>15</title>
<path fill="none" stroke="#56d8a2" stroke-width="2" d="M675.5,-540C675.5,-540 592.5,-540 592.5,-540 586.5,-540 580.5,-534 580.5,-528 580.5,-528 580.5,-516 580.5,-516 580.5,-510 586.5,-504 592.5,-504 592.5,-504 675.5,-504 675.5,-504 681.5,-504 687.5,-510 687.5,-516 687.5,-516 687.5,-528 687.5,-528 687.5,-534 681.5,-540 675.5,-540"/>
<text text-anchor="middle" x="634" y="-519.5" font-family="sans" font-size="10.00">marker_diagnostics</text>
</g>
<!-- 6&#45;&gt;15 -->
<g id="edge30" class="edge">
<title>6&#45;&gt;15</title>
<path fill="none" stroke="grey" stroke-width="2" d="M618.17,-647.87C621.24,-623.67 626.87,-579.21 630.53,-550.39"/>
<polygon fill="grey" stroke="grey" stroke-width="2" points="634.04,-550.55 631.82,-540.19 627.09,-549.67 634.04,-550.55"/>
</g>
<!-- 7 -->
<g id="node8" class="node">
<title>7</title>
<path fill="none" stroke="#56d88a" stroke-width="2" d="M667.5,-756C667.5,-756 564.5,-756 564.5,-756 558.5,-756 552.5,-750 552.5,-744 552.5,-744 552.5,-732 552.5,-732 552.5,-726 558.5,-720 564.5,-720 564.5,-720 667.5,-720 667.5,-720 673.5,-720 679.5,-726 679.5,-732 679.5,-732 679.5,-744 679.5,-744 679.5,-750 673.5,-756 667.5,-756"/>
<text text-anchor="middle" x="616" y="-741" font-family="sans" font-size="10.00">hifi_variants_per_chrom</text>
<text text-anchor="middle" x="616" y="-730" font-family="sans" font-size="10.00">chrom: scaffold_1</text>
</g>
<!-- 7&#45;&gt;6 -->
<g id="edge16" class="edge">
<title>7&#45;&gt;6</title>
<path fill="none" stroke="grey" stroke-width="2" d="M616,-719.7C616,-711.98 616,-702.71 616,-694.11"/>
<polygon fill="grey" stroke="grey" stroke-width="2" points="619.5,-694.1 616,-684.1 612.5,-694.1 619.5,-694.1"/>
</g>
<!-- 8 -->
<g id="node9" class="node">
<title>8</title>
<path fill="none" stroke="#59d856" stroke-width="2" d="M663,-828C663,-828 569,-828 569,-828 563,-828 557,-822 557,-816 557,-816 557,-804 557,-804 557,-798 563,-792 569,-792 569,-792 663,-792 663,-792 669,-792 675,-798 675,-804 675,-804 675,-816 675,-816 675,-822 669,-828 663,-828"/>
<text text-anchor="middle" x="616" y="-813" font-family="sans" font-size="10.00">hifi_align</text>
<text text-anchor="middle" x="616" y="-802" font-family="sans" font-size="10.00">sample: 6303_B_hap1</text>
</g>
<!-- 8&#45;&gt;7 -->
<g id="edge23" class="edge">
<title>8&#45;&gt;7</title>
<path fill="none" stroke="grey" stroke-width="2" d="M616,-791.7C616,-783.98 616,-774.71 616,-766.11"/>
<polygon fill="grey" stroke="grey" stroke-width="2" points="619.5,-766.1 616,-756.1 612.5,-766.1 619.5,-766.1"/>
</g>
<!-- 9 -->
<g id="node10" class="node">
<title>9</title>
<path fill="none" stroke="#56d88a" stroke-width="2" d="M812.5,-756C812.5,-756 709.5,-756 709.5,-756 703.5,-756 697.5,-750 697.5,-744 697.5,-744 697.5,-732 697.5,-732 697.5,-726 703.5,-720 709.5,-720 709.5,-720 812.5,-720 812.5,-720 818.5,-720 824.5,-726 824.5,-732 824.5,-732 824.5,-744 824.5,-744 824.5,-750 818.5,-756 812.5,-756"/>
<text text-anchor="middle" x="761" y="-741" font-family="sans" font-size="10.00">hifi_variants_per_chrom</text>
<text text-anchor="middle" x="761" y="-730" font-family="sans" font-size="10.00">chrom: scaffold_3</text>
</g>
<!-- 8&#45;&gt;9 -->
<g id="edge24" class="edge">
<title>8&#45;&gt;9</title>
<path fill="none" stroke="grey" stroke-width="2" d="M651.47,-791.88C671.12,-782.39 695.72,-770.51 716.63,-760.42"/>
<polygon fill="grey" stroke="grey" stroke-width="2" points="718.16,-763.57 725.64,-756.07 715.12,-757.26 718.16,-763.57"/>
</g>
<!-- 10 -->
<g id="node11" class="node">
<title>10</title>
<path fill="none" stroke="#56d88a" stroke-width="2" d="M957.5,-756C957.5,-756 854.5,-756 854.5,-756 848.5,-756 842.5,-750 842.5,-744 842.5,-744 842.5,-732 842.5,-732 842.5,-726 848.5,-720 854.5,-720 854.5,-720 957.5,-720 957.5,-720 963.5,-720 969.5,-726 969.5,-732 969.5,-732 969.5,-744 969.5,-744 969.5,-750 963.5,-756 957.5,-756"/>
<text text-anchor="middle" x="906" y="-741" font-family="sans" font-size="10.00">hifi_variants_per_chrom</text>
<text text-anchor="middle" x="906" y="-730" font-family="sans" font-size="10.00">chrom: scaffold_5</text>
</g>
<!-- 8&#45;&gt;10 -->
<g id="edge25" class="edge">
<title>8&#45;&gt;10</title>
<path fill="none" stroke="grey" stroke-width="2" d="M675.04,-794.75C720.51,-783.77 783.64,-768.54 832.4,-756.76"/>
<polygon fill="grey" stroke="grey" stroke-width="2" points="833.37,-760.13 842.27,-754.38 831.73,-753.33 833.37,-760.13"/>
</g>
<!-- 11 -->
<g id="node12" class="node">
<title>11</title>
<path fill="none" stroke="#56d88a" stroke-width="2" d="M1102.5,-756C1102.5,-756 999.5,-756 999.5,-756 993.5,-756 987.5,-750 987.5,-744 987.5,-744 987.5,-732 987.5,-732 987.5,-726 993.5,-720 999.5,-720 999.5,-720 1102.5,-720 1102.5,-720 1108.5,-720 1114.5,-726 1114.5,-732 1114.5,-732 1114.5,-744 1114.5,-744 1114.5,-750 1108.5,-756 1102.5,-756"/>
<text text-anchor="middle" x="1051" y="-741" font-family="sans" font-size="10.00">hifi_variants_per_chrom</text>
<text text-anchor="middle" x="1051" y="-730" font-family="sans" font-size="10.00">chrom: scaffold_7</text>
</g>
<!-- 8&#45;&gt;11 -->
<g id="edge26" class="edge">
<title>8&#45;&gt;11</title>
<path fill="none" stroke="grey" stroke-width="2" d="M675.05,-801.98C744.99,-793.31 865.19,-777.28 977.33,-756.24"/>
<polygon fill="grey" stroke="grey" stroke-width="2" points="978.29,-759.62 987.46,-754.32 976.98,-752.74 978.29,-759.62"/>
</g>
<!-- 12 -->
<g id="node13" class="node">
<title>12</title>
<path fill="none" stroke="#56d88a" stroke-width="2" d="M232.5,-756C232.5,-756 129.5,-756 129.5,-756 123.5,-756 117.5,-750 117.5,-744 117.5,-744 117.5,-732 117.5,-732 117.5,-726 123.5,-720 129.5,-720 129.5,-720 232.5,-720 232.5,-720 238.5,-720 244.5,-726 244.5,-732 244.5,-732 244.5,-744 244.5,-744 244.5,-750 238.5,-756 232.5,-756"/>
<text text-anchor="middle" x="181" y="-741" font-family="sans" font-size="10.00">hifi_variants_per_chrom</text>
<text text-anchor="middle" x="181" y="-730" font-family="sans" font-size="10.00">chrom: scaffold_9</text>
</g>
<!-- 8&#45;&gt;12 -->
<g id="edge27" class="edge">
<title>8&#45;&gt;12</title>
<path fill="none" stroke="grey" stroke-width="2" d="M556.81,-801.87C486.95,-793.12 367.12,-777.03 254.47,-756"/>
<polygon fill="grey" stroke="grey" stroke-width="2" points="255.11,-752.56 244.63,-754.15 253.81,-759.44 255.11,-752.56"/>
</g>
<!-- 13 -->
<g id="node14" class="node">
<title>13</title>
<path fill="none" stroke="#56d88a" stroke-width="2" d="M377.5,-756C377.5,-756 274.5,-756 274.5,-756 268.5,-756 262.5,-750 262.5,-744 262.5,-744 262.5,-732 262.5,-732 262.5,-726 268.5,-720 274.5,-720 274.5,-720 377.5,-720 377.5,-720 383.5,-720 389.5,-726 389.5,-732 389.5,-732 389.5,-744 389.5,-744 389.5,-750 383.5,-756 377.5,-756"/>
<text text-anchor="middle" x="326" y="-741" font-family="sans" font-size="10.00">hifi_variants_per_chrom</text>
<text text-anchor="middle" x="326" y="-730" font-family="sans" font-size="10.00">chrom: scaffold_11</text>
</g>
<!-- 8&#45;&gt;13 -->
<g id="edge28" class="edge">
<title>8&#45;&gt;13</title>
<path fill="none" stroke="grey" stroke-width="2" d="M556.96,-794.75C511.49,-783.77 448.36,-768.54 399.6,-756.76"/>
<polygon fill="grey" stroke="grey" stroke-width="2" points="400.27,-753.33 389.73,-754.38 398.63,-760.13 400.27,-753.33"/>
</g>
<!-- 14 -->
<g id="node15" class="node">
<title>14</title>
<path fill="none" stroke="#56d88a" stroke-width="2" d="M522.5,-756C522.5,-756 419.5,-756 419.5,-756 413.5,-756 407.5,-750 407.5,-744 407.5,-744 407.5,-732 407.5,-732 407.5,-726 413.5,-720 419.5,-720 419.5,-720 522.5,-720 522.5,-720 528.5,-720 534.5,-726 534.5,-732 534.5,-732 534.5,-744 534.5,-744 534.5,-750 528.5,-756 522.5,-756"/>
<text text-anchor="middle" x="471" y="-741" font-family="sans" font-size="10.00">hifi_variants_per_chrom</text>
<text text-anchor="middle" x="471" y="-730" font-family="sans" font-size="10.00">chrom: scaffold_13</text>
</g>
<!-- 8&#45;&gt;14 -->
<g id="edge29" class="edge">
<title>8&#45;&gt;14</title>
<path fill="none" stroke="grey" stroke-width="2" d="M580.53,-791.88C560.88,-782.39 536.28,-770.51 515.37,-760.42"/>
<polygon fill="grey" stroke="grey" stroke-width="2" points="516.88,-757.26 506.36,-756.07 513.84,-763.57 516.88,-757.26"/>
</g>
<!-- 9&#45;&gt;6 -->
<g id="edge17" class="edge">
<title>9&#45;&gt;6</title>
<path fill="none" stroke="grey" stroke-width="2" d="M725.53,-719.88C705.88,-710.39 681.28,-698.51 660.37,-688.42"/>
<polygon fill="grey" stroke="grey" stroke-width="2" points="661.88,-685.26 651.36,-684.07 658.84,-691.57 661.88,-685.26"/>
</g>
<!-- 10&#45;&gt;6 -->
<g id="edge18" class="edge">
<title>10&#45;&gt;6</title>
<path fill="none" stroke="grey" stroke-width="2" d="M842.36,-721.64C794.1,-709.99 728.08,-694.05 679.79,-682.4"/>
<polygon fill="grey" stroke="grey" stroke-width="2" points="680.31,-678.92 669.76,-679.98 678.66,-685.73 680.31,-678.92"/>
</g>
<!-- 11&#45;&gt;6 -->
<g id="edge19" class="edge">
<title>11&#45;&gt;6</title>
<path fill="none" stroke="grey" stroke-width="2" d="M987.46,-721.68C984.61,-721.09 981.78,-720.53 979,-720 874.95,-700.16 752.88,-683.73 680.12,-674.65"/>
<polygon fill="grey" stroke="grey" stroke-width="2" points="680.11,-671.12 669.75,-673.37 679.25,-678.07 680.11,-671.12"/>
</g>
<!-- 12&#45;&gt;6 -->
<g id="edge20" class="edge">
<title>12&#45;&gt;6</title>
<path fill="none" stroke="grey" stroke-width="2" d="M244.63,-721.85C247.8,-721.2 250.93,-720.58 254,-720 357.8,-700.35 479.52,-683.86 552.07,-674.72"/>
<polygon fill="grey" stroke="grey" stroke-width="2" points="552.92,-678.14 562.4,-673.43 552.05,-671.2 552.92,-678.14"/>
</g>
<!-- 13&#45;&gt;6 -->
<g id="edge21" class="edge">
<title>13&#45;&gt;6</title>
<path fill="none" stroke="grey" stroke-width="2" d="M389.64,-721.64C437.9,-709.99 503.92,-694.05 552.21,-682.4"/>
<polygon fill="grey" stroke="grey" stroke-width="2" points="553.34,-685.73 562.24,-679.98 551.69,-678.92 553.34,-685.73"/>
</g>
<!-- 14&#45;&gt;6 -->
<g id="edge22" class="edge">
<title>14&#45;&gt;6</title>
<path fill="none" stroke="grey" stroke-width="2" d="M506.47,-719.88C526.12,-710.39 550.72,-698.51 571.63,-688.42"/>
<polygon fill="grey" stroke="grey" stroke-width="2" points="573.16,-691.57 580.64,-684.07 570.12,-685.26 573.16,-691.57"/>
</g>
<!-- 15&#45;&gt;0 -->
<g id="edge4" class="edge">
<title>15&#45;&gt;0</title>
<path fill="none" stroke="grey" stroke-width="2" d="M629.55,-503.65C623.12,-477.02 612,-424.4 612,-379 612,-379 612,-379 612,-161 612,-116.47 602.32,-97.76 566,-72 511.98,-33.69 311.17,-22.87 227.24,-19.98"/>
<polygon fill="grey" stroke="grey" stroke-width="2" points="227.24,-16.48 217.13,-19.66 227.02,-23.48 227.24,-16.48"/>
</g>
<!-- 16&#45;&gt;0 -->
<g id="edge5" class="edge">
<title>16&#45;&gt;0</title>
<path fill="none" stroke="grey" stroke-width="2" d="M112.47,-503.66C99,-477.47 76,-425.9 76,-379 76,-379 76,-379 76,-161 76,-110 121.27,-66.88 154.76,-41.97"/>
<polygon fill="grey" stroke="grey" stroke-width="2" points="156.92,-44.73 162.98,-36.04 152.83,-39.05 156.92,-44.73"/>
</g>
<!-- 19 -->
<g id="node20" class="node">
<title>19</title>
<path fill="none" stroke="#d8a456" stroke-width="2" d="M326.5,-468C326.5,-468 247.5,-468 247.5,-468 241.5,-468 235.5,-462 235.5,-456 235.5,-456 235.5,-444 235.5,-444 235.5,-438 241.5,-432 247.5,-432 247.5,-432 326.5,-432 326.5,-432 332.5,-432 338.5,-438 338.5,-444 338.5,-444 338.5,-456 338.5,-456 338.5,-462 332.5,-468 326.5,-468"/>
<text text-anchor="middle" x="287" y="-447.5" font-family="sans" font-size="10.00">cellsnp_to_per_cell</text>
</g>
<!-- 16&#45;&gt;19 -->
<g id="edge36" class="edge">
<title>16&#45;&gt;19</title>
<path fill="none" stroke="grey" stroke-width="2" d="M162.36,-503.88C185.02,-494.26 213.47,-482.19 237.47,-472.01"/>
<polygon fill="grey" stroke="grey" stroke-width="2" points="238.93,-475.2 246.77,-468.07 236.19,-468.75 238.93,-475.2"/>
</g>
<!-- 17 -->
<g id="node18" class="node">
<title>17</title>
<path fill="none" stroke="#56d8d8" stroke-width="2" d="M212,-324C212,-324 168,-324 168,-324 162,-324 156,-318 156,-312 156,-312 156,-300 156,-300 156,-294 162,-288 168,-288 168,-288 212,-288 212,-288 218,-288 224,-294 224,-300 224,-300 224,-312 224,-312 224,-318 218,-324 212,-324"/>
<text text-anchor="middle" x="190" y="-303.5" font-family="sans" font-size="10.00">select_cells</text>
</g>
<!-- 17&#45;&gt;0 -->
<g id="edge6" class="edge">
<title>17&#45;&gt;0</title>
<path fill="none" stroke="grey" stroke-width="2" d="M190,-287.97C190,-240.29 190,-105.18 190,-46.63"/>
<polygon fill="grey" stroke="grey" stroke-width="2" points="193.5,-46.31 190,-36.31 186.5,-46.31 193.5,-46.31"/>
</g>
<!-- 20 -->
<g id="node21" class="node">
<title>20</title>
<path fill="none" stroke="#d6d856" stroke-width="2" d="M266,-252C266,-252 230,-252 230,-252 224,-252 218,-246 218,-240 218,-240 218,-228 218,-228 218,-222 224,-216 230,-216 230,-216 266,-216 266,-216 272,-216 278,-222 278,-228 278,-228 278,-240 278,-240 278,-246 272,-252 266,-252"/>
<text text-anchor="middle" x="248" y="-231.5" font-family="sans" font-size="10.00">co_calling</text>
</g>
<!-- 17&#45;&gt;20 -->
<g id="edge37" class="edge">
<title>17&#45;&gt;20</title>
<path fill="none" stroke="grey" stroke-width="2" d="M204.34,-287.7C211.29,-279.3 219.77,-269.07 227.4,-259.86"/>
<polygon fill="grey" stroke="grey" stroke-width="2" points="230.14,-262.04 233.83,-252.1 224.75,-257.57 230.14,-262.04"/>
</g>
<!-- 21 -->
<g id="node22" class="node">
<title>21</title>
<path fill="none" stroke="#d8bc56" stroke-width="2" d="M295,-180C295,-180 239,-180 239,-180 233,-180 227,-174 227,-168 227,-168 227,-156 227,-156 227,-150 233,-144 239,-144 239,-144 295,-144 295,-144 301,-144 307,-150 307,-156 307,-156 307,-168 307,-168 307,-174 301,-180 295,-180"/>
<text text-anchor="middle" x="267" y="-159.5" font-family="sans" font-size="10.00">co_aggregate</text>
</g>
<!-- 17&#45;&gt;21 -->
<g id="edge40" class="edge">
<title>17&#45;&gt;21</title>
<path fill="none" stroke="grey" stroke-width="2" d="M190.58,-287.83C191.89,-269.05 196.04,-238.62 209,-216 215.31,-205 224.68,-195 234.06,-186.72"/>
<polygon fill="grey" stroke="grey" stroke-width="2" points="236.45,-189.29 241.88,-180.19 231.96,-183.92 236.45,-189.29"/>
</g>
<!-- 18 -->
<g id="node19" class="node">
<title>18</title>
<path fill="none" stroke="#5673d8" stroke-width="2" d="M227.5,-396C227.5,-396 150.5,-396 150.5,-396 144.5,-396 138.5,-390 138.5,-384 138.5,-384 138.5,-372 138.5,-372 138.5,-366 144.5,-360 150.5,-360 150.5,-360 227.5,-360 227.5,-360 233.5,-360 239.5,-366 239.5,-372 239.5,-372 239.5,-384 239.5,-384 239.5,-390 233.5,-396 227.5,-396"/>
<text text-anchor="middle" x="189" y="-375.5" font-family="sans" font-size="10.00">switch_diagnostics</text>
</g>
<!-- 18&#45;&gt;0 -->
<g id="edge7" class="edge">
<title>18&#45;&gt;0</title>
<path fill="none" stroke="grey" stroke-width="2" d="M172.73,-359.73C150.67,-334.45 114,-284.91 114,-235 114,-235 114,-235 114,-161 114,-115.64 144.52,-70.75 166.88,-43.95"/>
<polygon fill="grey" stroke="grey" stroke-width="2" points="169.64,-46.09 173.51,-36.23 164.34,-41.53 169.64,-46.09"/>
</g>
<!-- 18&#45;&gt;17 -->
<g id="edge34" class="edge">
<title>18&#45;&gt;17</title>
<path fill="none" stroke="grey" stroke-width="2" d="M189.25,-359.7C189.36,-351.98 189.49,-342.71 189.61,-334.11"/>
<polygon fill="grey" stroke="grey" stroke-width="2" points="193.11,-334.15 189.76,-324.1 186.11,-334.05 193.11,-334.15"/>
</g>
<!-- 19&#45;&gt;18 -->
<g id="edge35" class="edge">
<title>19&#45;&gt;18</title>
<path fill="none" stroke="grey" stroke-width="2" d="M263.03,-431.88C250.45,-422.89 234.87,-411.76 221.25,-402.03"/>
<polygon fill="grey" stroke="grey" stroke-width="2" points="223.24,-399.15 213.07,-396.19 219.17,-404.85 223.24,-399.15"/>
</g>
<!-- 19&#45;&gt;20 -->
<g id="edge38" class="edge">
<title>19&#45;&gt;20</title>
<path fill="none" stroke="grey" stroke-width="2" d="M283.87,-431.85C277.11,-394.75 261.09,-306.81 252.94,-262.1"/>
<polygon fill="grey" stroke="grey" stroke-width="2" points="256.38,-261.44 251.14,-252.23 249.49,-262.7 256.38,-261.44"/>
</g>
<!-- 19&#45;&gt;21 -->
<g id="edge41" class="edge">
<title>19&#45;&gt;21</title>
<path fill="none" stroke="grey" stroke-width="2" d="M289.08,-431.86C293.35,-393.03 301.52,-295.59 287,-216 285.39,-207.2 282.4,-197.95 279.21,-189.7"/>
<polygon fill="grey" stroke="grey" stroke-width="2" points="282.35,-188.12 275.31,-180.21 275.88,-190.79 282.35,-188.12"/>
</g>
<!-- 22 -->
<g id="node23" class="node">
<title>22</title>
<path fill="none" stroke="#56d8c1" stroke-width="2" d="M378,-108C378,-108 268,-108 268,-108 262,-108 256,-102 256,-96 256,-96 256,-84 256,-84 256,-78 262,-72 268,-72 268,-72 378,-72 378,-72 384,-72 390,-78 390,-84 390,-84 390,-96 390,-96 390,-102 384,-108 378,-108"/>
<text text-anchor="middle" x="323" y="-87.5" font-family="sans" font-size="10.00">recombination_landscape</text>
</g>
<!-- 19&#45;&gt;22 -->
<g id="edge43" class="edge">
<title>19&#45;&gt;22</title>
<path fill="none" stroke="grey" stroke-width="2" d="M298.81,-431.96C315.51,-406.16 344,-355.08 344,-307 344,-307 344,-307 344,-233 344,-192.78 335.65,-146.84 329.49,-118.37"/>
<polygon fill="grey" stroke="grey" stroke-width="2" points="332.85,-117.36 327.25,-108.37 326.01,-118.89 332.85,-117.36"/>
</g>
<!-- 19&#45;&gt;23 -->
<g id="edge45" class="edge">
<title>19&#45;&gt;23</title>
<path fill="none" stroke="grey" stroke-width="2" d="M322.28,-431.81C362.87,-409.26 424,-365.58 424,-307 424,-307 424,-307 424,-233 424,-191.15 440.99,-145.1 453.35,-117.11"/>
<polygon fill="grey" stroke="grey" stroke-width="2" points="456.54,-118.56 457.5,-108.01 450.17,-115.66 456.54,-118.56"/>
</g>
<!-- 20&#45;&gt;0 -->
<g id="edge8" class="edge">
<title>20&#45;&gt;0</title>
<path fill="none" stroke="grey" stroke-width="2" d="M236.12,-215.58C229.83,-205.58 222.49,-192.54 218,-180 201.86,-134.88 194.83,-79.21 191.91,-46.56"/>
<polygon fill="grey" stroke="grey" stroke-width="2" points="195.38,-46.09 191.07,-36.41 188.41,-46.67 195.38,-46.09"/>
</g>
<!-- 20&#45;&gt;21 -->
<g id="edge39" class="edge">
<title>20&#45;&gt;21</title>
<path fill="none" stroke="grey" stroke-width="2" d="M252.7,-215.7C254.81,-207.9 257.36,-198.51 259.72,-189.83"/>
<polygon fill="grey" stroke="grey" stroke-width="2" points="263.12,-190.67 262.36,-180.1 256.36,-188.84 263.12,-190.67"/>
</g>
<!-- 21&#45;&gt;0 -->
<g id="edge9" class="edge">
<title>21&#45;&gt;0</title>
<path fill="none" stroke="grey" stroke-width="2" d="M257.71,-143.87C244.42,-119.35 219.84,-74.03 204.24,-45.26"/>
<polygon fill="grey" stroke="grey" stroke-width="2" points="207.16,-43.31 199.32,-36.19 201.01,-46.65 207.16,-43.31"/>
</g>
<!-- 21&#45;&gt;22 -->
<g id="edge42" class="edge">
<title>21&#45;&gt;22</title>
<path fill="none" stroke="grey" stroke-width="2" d="M280.84,-143.7C287.49,-135.39 295.58,-125.28 302.89,-116.14"/>
<polygon fill="grey" stroke="grey" stroke-width="2" points="305.8,-118.1 309.32,-108.1 300.34,-113.73 305.8,-118.1"/>
</g>
<!-- 21&#45;&gt;23 -->
<g id="edge44" class="edge">
<title>21&#45;&gt;23</title>
<path fill="none" stroke="grey" stroke-width="2" d="M307.27,-146.83C336.09,-136.7 375.33,-122.89 407.58,-111.55"/>
<polygon fill="grey" stroke="grey" stroke-width="2" points="409.08,-114.73 417.35,-108.11 406.76,-108.13 409.08,-114.73"/>
</g>
<!-- 22&#45;&gt;0 -->
<g id="edge10" class="edge">
<title>22&#45;&gt;0</title>
<path fill="none" stroke="grey" stroke-width="2" d="M290.46,-71.88C270.99,-61.63 246.21,-48.58 226.13,-38.01"/>
<polygon fill="grey" stroke="grey" stroke-width="2" points="227.75,-34.91 217.27,-33.35 224.49,-41.11 227.75,-34.91"/>
</g>
<!-- 23&#45;&gt;0 -->
<g id="edge11" class="edge">
<title>23&#45;&gt;0</title>
<path fill="none" stroke="grey" stroke-width="2" d="M408.48,-74.41C353.99,-60.59 273.76,-40.24 227.21,-28.44"/>
<polygon fill="grey" stroke="grey" stroke-width="2" points="227.8,-24.98 217.25,-25.91 226.08,-31.76 227.8,-24.98"/>
</g>
</g>
</svg>
