<?xml version="1.0" encoding="UTF-8" standalone="no"?>
<!DOCTYPE svg PUBLIC "-//W3C//DTD SVG 1.1//EN"
 "http://www.w3.org/Graphics/SVG/1.1/DTD/svg11.dtd">
<!-- Generated by graphviz version 2.43.0 (0)
 -->
<!-- Title: snakemake_dag Pages: 1 -->
<svg width="113pt" height="332pt"
 viewBox="0.00 0.00 113.00 332.00" xmlns="http://www.w3.org/2000/svg" xmlns:xlink="http://www.w3.org/1999/xlink">
<g id="graph0" class="graph" transform="scale(1 1) rotate(0) translate(4 328)">
<title>snakemake_dag</title>
<polygon fill="white" stroke="transparent" points="-4,4 -4,-328 109,-328 109,4 -4,4"/>
<!-- 0 -->
<g id="node1" class="node">
<title>0</title>
<path fill="none" stroke="#d85656" stroke-width="2" d="M55,-36C55,-36 25,-36 25,-36 19,-36 13,-30 13,-24 13,-24 13,-12 13,-12 13,-6 19,0 25,0 25,0 55,0 55,0 61,0 67,-6 67,-12 67,-12 67,-24 67,-24 67,-30 61,-36 55,-36"/>
<text text-anchor="middle" x="40" y="-15.5" font-family="sans" font-size="10.00">all</text>
</g>
<!-- 1 -->
<g id="node2" class="node">
<title>1</title>
<path fill="none" stroke="#56d88a" stroke-width="2" d="M68,-180C68,-180 12,-180 12,-180 6,-180 0,-174 0,-168 0,-168 0,-156 0,-156 0,-150 6,-144 12,-144 12,-144 68,-144 68,-144 74,-144 80,-150 80,-156 80,-156 80,-168 80,-168 80,-174 74,-180 68,-180"/>
<text text-anchor="middle" x="40" y="-159.5" font-family="sans" font-size="10.00">starsolo_align</text>
</g>
<!-- 1&#45;&gt;0 -->
<g id="edge2" class="edge">
<title>1&#45;&gt;0</title>
<path fill="none" stroke="grey" stroke-width="2" d="M35.13,-143.98C32.44,-133.67 29.36,-120.19 28,-108 26.22,-92.1 26.22,-87.9 28,-72 28.96,-63.43 30.76,-54.22 32.69,-45.93"/>
<polygon fill="grey" stroke="grey" stroke-width="2" points="36.13,-46.57 35.13,-36.02 29.34,-44.89 36.13,-46.57"/>
</g>
<!-- 4 -->
<g id="node5" class="node">
<title>4</title>
<path fill="none" stroke="#56c1d8" stroke-width="2" d="M93,-108C93,-108 49,-108 49,-108 43,-108 37,-102 37,-96 37,-96 37,-84 37,-84 37,-78 43,-72 49,-72 49,-72 93,-72 93,-72 99,-72 105,-78 105,-84 105,-84 105,-96 105,-96 105,-102 99,-108 93,-108"/>
<text text-anchor="middle" x="71" y="-87.5" font-family="sans" font-size="10.00">starsolo_qc</text>
</g>
<!-- 1&#45;&gt;4 -->
<g id="edge5" class="edge">
<title>1&#45;&gt;4</title>
<path fill="none" stroke="grey" stroke-width="2" d="M47.66,-143.7C51.19,-135.73 55.46,-126.1 59.37,-117.26"/>
<polygon fill="grey" stroke="grey" stroke-width="2" points="62.58,-118.67 63.43,-108.1 56.18,-115.83 62.58,-118.67"/>
</g>
<!-- 2 -->
<g id="node3" class="node">
<title>2</title>
<path fill="none" stroke="#88d856" stroke-width="2" d="M60,-252C60,-252 20,-252 20,-252 14,-252 8,-246 8,-240 8,-240 8,-228 8,-228 8,-222 14,-216 20,-216 20,-216 60,-216 60,-216 66,-216 72,-222 72,-228 72,-228 72,-240 72,-240 72,-246 66,-252 60,-252"/>
<text text-anchor="middle" x="40" y="-231.5" font-family="sans" font-size="10.00">star_index</text>
</g>
<!-- 2&#45;&gt;1 -->
<g id="edge3" class="edge">
<title>2&#45;&gt;1</title>
<path fill="none" stroke="grey" stroke-width="2" d="M40,-215.7C40,-207.98 40,-198.71 40,-190.11"/>
<polygon fill="grey" stroke="grey" stroke-width="2" points="43.5,-190.1 40,-180.1 36.5,-190.1 43.5,-190.1"/>
</g>
<!-- 3 -->
<g id="node4" class="node">
<title>3</title>
<path fill="none" stroke="#d8bc56" stroke-width="2" d="M59,-324C59,-324 21,-324 21,-324 15,-324 9,-318 9,-312 9,-312 9,-300 9,-300 9,-294 15,-288 21,-288 21,-288 59,-288 59,-288 65,-288 71,-294 71,-300 71,-300 71,-312 71,-312 71,-318 65,-324 59,-324"/>
<text text-anchor="middle" x="40" y="-303.5" font-family="sans" font-size="10.00">gff_to_gtf</text>
</g>
<!-- 3&#45;&gt;2 -->
<g id="edge4" class="edge">
<title>3&#45;&gt;2</title>
<path fill="none" stroke="grey" stroke-width="2" d="M40,-287.7C40,-279.98 40,-270.71 40,-262.11"/>
<polygon fill="grey" stroke="grey" stroke-width="2" points="43.5,-262.1 40,-252.1 36.5,-262.1 43.5,-262.1"/>
</g>
<!-- 4&#45;&gt;0 -->
<g id="edge1" class="edge">
<title>4&#45;&gt;0</title>
<path fill="none" stroke="grey" stroke-width="2" d="M63.34,-71.7C59.81,-63.73 55.54,-54.1 51.63,-45.26"/>
<polygon fill="grey" stroke="grey" stroke-width="2" points="54.82,-43.83 47.57,-36.1 48.42,-46.67 54.82,-43.83"/>
</g>
</g>
</svg>
