<?xml version="1.0" encoding="UTF-8" standalone="no"?>
<!DOCTYPE svg PUBLIC "-//W3C//DTD SVG 1.1//EN"
 "http://www.w3.org/Graphics/SVG/1.1/DTD/svg11.dtd">
<!-- Generated by graphviz version 2.43.0 (0)
 -->
<!-- Title: snakemake_dag Pages: 1 -->
<svg width="382pt" height="620pt"
 viewBox="0.00 0.00 381.50 620.00" xmlns="http://www.w3.org/2000/svg" xmlns:xlink="http://www.w3.org/1999/xlink">
<g id="graph0" class="graph" transform="scale(1 1) rotate(0) translate(4 616)">
<title>snakemake_dag</title>
<polygon fill="white" stroke="transparent" points="-4,4 -4,-616 377.5,-616 377.5,4 -4,4"/>
<!-- 0 -->
<g id="node1" class="node">
<title>0</title>
<path fill="none" stroke="#d85656" stroke-width="2" d="M250.5,-36C250.5,-36 220.5,-36 220.5,-36 214.5,-36 208.5,-30 208.5,-24 208.5,-24 208.5,-12 208.5,-12 208.5,-6 214.5,0 220.5,0 220.5,0 250.5,0 250.5,0 256.5,0 262.5,-6 262.5,-12 262.5,-12 262.5,-24 262.5,-24 262.5,-30 256.5,-36 250.5,-36"/>
<text text-anchor="middle" x="235.5" y="-15.5" font-family="sans" font-size="10.00">all</text>
</g>
<!-- 1 -->
<g id="node2" class="node">
<title>1</title>
<path fill="none" stroke="#56b9d8" stroke-width="2" d="M340.5,-468C340.5,-468 284.5,-468 284.5,-468 278.5,-468 272.5,-462 272.5,-456 272.5,-456 272.5,-444 272.5,-444 272.5,-438 278.5,-432 284.5,-432 284.5,-432 340.5,-432 340.5,-432 346.5,-432 352.5,-438 352.5,-444 352.5,-444 352.5,-456 352.5,-456 352.5,-462 346.5,-468 340.5,-468"/>
<text text-anchor="middle" x="312.5" y="-447.5" font-family="sans" font-size="10.00">starsolo_align</text>
</g>
<!-- 1&#45;&gt;0 -->
<g id="edge7" class="edge">
<title>1&#45;&gt;0</title>
<path fill="none" stroke="grey" stroke-width="2" d="M329.54,-431.76C338.25,-422.02 348.3,-409.17 354.5,-396 371.74,-359.41 373.5,-347.45 373.5,-307 373.5,-307 373.5,-307 373.5,-161 373.5,-102.51 312.55,-59.05 271.66,-36.47"/>
<polygon fill="grey" stroke="grey" stroke-width="2" points="273.23,-33.34 262.76,-31.71 269.93,-39.51 273.23,-33.34"/>
</g>
<!-- 4 -->
<g id="node5" class="node">
<title>4</title>
<path fill="none" stroke="#d87556" stroke-width="2" d="M333,-396C333,-396 292,-396 292,-396 286,-396 280,-390 280,-384 280,-384 280,-372 280,-372 280,-366 286,-360 292,-360 292,-360 333,-360 333,-360 339,-360 345,-366 345,-372 345,-372 345,-384 345,-384 345,-390 339,-396 333,-396"/>
<text text-anchor="middle" x="312.5" y="-375.5" font-family="sans" font-size="10.00">cell_calling</text>
</g>
<!-- 1&#45;&gt;4 -->
<g id="edge10" class="edge">
<title>1&#45;&gt;4</title>
<path fill="none" stroke="grey" stroke-width="2" d="M312.5,-431.7C312.5,-423.98 312.5,-414.71 312.5,-406.11"/>
<polygon fill="grey" stroke="grey" stroke-width="2" points="316,-406.1 312.5,-396.1 309,-406.1 316,-406.1"/>
</g>
<!-- 10 -->
<g id="node11" class="node">
<title>10</title>
<path fill="none" stroke="#d89556" stroke-width="2" d="M288.5,-324C288.5,-324 214.5,-324 214.5,-324 208.5,-324 202.5,-318 202.5,-312 202.5,-312 202.5,-300 202.5,-300 202.5,-294 208.5,-288 214.5,-288 214.5,-288 288.5,-288 288.5,-288 294.5,-288 300.5,-294 300.5,-300 300.5,-300 300.5,-312 300.5,-312 300.5,-318 294.5,-324 288.5,-324"/>
<text text-anchor="middle" x="251.5" y="-303.5" font-family="sans" font-size="10.00">cell_snp_counting</text>
</g>
<!-- 1&#45;&gt;10 -->
<g id="edge15" class="edge">
<title>1&#45;&gt;10</title>
<path fill="none" stroke="grey" stroke-width="2" d="M295.46,-431.76C286.75,-422.02 276.7,-409.17 270.5,-396 261.27,-376.4 256.48,-352.27 254.02,-334.08"/>
<polygon fill="grey" stroke="grey" stroke-width="2" points="257.49,-333.65 252.82,-324.14 250.54,-334.49 257.49,-333.65"/>
</g>
<!-- 2 -->
<g id="node3" class="node">
<title>2</title>
<path fill="none" stroke="#56d8d8" stroke-width="2" d="M332.5,-540C332.5,-540 292.5,-540 292.5,-540 286.5,-540 280.5,-534 280.5,-528 280.5,-528 280.5,-516 280.5,-516 280.5,-510 286.5,-504 292.5,-504 292.5,-504 332.5,-504 332.5,-504 338.5,-504 344.5,-510 344.5,-516 344.5,-516 344.5,-528 344.5,-528 344.5,-534 338.5,-540 332.5,-540"/>
<text text-anchor="middle" x="312.5" y="-519.5" font-family="sans" font-size="10.00">star_index</text>
</g>
<!-- 2&#45;&gt;1 -->
<g id="edge8" class="edge">
<title>2&#45;&gt;1</title>
<path fill="none" stroke="grey" stroke-width="2" d="M312.5,-503.7C312.5,-495.98 312.5,-486.71 312.5,-478.11"/>
<polygon fill="grey" stroke="grey" stroke-width="2" points="316,-478.1 312.5,-468.1 309,-478.1 316,-478.1"/>
</g>
<!-- 3 -->
<g id="node4" class="node">
<title>3</title>
<path fill="none" stroke="#97d856" stroke-width="2" d="M331.5,-612C331.5,-612 293.5,-612 293.5,-612 287.5,-612 281.5,-606 281.5,-600 281.5,-600 281.5,-588 281.5,-588 281.5,-582 287.5,-576 293.5,-576 293.5,-576 331.5,-576 331.5,-576 337.5,-576 343.5,-582 343.5,-588 343.5,-588 343.5,-600 343.5,-600 343.5,-606 337.5,-612 331.5,-612"/>
<text text-anchor="middle" x="312.5" y="-591.5" font-family="sans" font-size="10.00">gff_to_gtf</text>
</g>
<!-- 3&#45;&gt;2 -->
<g id="edge9" class="edge">
<title>3&#45;&gt;2</title>
<path fill="none" stroke="grey" stroke-width="2" d="M312.5,-575.7C312.5,-567.98 312.5,-558.71 312.5,-550.11"/>
<polygon fill="grey" stroke="grey" stroke-width="2" points="316,-550.1 312.5,-540.1 309,-550.1 316,-550.1"/>
</g>
<!-- 4&#45;&gt;0 -->
<g id="edge3" class="edge">
<title>4&#45;&gt;0</title>
<path fill="none" stroke="grey" stroke-width="2" d="M317.15,-359.66C323.88,-333.05 335.5,-280.45 335.5,-235 335.5,-235 335.5,-235 335.5,-161 335.5,-112.49 296.01,-68.87 266.66,-43.16"/>
<polygon fill="grey" stroke="grey" stroke-width="2" points="268.58,-40.19 258.69,-36.39 264.05,-45.53 268.58,-40.19"/>
</g>
<!-- 4&#45;&gt;10 -->
<g id="edge16" class="edge">
<title>4&#45;&gt;10</title>
<path fill="none" stroke="grey" stroke-width="2" d="M297.42,-359.7C290.11,-351.3 281.19,-341.07 273.16,-331.86"/>
<polygon fill="grey" stroke="grey" stroke-width="2" points="275.61,-329.34 266.41,-324.1 270.34,-333.94 275.61,-329.34"/>
</g>
<!-- 5 -->
<g id="node6" class="node">
<title>5</title>
<path fill="none" stroke="#d6d856" stroke-width="2" d="M165,-396C165,-396 106,-396 106,-396 100,-396 94,-390 94,-384 94,-384 94,-372 94,-372 94,-366 100,-360 106,-360 106,-360 165,-360 165,-360 171,-360 177,-366 177,-372 177,-372 177,-384 177,-384 177,-390 171,-396 165,-396"/>
<text text-anchor="middle" x="135.5" y="-375.5" font-family="sans" font-size="10.00">filter_markers</text>
</g>
<!-- 5&#45;&gt;0 -->
<g id="edge5" class="edge">
<title>5&#45;&gt;0</title>
<path fill="none" stroke="grey" stroke-width="2" d="M135.5,-359.95C135.5,-333.29 135.5,-280.11 135.5,-235 135.5,-235 135.5,-235 135.5,-161 135.5,-112.49 174.99,-68.87 204.34,-43.16"/>
<polygon fill="grey" stroke="grey" stroke-width="2" points="206.95,-45.53 212.31,-36.39 202.42,-40.19 206.95,-45.53"/>
</g>
<!-- 5&#45;&gt;10 -->
<g id="edge17" class="edge">
<title>5&#45;&gt;10</title>
<path fill="none" stroke="grey" stroke-width="2" d="M163.88,-359.88C179.04,-350.72 197.91,-339.34 214.24,-329.48"/>
<polygon fill="grey" stroke="grey" stroke-width="2" points="216.26,-332.35 223.01,-324.19 212.64,-326.36 216.26,-332.35"/>
</g>
<!-- 6 -->
<g id="node7" class="node">
<title>6</title>
<path fill="none" stroke="#59d856" stroke-width="2" d="M139,-468C139,-468 56,-468 56,-468 50,-468 44,-462 44,-456 44,-456 44,-444 44,-444 44,-438 50,-432 56,-432 56,-432 139,-432 139,-432 145,-432 151,-438 151,-444 151,-444 151,-456 151,-456 151,-462 145,-468 139,-468"/>
<text text-anchor="middle" x="97.5" y="-447.5" font-family="sans" font-size="10.00">hifi_variants_merge</text>
</g>
<!-- 6&#45;&gt;5 -->
<g id="edge11" class="edge">
<title>6&#45;&gt;5</title>
<path fill="none" stroke="grey" stroke-width="2" d="M106.89,-431.7C111.26,-423.64 116.56,-413.89 121.4,-404.98"/>
<polygon fill="grey" stroke="grey" stroke-width="2" points="124.52,-406.56 126.21,-396.1 118.37,-403.22 124.52,-406.56"/>
</g>
<!-- 9 -->
<g id="node10" class="node">
<title>9</title>
<path fill="none" stroke="#56d89a" stroke-width="2" d="M95,-324C95,-324 12,-324 12,-324 6,-324 0,-318 0,-312 0,-312 0,-300 0,-300 0,-294 6,-288 12,-288 12,-288 95,-288 95,-288 101,-288 107,-294 107,-300 107,-300 107,-312 107,-312 107,-318 101,-324 95,-324"/>
<text text-anchor="middle" x="53.5" y="-303.5" font-family="sans" font-size="10.00">marker_diagnostics</text>
</g>
<!-- 6&#45;&gt;9 -->
<g id="edge14" class="edge">
<title>6&#45;&gt;9</title>
<path fill="none" stroke="grey" stroke-width="2" d="M92.19,-431.87C84.66,-407.56 70.8,-362.82 61.87,-334.01"/>
<polygon fill="grey" stroke="grey" stroke-width="2" points="65.13,-332.71 58.83,-324.19 58.44,-334.78 65.13,-332.71"/>
</g>
<!-- 7 -->
<g id="node8" class="node">
<title>7</title>
<path fill="none" stroke="#56d87b" stroke-width="2" d="M149,-540C149,-540 46,-540 46,-540 40,-540 34,-534 34,-528 34,-528 34,-516 34,-516 34,-510 40,-504 46,-504 46,-504 149,-504 149,-504 155,-504 161,-510 161,-516 161,-516 161,-528 161,-528 161,-534 155,-540 149,-540"/>
<text text-anchor="middle" x="97.5" y="-519.5" font-family="sans" font-size="10.00">hifi_variants_per_chrom</text>
</g>
<!-- 7&#45;&gt;6 -->
<g id="edge12" class="edge">
<title>7&#45;&gt;6</title>
<path fill="none" stroke="grey" stroke-width="2" d="M97.5,-503.7C97.5,-495.98 97.5,-486.71 97.5,-478.11"/>
<polygon fill="grey" stroke="grey" stroke-width="2" points="101,-478.1 97.5,-468.1 94,-478.1 101,-478.1"/>
</g>
<!-- 8 -->
<g id="node9" class="node">
<title>8</title>
<path fill="none" stroke="#78d856" stroke-width="2" d="M114,-612C114,-612 81,-612 81,-612 75,-612 69,-606 69,-600 69,-600 69,-588 69,-588 69,-582 75,-576 81,-576 81,-576 114,-576 114,-576 120,-576 126,-582 126,-588 126,-588 126,-600 126,-600 126,-606 120,-612 114,-612"/>
<text text-anchor="middle" x="97.5" y="-591.5" font-family="sans" font-size="10.00">hifi_align</text>
</g>
<!-- 8&#45;&gt;7 -->
<g id="edge13" class="edge">
<title>8&#45;&gt;7</title>
<path fill="none" stroke="grey" stroke-width="2" d="M97.5,-575.7C97.5,-567.98 97.5,-558.71 97.5,-550.11"/>
<polygon fill="grey" stroke="grey" stroke-width="2" points="101,-550.1 97.5,-540.1 94,-550.1 101,-550.1"/>
</g>
<!-- 9&#45;&gt;0 -->
<g id="edge1" class="edge">
<title>9&#45;&gt;0</title>
<path fill="none" stroke="grey" stroke-width="2" d="M53.86,-287.83C55.61,-245.91 65.62,-137.04 121.5,-72 141.25,-49.01 173.12,-35.37 198.15,-27.69"/>
<polygon fill="grey" stroke="grey" stroke-width="2" points="199.4,-30.98 208.05,-24.85 197.47,-24.25 199.4,-30.98"/>
</g>
<!-- 10&#45;&gt;0 -->
<g id="edge2" class="edge">
<title>10&#45;&gt;0</title>
<path fill="none" stroke="grey" stroke-width="2" d="M223.7,-287.87C211.73,-278.84 199,-266.59 192.5,-252 159.92,-178.94 165.76,-147.4 192.5,-72 196.16,-61.68 202.79,-51.9 209.76,-43.61"/>
<polygon fill="grey" stroke="grey" stroke-width="2" points="212.37,-45.94 216.46,-36.16 207.17,-41.26 212.37,-45.94"/>
</g>
<!-- 13 -->
<g id="node14" class="node">
<title>13</title>
<path fill="none" stroke="#d8b456" stroke-width="2" d="M293,-252C293,-252 214,-252 214,-252 208,-252 202,-246 202,-240 202,-240 202,-228 202,-228 202,-222 208,-216 214,-216 214,-216 293,-216 293,-216 299,-216 305,-222 305,-228 305,-228 305,-240 305,-240 305,-246 299,-252 293,-252"/>
<text text-anchor="middle" x="253.5" y="-231.5" font-family="sans" font-size="10.00">cellsnp_to_per_cell</text>
</g>
<!-- 10&#45;&gt;13 -->
<g id="edge20" class="edge">
<title>10&#45;&gt;13</title>
<path fill="none" stroke="grey" stroke-width="2" d="M251.99,-287.7C252.21,-279.98 252.48,-270.71 252.73,-262.11"/>
<polygon fill="grey" stroke="grey" stroke-width="2" points="256.22,-262.2 253.01,-252.1 249.23,-262 256.22,-262.2"/>
</g>
<!-- 11 -->
<g id="node12" class="node">
<title>11</title>
<path fill="none" stroke="#56d8b9" stroke-width="2" d="M257.5,-108C257.5,-108 213.5,-108 213.5,-108 207.5,-108 201.5,-102 201.5,-96 201.5,-96 201.5,-84 201.5,-84 201.5,-78 207.5,-72 213.5,-72 213.5,-72 257.5,-72 257.5,-72 263.5,-72 269.5,-78 269.5,-84 269.5,-84 269.5,-96 269.5,-96 269.5,-102 263.5,-108 257.5,-108"/>
<text text-anchor="middle" x="235.5" y="-87.5" font-family="sans" font-size="10.00">select_cells</text>
</g>
<!-- 11&#45;&gt;0 -->
<g id="edge6" class="edge">
<title>11&#45;&gt;0</title>
<path fill="none" stroke="grey" stroke-width="2" d="M235.5,-71.7C235.5,-63.98 235.5,-54.71 235.5,-46.11"/>
<polygon fill="grey" stroke="grey" stroke-width="2" points="239,-46.1 235.5,-36.1 232,-46.1 239,-46.1"/>
</g>
<!-- 12 -->
<g id="node13" class="node">
<title>12</title>
<path fill="none" stroke="#567bd8" stroke-width="2" d="M292,-180C292,-180 215,-180 215,-180 209,-180 203,-174 203,-168 203,-168 203,-156 203,-156 203,-150 209,-144 215,-144 215,-144 292,-144 292,-144 298,-144 304,-150 304,-156 304,-156 304,-168 304,-168 304,-174 298,-180 292,-180"/>
<text text-anchor="middle" x="253.5" y="-159.5" font-family="sans" font-size="10.00">switch_diagnostics</text>
</g>
<!-- 12&#45;&gt;0 -->
<g id="edge4" class="edge">
<title>12&#45;&gt;0</title>
<path fill="none" stroke="grey" stroke-width="2" d="M264.65,-143.73C274.87,-125.64 287.19,-96.5 278.5,-72 274.84,-61.68 268.21,-51.9 261.24,-43.61"/>
<polygon fill="grey" stroke="grey" stroke-width="2" points="263.83,-41.26 254.54,-36.16 258.63,-45.94 263.83,-41.26"/>
</g>
<!-- 12&#45;&gt;11 -->
<g id="edge18" class="edge">
<title>12&#45;&gt;11</title>
<path fill="none" stroke="grey" stroke-width="2" d="M249.05,-143.7C247.05,-135.9 244.63,-126.51 242.4,-117.83"/>
<polygon fill="grey" stroke="grey" stroke-width="2" points="245.78,-116.92 239.9,-108.1 239,-118.66 245.78,-116.92"/>
</g>
<!-- 13&#45;&gt;12 -->
<g id="edge19" class="edge">
<title>13&#45;&gt;12</title>
<path fill="none" stroke="grey" stroke-width="2" d="M253.5,-215.7C253.5,-207.98 253.5,-198.71 253.5,-190.11"/>
<polygon fill="grey" stroke="grey" stroke-width="2" points="257,-190.1 253.5,-180.1 250,-190.1 257,-190.1"/>
</g>
</g>
</svg>
