<?xml version="1.0" encoding="UTF-8" standalone="no"?>
<!DOCTYPE svg PUBLIC "-//W3C//DTD SVG 1.1//EN"
 "http://www.w3.org/Graphics/SVG/1.1/DTD/svg11.dtd">
<!-- Generated by graphviz version 2.43.0 (0)
 -->
<!-- Title: snakemake_dag Pages: 1 -->
<svg width="574pt" height="836pt"
 viewBox="0.00 0.00 573.50 836.00" xmlns="http://www.w3.org/2000/svg" xmlns:xlink="http://www.w3.org/1999/xlink">
<g id="graph0" class="graph" transform="scale(1 1) rotate(0) translate(4 832)">
<title>snakemake_dag</title>
<polygon fill="white" stroke="transparent" points="-4,4 -4,-832 569.5,-832 569.5,4 -4,4"/>
<!-- 0 -->
<g id="node1" class="node">
<title>0</title>
<path fill="none" stroke="#d85656" stroke-width="2" d="M295.5,-36C295.5,-36 265.5,-36 265.5,-36 259.5,-36 253.5,-30 253.5,-24 253.5,-24 253.5,-12 253.5,-12 253.5,-6 259.5,0 265.5,0 265.5,0 295.5,0 295.5,0 301.5,0 307.5,-6 307.5,-12 307.5,-12 307.5,-24 307.5,-24 307.5,-30 301.5,-36 295.5,-36"/>
<text text-anchor="middle" x="280.5" y="-15.5" font-family="sans" font-size="10.00">all</text>
</g>
<!-- 1 -->
<g id="node2" class="node">
<title>1</title>
<path fill="none" stroke="#56a9d8" stroke-width="2" d="M532.5,-684C532.5,-684 476.5,-684 476.5,-684 470.5,-684 464.5,-678 464.5,-672 464.5,-672 464.5,-660 464.5,-660 464.5,-654 470.5,-648 476.5,-648 476.5,-648 532.5,-648 532.5,-648 538.5,-648 544.5,-654 544.5,-660 544.5,-660 544.5,-672 544.5,-672 544.5,-678 538.5,-684 532.5,-684"/>
<text text-anchor="middle" x="504.5" y="-663.5" font-family="sans" font-size="10.00">starsolo_align</text>
</g>
<!-- 1&#45;&gt;0 -->
<g id="edge1" class="edge">
<title>1&#45;&gt;0</title>
<path fill="none" stroke="grey" stroke-width="2" d="M521.54,-647.76C530.25,-638.02 540.3,-625.17 546.5,-612 563.74,-575.41 565.5,-563.45 565.5,-523 565.5,-523 565.5,-523 565.5,-161 565.5,-117.07 556.98,-99.22 522.5,-72 491.13,-47.24 377.77,-30.5 318,-23.18"/>
<polygon fill="grey" stroke="grey" stroke-width="2" points="318.18,-19.68 307.84,-21.97 317.35,-26.63 318.18,-19.68"/>
</g>
<!-- 4 -->
<g id="node5" class="node">
<title>4</title>
<path fill="none" stroke="#d87556" stroke-width="2" d="M525,-612C525,-612 484,-612 484,-612 478,-612 472,-606 472,-600 472,-600 472,-588 472,-588 472,-582 478,-576 484,-576 484,-576 525,-576 525,-576 531,-576 537,-582 537,-588 537,-588 537,-600 537,-600 537,-606 531,-612 525,-612"/>
<text text-anchor="middle" x="504.5" y="-591.5" font-family="sans" font-size="10.00">cell_calling</text>
</g>
<!-- 1&#45;&gt;4 -->
<g id="edge13" class="edge">
<title>1&#45;&gt;4</title>
<path fill="none" stroke="grey" stroke-width="2" d="M504.5,-647.7C504.5,-639.98 504.5,-630.71 504.5,-622.11"/>
<polygon fill="grey" stroke="grey" stroke-width="2" points="508,-622.1 504.5,-612.1 501,-622.1 508,-622.1"/>
</g>
<!-- 10 -->
<g id="node11" class="node">
<title>10</title>
<path fill="none" stroke="#d88d56" stroke-width="2" d="M480.5,-540C480.5,-540 406.5,-540 406.5,-540 400.5,-540 394.5,-534 394.5,-528 394.5,-528 394.5,-516 394.5,-516 394.5,-510 400.5,-504 406.5,-504 406.5,-504 480.5,-504 480.5,-504 486.5,-504 492.5,-510 492.5,-516 492.5,-516 492.5,-528 492.5,-528 492.5,-534 486.5,-540 480.5,-540"/>
<text text-anchor="middle" x="443.5" y="-519.5" font-family="sans" font-size="10.00">cell_snp_counting</text>
</g>
<!-- 1&#45;&gt;10 -->
<g id="edge19" class="edge">
<title>1&#45;&gt;10</title>
<path fill="none" stroke="grey" stroke-width="2" d="M487.46,-647.76C478.75,-638.02 468.7,-625.17 462.5,-612 453.27,-592.4 448.48,-568.27 446.02,-550.08"/>
<polygon fill="grey" stroke="grey" stroke-width="2" points="449.49,-549.65 444.82,-540.14 442.54,-550.49 449.49,-549.65"/>
</g>
<!-- 2 -->
<g id="node3" class="node">
<title>2</title>
<path fill="none" stroke="#56c1d8" stroke-width="2" d="M524.5,-756C524.5,-756 484.5,-756 484.5,-756 478.5,-756 472.5,-750 472.5,-744 472.5,-744 472.5,-732 472.5,-732 472.5,-726 478.5,-720 484.5,-720 484.5,-720 524.5,-720 524.5,-720 530.5,-720 536.5,-726 536.5,-732 536.5,-732 536.5,-744 536.5,-744 536.5,-750 530.5,-756 524.5,-756"/>
<text text-anchor="middle" x="504.5" y="-735.5" font-family="sans" font-size="10.00">star_index</text>
</g>
<!-- 2&#45;&gt;1 -->
<g id="edge11" class="edge">
<title>2&#45;&gt;1</title>
<path fill="none" stroke="grey" stroke-width="2" d="M504.5,-719.7C504.5,-711.98 504.5,-702.71 504.5,-694.11"/>
<polygon fill="grey" stroke="grey" stroke-width="2" points="508,-694.1 504.5,-684.1 501,-694.1 508,-694.1"/>
</g>
<!-- 3 -->
<g id="node4" class="node">
<title>3</title>
<path fill="none" stroke="#80d856" stroke-width="2" d="M523.5,-828C523.5,-828 485.5,-828 485.5,-828 479.5,-828 473.5,-822 473.5,-816 473.5,-816 473.5,-804 473.5,-804 473.5,-798 479.5,-792 485.5,-792 485.5,-792 523.5,-792 523.5,-792 529.5,-792 535.5,-798 535.5,-804 535.5,-804 535.5,-816 535.5,-816 535.5,-822 529.5,-828 523.5,-828"/>
<text text-anchor="middle" x="504.5" y="-807.5" font-family="sans" font-size="10.00">gff_to_gtf</text>
</g>
<!-- 3&#45;&gt;2 -->
<g id="edge12" class="edge">
<title>3&#45;&gt;2</title>
<path fill="none" stroke="grey" stroke-width="2" d="M504.5,-791.7C504.5,-783.98 504.5,-774.71 504.5,-766.11"/>
<polygon fill="grey" stroke="grey" stroke-width="2" points="508,-766.1 504.5,-756.1 501,-766.1 508,-766.1"/>
</g>
<!-- 4&#45;&gt;0 -->
<g id="edge3" class="edge">
<title>4&#45;&gt;0</title>
<path fill="none" stroke="grey" stroke-width="2" d="M509.15,-575.66C515.88,-549.05 527.5,-496.45 527.5,-451 527.5,-451 527.5,-451 527.5,-161 527.5,-118.81 525.96,-100.11 494.5,-72 445.15,-27.9 364.83,-19.19 317.89,-18.19"/>
<polygon fill="grey" stroke="grey" stroke-width="2" points="317.88,-14.69 307.84,-18.08 317.81,-21.69 317.88,-14.69"/>
</g>
<!-- 4&#45;&gt;10 -->
<g id="edge18" class="edge">
<title>4&#45;&gt;10</title>
<path fill="none" stroke="grey" stroke-width="2" d="M489.42,-575.7C482.11,-567.3 473.19,-557.07 465.16,-547.86"/>
<polygon fill="grey" stroke="grey" stroke-width="2" points="467.61,-545.34 458.41,-540.1 462.34,-549.94 467.61,-545.34"/>
</g>
<!-- 5 -->
<g id="node6" class="node">
<title>5</title>
<path fill="none" stroke="#b6d856" stroke-width="2" d="M165,-612C165,-612 106,-612 106,-612 100,-612 94,-606 94,-600 94,-600 94,-588 94,-588 94,-582 100,-576 106,-576 106,-576 165,-576 165,-576 171,-576 177,-582 177,-588 177,-588 177,-600 177,-600 177,-606 171,-612 165,-612"/>
<text text-anchor="middle" x="135.5" y="-591.5" font-family="sans" font-size="10.00">filter_markers</text>
</g>
<!-- 5&#45;&gt;0 -->
<g id="edge7" class="edge">
<title>5&#45;&gt;0</title>
<path fill="none" stroke="grey" stroke-width="2" d="M135.5,-575.95C135.5,-549.29 135.5,-496.11 135.5,-451 135.5,-451 135.5,-451 135.5,-161 135.5,-115.63 153.37,-104.03 185.5,-72 202.09,-55.46 224.91,-42.5 244.02,-33.54"/>
<polygon fill="grey" stroke="grey" stroke-width="2" points="245.66,-36.64 253.34,-29.35 242.79,-30.26 245.66,-36.64"/>
</g>
<!-- 5&#45;&gt;10 -->
<g id="edge20" class="edge">
<title>5&#45;&gt;10</title>
<path fill="none" stroke="grey" stroke-width="2" d="M177.04,-583.56C230.47,-571.42 323.61,-550.25 384.4,-536.43"/>
<polygon fill="grey" stroke="grey" stroke-width="2" points="385.27,-539.82 394.24,-534.19 383.72,-533 385.27,-539.82"/>
</g>
<!-- 6 -->
<g id="node7" class="node">
<title>6</title>
<path fill="none" stroke="#56d863" stroke-width="2" d="M139,-684C139,-684 56,-684 56,-684 50,-684 44,-678 44,-672 44,-672 44,-660 44,-660 44,-654 50,-648 56,-648 56,-648 139,-648 139,-648 145,-648 151,-654 151,-660 151,-660 151,-672 151,-672 151,-678 145,-684 139,-684"/>
<text text-anchor="middle" x="97.5" y="-663.5" font-family="sans" font-size="10.00">hifi_variants_merge</text>
</g>
<!-- 6&#45;&gt;5 -->
<g id="edge14" class="edge">
<title>6&#45;&gt;5</title>
<path fill="none" stroke="grey" stroke-width="2" d="M106.89,-647.7C111.26,-639.64 116.56,-629.89 121.4,-620.98"/>
<polygon fill="grey" stroke="grey" stroke-width="2" points="124.52,-622.56 126.21,-612.1 118.37,-619.22 124.52,-622.56"/>
</g>
<!-- 9 -->
<g id="node10" class="node">
<title>9</title>
<path fill="none" stroke="#56d89a" stroke-width="2" d="M95,-540C95,-540 12,-540 12,-540 6,-540 0,-534 0,-528 0,-528 0,-516 0,-516 0,-510 6,-504 12,-504 12,-504 95,-504 95,-504 101,-504 107,-510 107,-516 107,-516 107,-528 107,-528 107,-534 101,-540 95,-540"/>
<text text-anchor="middle" x="53.5" y="-519.5" font-family="sans" font-size="10.00">marker_diagnostics</text>
</g>
<!-- 6&#45;&gt;9 -->
<g id="edge17" class="edge">
<title>6&#45;&gt;9</title>
<path fill="none" stroke="grey" stroke-width="2" d="M92.19,-647.87C84.66,-623.56 70.8,-578.82 61.87,-550.01"/>
<polygon fill="grey" stroke="grey" stroke-width="2" points="65.13,-548.71 58.83,-540.19 58.44,-550.78 65.13,-548.71"/>
</g>
<!-- 7 -->
<g id="node8" class="node">
<title>7</title>
<path fill="none" stroke="#56d882" stroke-width="2" d="M149,-756C149,-756 46,-756 46,-756 40,-756 34,-750 34,-744 34,-744 34,-732 34,-732 34,-726 40,-720 46,-720 46,-720 149,-720 149,-720 155,-720 161,-726 161,-732 161,-732 161,-744 161,-744 161,-750 155,-756 149,-756"/>
<text text-anchor="middle" x="97.5" y="-735.5" font-family="sans" font-size="10.00">hifi_variants_per_chrom</text>
</g>
<!-- 7&#45;&gt;6 -->
<g id="edge15" class="edge">
<title>7&#45;&gt;6</title>
<path fill="none" stroke="grey" stroke-width="2" d="M97.5,-719.7C97.5,-711.98 97.5,-702.71 97.5,-694.11"/>
<polygon fill="grey" stroke="grey" stroke-width="2" points="101,-694.1 97.5,-684.1 94,-694.1 101,-694.1"/>
</g>
<!-- 8 -->
<g id="node9" class="node">
<title>8</title>
<path fill="none" stroke="#61d856" stroke-width="2" d="M114,-828C114,-828 81,-828 81,-828 75,-828 69,-822 69,-816 69,-816 69,-804 69,-804 69,-798 75,-792 81,-792 81,-792 114,-792 114,-792 120,-792 126,-798 126,-804 126,-804 126,-816 126,-816 126,-822 120,-828 114,-828"/>
<text text-anchor="middle" x="97.5" y="-807.5" font-family="sans" font-size="10.00">hifi_align</text>
</g>
<!-- 8&#45;&gt;7 -->
<g id="edge16" class="edge">
<title>8&#45;&gt;7</title>
<path fill="none" stroke="grey" stroke-width="2" d="M97.5,-791.7C97.5,-783.98 97.5,-774.71 97.5,-766.11"/>
<polygon fill="grey" stroke="grey" stroke-width="2" points="101,-766.1 97.5,-756.1 94,-766.1 101,-766.1"/>
</g>
<!-- 9&#45;&gt;0 -->
<g id="edge4" class="edge">
<title>9&#45;&gt;0</title>
<path fill="none" stroke="grey" stroke-width="2" d="M57.95,-503.65C64.38,-477.02 75.5,-424.4 75.5,-379 75.5,-379 75.5,-379 75.5,-161 75.5,-116.47 87.67,-100.95 121.5,-72 156.16,-42.34 208,-29.13 242.98,-23.35"/>
<polygon fill="grey" stroke="grey" stroke-width="2" points="243.9,-26.75 253.26,-21.78 242.85,-19.83 243.9,-26.75"/>
</g>
<!-- 10&#45;&gt;0 -->
<g id="edge8" class="edge">
<title>10&#45;&gt;0</title>
<path fill="none" stroke="grey" stroke-width="2" d="M453.03,-503.66C466.5,-477.47 489.5,-425.9 489.5,-379 489.5,-379 489.5,-379 489.5,-161 489.5,-120.55 498.2,-101.47 470.5,-72 430.84,-29.82 360.7,-20.24 317.64,-18.59"/>
<polygon fill="grey" stroke="grey" stroke-width="2" points="317.65,-15.09 307.57,-18.33 317.47,-22.09 317.65,-15.09"/>
</g>
<!-- 13 -->
<g id="node14" class="node">
<title>13</title>
<path fill="none" stroke="#d8ac56" stroke-width="2" d="M391,-468C391,-468 312,-468 312,-468 306,-468 300,-462 300,-456 300,-456 300,-444 300,-444 300,-438 306,-432 312,-432 312,-432 391,-432 391,-432 397,-432 403,-438 403,-444 403,-444 403,-456 403,-456 403,-462 397,-468 391,-468"/>
<text text-anchor="middle" x="351.5" y="-447.5" font-family="sans" font-size="10.00">cellsnp_to_per_cell</text>
</g>
<!-- 10&#45;&gt;13 -->
<g id="edge23" class="edge">
<title>10&#45;&gt;13</title>
<path fill="none" stroke="grey" stroke-width="2" d="M420.76,-503.7C409.06,-494.8 394.64,-483.82 381.99,-474.2"/>
<polygon fill="grey" stroke="grey" stroke-width="2" points="384.06,-471.37 373.98,-468.1 379.82,-476.94 384.06,-471.37"/>
</g>
<!-- 11 -->
<g id="node12" class="node">
<title>11</title>
<path fill="none" stroke="#56d8d0" stroke-width="2" d="M311.5,-324C311.5,-324 267.5,-324 267.5,-324 261.5,-324 255.5,-318 255.5,-312 255.5,-312 255.5,-300 255.5,-300 255.5,-294 261.5,-288 267.5,-288 267.5,-288 311.5,-288 311.5,-288 317.5,-288 323.5,-294 323.5,-300 323.5,-300 323.5,-312 323.5,-312 323.5,-318 317.5,-324 311.5,-324"/>
<text text-anchor="middle" x="289.5" y="-303.5" font-family="sans" font-size="10.00">select_cells</text>
</g>
<!-- 11&#45;&gt;0 -->
<g id="edge6" class="edge">
<title>11&#45;&gt;0</title>
<path fill="none" stroke="grey" stroke-width="2" d="M301.85,-287.72C321.29,-258.36 355.35,-196.78 340.5,-144 335.42,-125.95 327.09,-124.67 318.5,-108 307.96,-87.56 297.83,-63.53 290.68,-45.59"/>
<polygon fill="grey" stroke="grey" stroke-width="2" points="293.85,-44.09 286.93,-36.07 287.33,-46.65 293.85,-44.09"/>
</g>
<!-- 14 -->
<g id="node15" class="node">
<title>14</title>
<path fill="none" stroke="#ced856" stroke-width="2" d="M249.5,-252C249.5,-252 213.5,-252 213.5,-252 207.5,-252 201.5,-246 201.5,-240 201.5,-240 201.5,-228 201.5,-228 201.5,-222 207.5,-216 213.5,-216 213.5,-216 249.5,-216 249.5,-216 255.5,-216 261.5,-222 261.5,-228 261.5,-228 261.5,-240 261.5,-240 261.5,-246 255.5,-252 249.5,-252"/>
<text text-anchor="middle" x="231.5" y="-231.5" font-family="sans" font-size="10.00">co_calling</text>
</g>
<!-- 11&#45;&gt;14 -->
<g id="edge24" class="edge">
<title>11&#45;&gt;14</title>
<path fill="none" stroke="grey" stroke-width="2" d="M275.16,-287.7C268.21,-279.3 259.73,-269.07 252.1,-259.86"/>
<polygon fill="grey" stroke="grey" stroke-width="2" points="254.75,-257.57 245.67,-252.1 249.36,-262.04 254.75,-257.57"/>
</g>
<!-- 15 -->
<g id="node16" class="node">
<title>15</title>
<path fill="none" stroke="#d8c356" stroke-width="2" d="M319.5,-180C319.5,-180 263.5,-180 263.5,-180 257.5,-180 251.5,-174 251.5,-168 251.5,-168 251.5,-156 251.5,-156 251.5,-150 257.5,-144 263.5,-144 263.5,-144 319.5,-144 319.5,-144 325.5,-144 331.5,-150 331.5,-156 331.5,-156 331.5,-168 331.5,-168 331.5,-174 325.5,-180 319.5,-180"/>
<text text-anchor="middle" x="291.5" y="-159.5" font-family="sans" font-size="10.00">co_aggregate</text>
</g>
<!-- 11&#45;&gt;15 -->
<g id="edge26" class="edge">
<title>11&#45;&gt;15</title>
<path fill="none" stroke="grey" stroke-width="2" d="M289.74,-287.87C290.08,-263.67 290.71,-219.21 291.11,-190.39"/>
<polygon fill="grey" stroke="grey" stroke-width="2" points="294.62,-190.24 291.26,-180.19 287.62,-190.14 294.62,-190.24"/>
</g>
<!-- 12 -->
<g id="node13" class="node">
<title>12</title>
<path fill="none" stroke="#5673d8" stroke-width="2" d="M253,-396C253,-396 176,-396 176,-396 170,-396 164,-390 164,-384 164,-384 164,-372 164,-372 164,-366 170,-360 176,-360 176,-360 253,-360 253,-360 259,-360 265,-366 265,-372 265,-372 265,-384 265,-384 265,-390 259,-396 253,-396"/>
<text text-anchor="middle" x="214.5" y="-375.5" font-family="sans" font-size="10.00">switch_diagnostics</text>
</g>
<!-- 12&#45;&gt;0 -->
<g id="edge2" class="edge">
<title>12&#45;&gt;0</title>
<path fill="none" stroke="grey" stroke-width="2" d="M206.2,-359.97C194.22,-333.77 173.5,-281.7 173.5,-235 173.5,-235 173.5,-235 173.5,-161 173.5,-111.13 216.12,-67.65 247.56,-42.35"/>
<polygon fill="grey" stroke="grey" stroke-width="2" points="249.95,-44.93 255.68,-36.02 245.65,-39.41 249.95,-44.93"/>
</g>
<!-- 12&#45;&gt;11 -->
<g id="edge21" class="edge">
<title>12&#45;&gt;11</title>
<path fill="none" stroke="grey" stroke-width="2" d="M233.04,-359.7C242.3,-351.05 253.66,-340.45 263.76,-331.03"/>
<polygon fill="grey" stroke="grey" stroke-width="2" points="266.25,-333.49 271.17,-324.1 261.48,-328.37 266.25,-333.49"/>
</g>
<!-- 13&#45;&gt;12 -->
<g id="edge22" class="edge">
<title>13&#45;&gt;12</title>
<path fill="none" stroke="grey" stroke-width="2" d="M317.99,-431.88C299.66,-422.51 276.76,-410.81 257.17,-400.8"/>
<polygon fill="grey" stroke="grey" stroke-width="2" points="258.64,-397.62 248.14,-396.19 255.46,-403.86 258.64,-397.62"/>
</g>
<!-- 13&#45;&gt;14 -->
<g id="edge25" class="edge">
<title>13&#45;&gt;14</title>
<path fill="none" stroke="grey" stroke-width="2" d="M336.16,-431.78C308.42,-400.49 252.21,-336.35 246.5,-324 237.53,-304.59 233.86,-280.59 232.39,-262.4"/>
<polygon fill="grey" stroke="grey" stroke-width="2" points="235.87,-261.94 231.74,-252.18 228.88,-262.38 235.87,-261.94"/>
</g>
<!-- 13&#45;&gt;15 -->
<g id="edge27" class="edge">
<title>13&#45;&gt;15</title>
<path fill="none" stroke="grey" stroke-width="2" d="M350.6,-431.89C348.8,-402.28 343.9,-339.67 332.5,-288 324.84,-253.31 311.35,-214.62 301.94,-189.6"/>
<polygon fill="grey" stroke="grey" stroke-width="2" points="305.15,-188.18 298.31,-180.09 298.61,-190.68 305.15,-188.18"/>
</g>
<!-- 16 -->
<g id="node17" class="node">
<title>16</title>
<path fill="none" stroke="#56d8b9" stroke-width="2" d="M449.5,-108C449.5,-108 339.5,-108 339.5,-108 333.5,-108 327.5,-102 327.5,-96 327.5,-96 327.5,-84 327.5,-84 327.5,-78 333.5,-72 339.5,-72 339.5,-72 449.5,-72 449.5,-72 455.5,-72 461.5,-78 461.5,-84 461.5,-84 461.5,-96 461.5,-96 461.5,-102 455.5,-108 449.5,-108"/>
<text text-anchor="middle" x="394.5" y="-87.5" font-family="sans" font-size="10.00">recombination_landscape</text>
</g>
<!-- 13&#45;&gt;16 -->
<g id="edge29" class="edge">
<title>13&#45;&gt;16</title>
<path fill="none" stroke="grey" stroke-width="2" d="M362.27,-431.81C377.51,-405.83 403.5,-354.52 403.5,-307 403.5,-307 403.5,-307 403.5,-233 403.5,-192.92 399.88,-146.59 397.24,-118.05"/>
<polygon fill="grey" stroke="grey" stroke-width="2" points="400.71,-117.65 396.28,-108.03 393.75,-118.31 400.71,-117.65"/>
</g>
<!-- 14&#45;&gt;0 -->
<g id="edge9" class="edge">
<title>14&#45;&gt;0</title>
<path fill="none" stroke="grey" stroke-width="2" d="M232.74,-215.79C234.25,-197.76 237.27,-168.67 242.5,-144 249.82,-109.48 262.28,-70.76 270.92,-45.68"/>
<polygon fill="grey" stroke="grey" stroke-width="2" points="274.26,-46.74 274.26,-36.14 267.65,-44.43 274.26,-46.74"/>
</g>
<!-- 14&#45;&gt;15 -->
<g id="edge28" class="edge">
<title>14&#45;&gt;15</title>
<path fill="none" stroke="grey" stroke-width="2" d="M246.33,-215.7C253.52,-207.3 262.3,-197.07 270.19,-187.86"/>
<polygon fill="grey" stroke="grey" stroke-width="2" points="272.99,-189.97 276.84,-180.1 267.67,-185.42 272.99,-189.97"/>
</g>
<!-- 15&#45;&gt;0 -->
<g id="edge10" class="edge">
<title>15&#45;&gt;0</title>
<path fill="none" stroke="grey" stroke-width="2" d="M289.31,-143.84C288.05,-133.48 286.52,-120 285.5,-108 283.75,-87.31 282.46,-63.87 281.63,-46.23"/>
<polygon fill="grey" stroke="grey" stroke-width="2" points="285.12,-45.91 281.17,-36.08 278.13,-46.23 285.12,-45.91"/>
</g>
<!-- 15&#45;&gt;16 -->
<g id="edge30" class="edge">
<title>15&#45;&gt;16</title>
<path fill="none" stroke="grey" stroke-width="2" d="M316.7,-143.88C329.91,-134.89 346.29,-123.76 360.61,-114.03"/>
<polygon fill="grey" stroke="grey" stroke-width="2" points="362.9,-116.71 369.21,-108.19 358.97,-110.92 362.9,-116.71"/>
</g>
<!-- 16&#45;&gt;0 -->
<g id="edge5" class="edge">
<title>16&#45;&gt;0</title>
<path fill="none" stroke="grey" stroke-width="2" d="M366.61,-71.88C351.48,-62.59 332.62,-51 316.4,-41.04"/>
<polygon fill="grey" stroke="grey" stroke-width="2" points="318.06,-37.96 307.71,-35.71 314.4,-43.92 318.06,-37.96"/>
</g>
</g>
</svg>
