<?xml version="1.0" encoding="UTF-8" standalone="no"?>
<!DOCTYPE svg PUBLIC "-//W3C//DTD SVG 1.1//EN"
 "http://www.w3.org/Graphics/SVG/1.1/DTD/svg11.dtd">
<!-- Generated by graphviz version 2.43.0 (0)
 -->
<!-- Title: snakemake_dag Pages: 1 -->
<svg width="323pt" height="404pt"
 viewBox="0.00 0.00 322.75 404.00" xmlns="http://www.w3.org/2000/svg" xmlns:xlink="http://www.w3.org/1999/xlink">
<g id="graph0" class="graph" transform="scale(1 1) rotate(0) translate(4 400)">
<title>snakemake_dag</title>
<polygon fill="white" stroke="transparent" points="-4,4 -4,-400 318.75,-400 318.75,4 -4,4"/>
<!-- 0 -->
<g id="node1" class="node">
<title>0</title>
<path fill="none" stroke="#d85656" stroke-width="2" d="M227.5,-36C227.5,-36 197.5,-36 197.5,-36 191.5,-36 185.5,-30 185.5,-24 185.5,-24 185.5,-12 185.5,-12 185.5,-6 191.5,0 197.5,0 197.5,0 227.5,0 227.5,0 233.5,0 239.5,-6 239.5,-12 239.5,-12 239.5,-24 239.5,-24 239.5,-30 233.5,-36 227.5,-36"/>
<text text-anchor="middle" x="212.5" y="-15.5" font-family="sans" font-size="10.00">all</text>
</g>
<!-- 1 -->
<g id="node2" class="node">
<title>1</title>
<path fill="none" stroke="#56c1d8" stroke-width="2" d="M297.5,-252C297.5,-252 241.5,-252 241.5,-252 235.5,-252 229.5,-246 229.5,-240 229.5,-240 229.5,-228 229.5,-228 229.5,-222 235.5,-216 241.5,-216 241.5,-216 297.5,-216 297.5,-216 303.5,-216 309.5,-222 309.5,-228 309.5,-228 309.5,-240 309.5,-240 309.5,-246 303.5,-252 297.5,-252"/>
<text text-anchor="middle" x="269.5" y="-231.5" font-family="sans" font-size="10.00">starsolo_align</text>
</g>
<!-- 1&#45;&gt;0 -->
<g id="edge3" class="edge">
<title>1&#45;&gt;0</title>
<path fill="none" stroke="grey" stroke-width="2" d="M288.1,-215.76C297.03,-206.2 306.79,-193.53 311.5,-180 316.76,-164.89 313.96,-159.81 311.5,-144 306.33,-110.81 308.44,-99.03 288.5,-72 278.06,-57.85 262.68,-46.12 248.48,-37.32"/>
<polygon fill="grey" stroke="grey" stroke-width="2" points="250.24,-34.3 239.85,-32.23 246.68,-40.33 250.24,-34.3"/>
</g>
<!-- 4 -->
<g id="node5" class="node">
<title>4</title>
<path fill="none" stroke="#d87556" stroke-width="2" d="M290,-180C290,-180 249,-180 249,-180 243,-180 237,-174 237,-168 237,-168 237,-156 237,-156 237,-150 243,-144 249,-144 249,-144 290,-144 290,-144 296,-144 302,-150 302,-156 302,-156 302,-168 302,-168 302,-174 296,-180 290,-180"/>
<text text-anchor="middle" x="269.5" y="-159.5" font-family="sans" font-size="10.00">cell_calling</text>
</g>
<!-- 1&#45;&gt;4 -->
<g id="edge8" class="edge">
<title>1&#45;&gt;4</title>
<path fill="none" stroke="grey" stroke-width="2" d="M269.5,-215.7C269.5,-207.98 269.5,-198.71 269.5,-190.11"/>
<polygon fill="grey" stroke="grey" stroke-width="2" points="273,-190.1 269.5,-180.1 266,-190.1 273,-190.1"/>
</g>
<!-- 10 -->
<g id="node11" class="node">
<title>10</title>
<path fill="none" stroke="#d89c56" stroke-width="2" d="M249.5,-108C249.5,-108 175.5,-108 175.5,-108 169.5,-108 163.5,-102 163.5,-96 163.5,-96 163.5,-84 163.5,-84 163.5,-78 169.5,-72 175.5,-72 175.5,-72 249.5,-72 249.5,-72 255.5,-72 261.5,-78 261.5,-84 261.5,-84 261.5,-96 261.5,-96 261.5,-102 255.5,-108 249.5,-108"/>
<text text-anchor="middle" x="212.5" y="-87.5" font-family="sans" font-size="10.00">cell_snp_counting</text>
</g>
<!-- 1&#45;&gt;10 -->
<g id="edge15" class="edge">
<title>1&#45;&gt;10</title>
<path fill="none" stroke="grey" stroke-width="2" d="M252.24,-215.87C243.46,-206.15 233.42,-193.3 227.5,-180 218.81,-160.46 215.12,-136.47 213.57,-118.32"/>
<polygon fill="grey" stroke="grey" stroke-width="2" points="217.05,-117.86 212.87,-108.12 210.07,-118.34 217.05,-117.86"/>
</g>
<!-- 2 -->
<g id="node3" class="node">
<title>2</title>
<path fill="none" stroke="#56d8d0" stroke-width="2" d="M289.5,-324C289.5,-324 249.5,-324 249.5,-324 243.5,-324 237.5,-318 237.5,-312 237.5,-312 237.5,-300 237.5,-300 237.5,-294 243.5,-288 249.5,-288 249.5,-288 289.5,-288 289.5,-288 295.5,-288 301.5,-294 301.5,-300 301.5,-300 301.5,-312 301.5,-312 301.5,-318 295.5,-324 289.5,-324"/>
<text text-anchor="middle" x="269.5" y="-303.5" font-family="sans" font-size="10.00">star_index</text>
</g>
<!-- 2&#45;&gt;1 -->
<g id="edge6" class="edge">
<title>2&#45;&gt;1</title>
<path fill="none" stroke="grey" stroke-width="2" d="M269.5,-287.7C269.5,-279.98 269.5,-270.71 269.5,-262.11"/>
<polygon fill="grey" stroke="grey" stroke-width="2" points="273,-262.1 269.5,-252.1 266,-262.1 273,-262.1"/>
</g>
<!-- 3 -->
<g id="node4" class="node">
<title>3</title>
<path fill="none" stroke="#88d856" stroke-width="2" d="M288.5,-396C288.5,-396 250.5,-396 250.5,-396 244.5,-396 238.5,-390 238.5,-384 238.5,-384 238.5,-372 238.5,-372 238.5,-366 244.5,-360 250.5,-360 250.5,-360 288.5,-360 288.5,-360 294.5,-360 300.5,-366 300.5,-372 300.5,-372 300.5,-384 300.5,-384 300.5,-390 294.5,-396 288.5,-396"/>
<text text-anchor="middle" x="269.5" y="-375.5" font-family="sans" font-size="10.00">gff_to_gtf</text>
</g>
<!-- 3&#45;&gt;2 -->
<g id="edge7" class="edge">
<title>3&#45;&gt;2</title>
<path fill="none" stroke="grey" stroke-width="2" d="M269.5,-359.7C269.5,-351.98 269.5,-342.71 269.5,-334.11"/>
<polygon fill="grey" stroke="grey" stroke-width="2" points="273,-334.1 269.5,-324.1 266,-334.1 273,-334.1"/>
</g>
<!-- 4&#45;&gt;0 -->
<g id="edge5" class="edge">
<title>4&#45;&gt;0</title>
<path fill="none" stroke="grey" stroke-width="2" d="M273.76,-143.76C277.44,-125.19 280.72,-95.19 270.5,-72 265.47,-60.59 256.64,-50.57 247.36,-42.41"/>
<polygon fill="grey" stroke="grey" stroke-width="2" points="249.49,-39.62 239.54,-35.99 245.05,-45.04 249.49,-39.62"/>
</g>
<!-- 4&#45;&gt;10 -->
<g id="edge14" class="edge">
<title>4&#45;&gt;10</title>
<path fill="none" stroke="grey" stroke-width="2" d="M255.41,-143.7C248.58,-135.3 240.24,-125.07 232.74,-115.86"/>
<polygon fill="grey" stroke="grey" stroke-width="2" points="235.46,-113.65 226.43,-108.1 230.03,-118.07 235.46,-113.65"/>
</g>
<!-- 5 -->
<g id="node6" class="node">
<title>5</title>
<path fill="none" stroke="#ced856" stroke-width="2" d="M165,-180C165,-180 106,-180 106,-180 100,-180 94,-174 94,-168 94,-168 94,-156 94,-156 94,-150 100,-144 106,-144 106,-144 165,-144 165,-144 171,-144 177,-150 177,-156 177,-156 177,-168 177,-168 177,-174 171,-180 165,-180"/>
<text text-anchor="middle" x="135.5" y="-159.5" font-family="sans" font-size="10.00">filter_markers</text>
</g>
<!-- 5&#45;&gt;0 -->
<g id="edge4" class="edge">
<title>5&#45;&gt;0</title>
<path fill="none" stroke="grey" stroke-width="2" d="M136.08,-143.83C137.39,-125.05 141.54,-94.62 154.5,-72 160.81,-61 170.18,-51 179.56,-42.72"/>
<polygon fill="grey" stroke="grey" stroke-width="2" points="181.95,-45.29 187.38,-36.19 177.46,-39.92 181.95,-45.29"/>
</g>
<!-- 5&#45;&gt;10 -->
<g id="edge13" class="edge">
<title>5&#45;&gt;10</title>
<path fill="none" stroke="grey" stroke-width="2" d="M154.53,-143.7C164.04,-135.05 175.71,-124.45 186.07,-115.03"/>
<polygon fill="grey" stroke="grey" stroke-width="2" points="188.64,-117.42 193.69,-108.1 183.93,-112.24 188.64,-117.42"/>
</g>
<!-- 6 -->
<g id="node7" class="node">
<title>6</title>
<path fill="none" stroke="#56d86b" stroke-width="2" d="M139,-252C139,-252 56,-252 56,-252 50,-252 44,-246 44,-240 44,-240 44,-228 44,-228 44,-222 50,-216 56,-216 56,-216 139,-216 139,-216 145,-216 151,-222 151,-228 151,-228 151,-240 151,-240 151,-246 145,-252 139,-252"/>
<text text-anchor="middle" x="97.5" y="-231.5" font-family="sans" font-size="10.00">hifi_variants_merge</text>
</g>
<!-- 6&#45;&gt;5 -->
<g id="edge9" class="edge">
<title>6&#45;&gt;5</title>
<path fill="none" stroke="grey" stroke-width="2" d="M106.89,-215.7C111.26,-207.64 116.56,-197.89 121.4,-188.98"/>
<polygon fill="grey" stroke="grey" stroke-width="2" points="124.52,-190.56 126.21,-180.1 118.37,-187.22 124.52,-190.56"/>
</g>
<!-- 9 -->
<g id="node10" class="node">
<title>9</title>
<path fill="none" stroke="#56d8a9" stroke-width="2" d="M95,-108C95,-108 12,-108 12,-108 6,-108 0,-102 0,-96 0,-96 0,-84 0,-84 0,-78 6,-72 12,-72 12,-72 95,-72 95,-72 101,-72 107,-78 107,-84 107,-84 107,-96 107,-96 107,-102 101,-108 95,-108"/>
<text text-anchor="middle" x="53.5" y="-87.5" font-family="sans" font-size="10.00">marker_diagnostics</text>
</g>
<!-- 6&#45;&gt;9 -->
<g id="edge12" class="edge">
<title>6&#45;&gt;9</title>
<path fill="none" stroke="grey" stroke-width="2" d="M92.19,-215.87C84.66,-191.56 70.8,-146.82 61.87,-118.01"/>
<polygon fill="grey" stroke="grey" stroke-width="2" points="65.13,-116.71 58.83,-108.19 58.44,-118.78 65.13,-116.71"/>
</g>
<!-- 7 -->
<g id="node8" class="node">
<title>7</title>
<path fill="none" stroke="#56d88a" stroke-width="2" d="M149,-324C149,-324 46,-324 46,-324 40,-324 34,-318 34,-312 34,-312 34,-300 34,-300 34,-294 40,-288 46,-288 46,-288 149,-288 149,-288 155,-288 161,-294 161,-300 161,-300 161,-312 161,-312 161,-318 155,-324 149,-324"/>
<text text-anchor="middle" x="97.5" y="-303.5" font-family="sans" font-size="10.00">hifi_variants_per_chrom</text>
</g>
<!-- 7&#45;&gt;6 -->
<g id="edge10" class="edge">
<title>7&#45;&gt;6</title>
<path fill="none" stroke="grey" stroke-width="2" d="M97.5,-287.7C97.5,-279.98 97.5,-270.71 97.5,-262.11"/>
<polygon fill="grey" stroke="grey" stroke-width="2" points="101,-262.1 97.5,-252.1 94,-262.1 101,-262.1"/>
</g>
<!-- 8 -->
<g id="node9" class="node">
<title>8</title>
<path fill="none" stroke="#68d856" stroke-width="2" d="M114,-396C114,-396 81,-396 81,-396 75,-396 69,-390 69,-384 69,-384 69,-372 69,-372 69,-366 75,-360 81,-360 81,-360 114,-360 114,-360 120,-360 126,-366 126,-372 126,-372 126,-384 126,-384 126,-390 120,-396 114,-396"/>
<text text-anchor="middle" x="97.5" y="-375.5" font-family="sans" font-size="10.00">hifi_align</text>
</g>
<!-- 8&#45;&gt;7 -->
<g id="edge11" class="edge">
<title>8&#45;&gt;7</title>
<path fill="none" stroke="grey" stroke-width="2" d="M97.5,-359.7C97.5,-351.98 97.5,-342.71 97.5,-334.11"/>
<polygon fill="grey" stroke="grey" stroke-width="2" points="101,-334.1 97.5,-324.1 94,-334.1 101,-334.1"/>
</g>
<!-- 9&#45;&gt;0 -->
<g id="edge1" class="edge">
<title>9&#45;&gt;0</title>
<path fill="none" stroke="grey" stroke-width="2" d="M92.4,-71.88C117.99,-60.61 151.27,-45.96 176.3,-34.94"/>
<polygon fill="grey" stroke="grey" stroke-width="2" points="177.72,-38.14 185.46,-30.9 174.9,-31.73 177.72,-38.14"/>
</g>
<!-- 10&#45;&gt;0 -->
<g id="edge2" class="edge">
<title>10&#45;&gt;0</title>
<path fill="none" stroke="grey" stroke-width="2" d="M212.5,-71.7C212.5,-63.98 212.5,-54.71 212.5,-46.11"/>
<polygon fill="grey" stroke="grey" stroke-width="2" points="216,-46.1 212.5,-36.1 209,-46.1 216,-46.1"/>
</g>
</g>
</svg>
