<?xml version="1.0" encoding="UTF-8" standalone="no"?>
<!DOCTYPE svg PUBLIC "-//W3C//DTD SVG 1.1//EN"
 "http://www.w3.org/Graphics/SVG/1.1/DTD/svg11.dtd">
<!-- Generated by graphviz version 2.43.0 (0)
 -->
<!-- Title: snakemake_dag Pages: 1 -->
<svg width="488pt" height="764pt"
 viewBox="0.00 0.00 487.50 764.00" xmlns="http://www.w3.org/2000/svg" xmlns:xlink="http://www.w3.org/1999/xlink">
<g id="graph0" class="graph" transform="scale(1 1) rotate(0) translate(4 760)">
<title>snakemake_dag</title>
<polygon fill="white" stroke="transparent" points="-4,4 -4,-760 483.5,-760 483.5,4 -4,4"/>
<!-- 0 -->
<g id="node1" class="node">
<title>0</title>
<path fill="none" stroke="#d85656" stroke-width="2" d="M167,-36C167,-36 137,-36 137,-36 131,-36 125,-30 125,-24 125,-24 125,-12 125,-12 125,-6 131,0 137,0 137,0 167,0 167,0 173,0 179,-6 179,-12 179,-12 179,-24 179,-24 179,-30 173,-36 167,-36"/>
<text text-anchor="middle" x="152" y="-15.5" font-family="sans" font-size="10.00">all</text>
</g>
<!-- 1 -->
<g id="node2" class="node">
<title>1</title>
<path fill="none" stroke="#56a9d8" stroke-width="2" d="M89,-612C89,-612 33,-612 33,-612 27,-612 21,-606 21,-600 21,-600 21,-588 21,-588 21,-582 27,-576 33,-576 33,-576 89,-576 89,-576 95,-576 101,-582 101,-588 101,-588 101,-600 101,-600 101,-606 95,-612 89,-612"/>
<text text-anchor="middle" x="61" y="-591.5" font-family="sans" font-size="10.00">starsolo_align</text>
</g>
<!-- 1&#45;&gt;0 -->
<g id="edge3" class="edge">
<title>1&#45;&gt;0</title>
<path fill="none" stroke="grey" stroke-width="2" d="M43.96,-575.76C35.25,-566.02 25.2,-553.17 19,-540 1.76,-503.41 0,-491.45 0,-451 0,-451 0,-451 0,-161 0,-115.41 18.17,-103.63 51,-72 69.34,-54.33 94.75,-41.03 115.49,-32.18"/>
<polygon fill="grey" stroke="grey" stroke-width="2" points="117.02,-35.34 124.95,-28.31 114.37,-28.86 117.02,-35.34"/>
</g>
<!-- 4 -->
<g id="node5" class="node">
<title>4</title>
<path fill="none" stroke="#d87556" stroke-width="2" d="M81.5,-540C81.5,-540 40.5,-540 40.5,-540 34.5,-540 28.5,-534 28.5,-528 28.5,-528 28.5,-516 28.5,-516 28.5,-510 34.5,-504 40.5,-504 40.5,-504 81.5,-504 81.5,-504 87.5,-504 93.5,-510 93.5,-516 93.5,-516 93.5,-528 93.5,-528 93.5,-534 87.5,-540 81.5,-540"/>
<text text-anchor="middle" x="61" y="-519.5" font-family="sans" font-size="10.00">cell_calling</text>
</g>
<!-- 1&#45;&gt;4 -->
<g id="edge12" class="edge">
<title>1&#45;&gt;4</title>
<path fill="none" stroke="grey" stroke-width="2" d="M61,-575.7C61,-567.98 61,-558.71 61,-550.11"/>
<polygon fill="grey" stroke="grey" stroke-width="2" points="64.5,-550.1 61,-540.1 57.5,-550.1 64.5,-550.1"/>
</g>
<!-- 10 -->
<g id="node11" class="node">
<title>10</title>
<path fill="none" stroke="#d88d56" stroke-width="2" d="M159,-468C159,-468 85,-468 85,-468 79,-468 73,-462 73,-456 73,-456 73,-444 73,-444 73,-438 79,-432 85,-432 85,-432 159,-432 159,-432 165,-432 171,-438 171,-444 171,-444 171,-456 171,-456 171,-462 165,-468 159,-468"/>
<text text-anchor="middle" x="122" y="-447.5" font-family="sans" font-size="10.00">cell_snp_counting</text>
</g>
<!-- 1&#45;&gt;10 -->
<g id="edge18" class="edge">
<title>1&#45;&gt;10</title>
<path fill="none" stroke="grey" stroke-width="2" d="M77.56,-575.67C86.05,-565.9 95.86,-553.05 102,-540 111.24,-520.35 116.32,-496.23 119.05,-478.05"/>
<polygon fill="grey" stroke="grey" stroke-width="2" points="122.52,-478.5 120.39,-468.12 115.58,-477.56 122.52,-478.5"/>
</g>
<!-- 2 -->
<g id="node3" class="node">
<title>2</title>
<path fill="none" stroke="#56c9d8" stroke-width="2" d="M81,-684C81,-684 41,-684 41,-684 35,-684 29,-678 29,-672 29,-672 29,-660 29,-660 29,-654 35,-648 41,-648 41,-648 81,-648 81,-648 87,-648 93,-654 93,-660 93,-660 93,-672 93,-672 93,-678 87,-684 81,-684"/>
<text text-anchor="middle" x="61" y="-663.5" font-family="sans" font-size="10.00">star_index</text>
</g>
<!-- 2&#45;&gt;1 -->
<g id="edge10" class="edge">
<title>2&#45;&gt;1</title>
<path fill="none" stroke="grey" stroke-width="2" d="M61,-647.7C61,-639.98 61,-630.71 61,-622.11"/>
<polygon fill="grey" stroke="grey" stroke-width="2" points="64.5,-622.1 61,-612.1 57.5,-622.1 64.5,-622.1"/>
</g>
<!-- 3 -->
<g id="node4" class="node">
<title>3</title>
<path fill="none" stroke="#70d856" stroke-width="2" d="M80,-756C80,-756 42,-756 42,-756 36,-756 30,-750 30,-744 30,-744 30,-732 30,-732 30,-726 36,-720 42,-720 42,-720 80,-720 80,-720 86,-720 92,-726 92,-732 92,-732 92,-744 92,-744 92,-750 86,-756 80,-756"/>
<text text-anchor="middle" x="61" y="-735.5" font-family="sans" font-size="10.00">gff_to_gtf</text>
</g>
<!-- 3&#45;&gt;2 -->
<g id="edge11" class="edge">
<title>3&#45;&gt;2</title>
<path fill="none" stroke="grey" stroke-width="2" d="M61,-719.7C61,-711.98 61,-702.71 61,-694.11"/>
<polygon fill="grey" stroke="grey" stroke-width="2" points="64.5,-694.1 61,-684.1 57.5,-694.1 64.5,-694.1"/>
</g>
<!-- 4&#45;&gt;0 -->
<g id="edge8" class="edge">
<title>4&#45;&gt;0</title>
<path fill="none" stroke="grey" stroke-width="2" d="M56.35,-503.66C49.62,-477.05 38,-424.45 38,-379 38,-379 38,-379 38,-161 38,-110 83.27,-66.88 116.76,-41.97"/>
<polygon fill="grey" stroke="grey" stroke-width="2" points="118.92,-44.73 124.98,-36.04 114.83,-39.05 118.92,-44.73"/>
</g>
<!-- 4&#45;&gt;10 -->
<g id="edge17" class="edge">
<title>4&#45;&gt;10</title>
<path fill="none" stroke="grey" stroke-width="2" d="M76.08,-503.7C83.39,-495.3 92.31,-485.07 100.34,-475.86"/>
<polygon fill="grey" stroke="grey" stroke-width="2" points="103.16,-477.94 107.09,-468.1 97.89,-473.34 103.16,-477.94"/>
</g>
<!-- 5 -->
<g id="node6" class="node">
<title>5</title>
<path fill="none" stroke="#afd856" stroke-width="2" d="M373.5,-540C373.5,-540 314.5,-540 314.5,-540 308.5,-540 302.5,-534 302.5,-528 302.5,-528 302.5,-516 302.5,-516 302.5,-510 308.5,-504 314.5,-504 314.5,-504 373.5,-504 373.5,-504 379.5,-504 385.5,-510 385.5,-516 385.5,-516 385.5,-528 385.5,-528 385.5,-534 379.5,-540 373.5,-540"/>
<text text-anchor="middle" x="344" y="-519.5" font-family="sans" font-size="10.00">filter_markers</text>
</g>
<!-- 5&#45;&gt;0 -->
<g id="edge5" class="edge">
<title>5&#45;&gt;0</title>
<path fill="none" stroke="grey" stroke-width="2" d="M344,-503.95C344,-477.29 344,-424.11 344,-379 344,-379 344,-379 344,-161 344,-114.73 325.5,-101.67 290,-72 260.76,-47.56 219.01,-33.64 189.1,-26.26"/>
<polygon fill="grey" stroke="grey" stroke-width="2" points="189.59,-22.78 179.05,-23.92 188,-29.6 189.59,-22.78"/>
</g>
<!-- 5&#45;&gt;10 -->
<g id="edge19" class="edge">
<title>5&#45;&gt;10</title>
<path fill="none" stroke="grey" stroke-width="2" d="M302.24,-507.83C268.12,-497.07 219.45,-481.73 181.28,-469.69"/>
<polygon fill="grey" stroke="grey" stroke-width="2" points="181.91,-466.22 171.32,-466.55 179.81,-472.9 181.91,-466.22"/>
</g>
<!-- 6 -->
<g id="node7" class="node">
<title>6</title>
<path fill="none" stroke="#56d873" stroke-width="2" d="M423.5,-612C423.5,-612 340.5,-612 340.5,-612 334.5,-612 328.5,-606 328.5,-600 328.5,-600 328.5,-588 328.5,-588 328.5,-582 334.5,-576 340.5,-576 340.5,-576 423.5,-576 423.5,-576 429.5,-576 435.5,-582 435.5,-588 435.5,-588 435.5,-600 435.5,-600 435.5,-606 429.5,-612 423.5,-612"/>
<text text-anchor="middle" x="382" y="-591.5" font-family="sans" font-size="10.00">hifi_variants_merge</text>
</g>
<!-- 6&#45;&gt;5 -->
<g id="edge13" class="edge">
<title>6&#45;&gt;5</title>
<path fill="none" stroke="grey" stroke-width="2" d="M372.61,-575.7C368.24,-567.64 362.94,-557.89 358.1,-548.98"/>
<polygon fill="grey" stroke="grey" stroke-width="2" points="361.13,-547.22 353.29,-540.1 354.98,-550.56 361.13,-547.22"/>
</g>
<!-- 9 -->
<g id="node10" class="node">
<title>9</title>
<path fill="none" stroke="#56d8a9" stroke-width="2" d="M467.5,-468C467.5,-468 384.5,-468 384.5,-468 378.5,-468 372.5,-462 372.5,-456 372.5,-456 372.5,-444 372.5,-444 372.5,-438 378.5,-432 384.5,-432 384.5,-432 467.5,-432 467.5,-432 473.5,-432 479.5,-438 479.5,-444 479.5,-444 479.5,-456 479.5,-456 479.5,-462 473.5,-468 467.5,-468"/>
<text text-anchor="middle" x="426" y="-447.5" font-family="sans" font-size="10.00">marker_diagnostics</text>
</g>
<!-- 6&#45;&gt;9 -->
<g id="edge16" class="edge">
<title>6&#45;&gt;9</title>
<path fill="none" stroke="grey" stroke-width="2" d="M387.31,-575.87C394.84,-551.56 408.7,-506.82 417.63,-478.01"/>
<polygon fill="grey" stroke="grey" stroke-width="2" points="421.06,-478.78 420.67,-468.19 414.37,-476.71 421.06,-478.78"/>
</g>
<!-- 7 -->
<g id="node8" class="node">
<title>7</title>
<path fill="none" stroke="#56d892" stroke-width="2" d="M433.5,-684C433.5,-684 330.5,-684 330.5,-684 324.5,-684 318.5,-678 318.5,-672 318.5,-672 318.5,-660 318.5,-660 318.5,-654 324.5,-648 330.5,-648 330.5,-648 433.5,-648 433.5,-648 439.5,-648 445.5,-654 445.5,-660 445.5,-660 445.5,-672 445.5,-672 445.5,-678 439.5,-684 433.5,-684"/>
<text text-anchor="middle" x="382" y="-663.5" font-family="sans" font-size="10.00">hifi_variants_per_chrom</text>
</g>
<!-- 7&#45;&gt;6 -->
<g id="edge14" class="edge">
<title>7&#45;&gt;6</title>
<path fill="none" stroke="grey" stroke-width="2" d="M382,-647.7C382,-639.98 382,-630.71 382,-622.11"/>
<polygon fill="grey" stroke="grey" stroke-width="2" points="385.5,-622.1 382,-612.1 378.5,-622.1 385.5,-622.1"/>
</g>
<!-- 8 -->
<g id="node9" class="node">
<title>8</title>
<path fill="none" stroke="#59d856" stroke-width="2" d="M398.5,-756C398.5,-756 365.5,-756 365.5,-756 359.5,-756 353.5,-750 353.5,-744 353.5,-744 353.5,-732 353.5,-732 353.5,-726 359.5,-720 365.5,-720 365.5,-720 398.5,-720 398.5,-720 404.5,-720 410.5,-726 410.5,-732 410.5,-732 410.5,-744 410.5,-744 410.5,-750 404.5,-756 398.5,-756"/>
<text text-anchor="middle" x="382" y="-735.5" font-family="sans" font-size="10.00">hifi_align</text>
</g>
<!-- 8&#45;&gt;7 -->
<g id="edge15" class="edge">
<title>8&#45;&gt;7</title>
<path fill="none" stroke="grey" stroke-width="2" d="M382,-719.7C382,-711.98 382,-702.71 382,-694.11"/>
<polygon fill="grey" stroke="grey" stroke-width="2" points="385.5,-694.1 382,-684.1 378.5,-694.1 385.5,-694.1"/>
</g>
<!-- 9&#45;&gt;0 -->
<g id="edge1" class="edge">
<title>9&#45;&gt;0</title>
<path fill="none" stroke="grey" stroke-width="2" d="M421.55,-431.65C415.12,-405.02 404,-352.4 404,-307 404,-307 404,-307 404,-161 404,-116.47 392.82,-99.75 358,-72 308.8,-32.8 233.87,-22.3 189.23,-19.66"/>
<polygon fill="grey" stroke="grey" stroke-width="2" points="189.27,-16.16 179.11,-19.17 188.93,-23.15 189.27,-16.16"/>
</g>
<!-- 10&#45;&gt;0 -->
<g id="edge6" class="edge">
<title>10&#45;&gt;0</title>
<path fill="none" stroke="grey" stroke-width="2" d="M112.47,-431.66C99,-405.47 76,-353.9 76,-307 76,-307 76,-307 76,-161 76,-115.64 106.52,-70.75 128.88,-43.95"/>
<polygon fill="grey" stroke="grey" stroke-width="2" points="131.64,-46.09 135.51,-36.23 126.34,-41.53 131.64,-46.09"/>
</g>
<!-- 13 -->
<g id="node14" class="node">
<title>13</title>
<path fill="none" stroke="#d8ac56" stroke-width="2" d="M238.5,-396C238.5,-396 159.5,-396 159.5,-396 153.5,-396 147.5,-390 147.5,-384 147.5,-384 147.5,-372 147.5,-372 147.5,-366 153.5,-360 159.5,-360 159.5,-360 238.5,-360 238.5,-360 244.5,-360 250.5,-366 250.5,-372 250.5,-372 250.5,-384 250.5,-384 250.5,-390 244.5,-396 238.5,-396"/>
<text text-anchor="middle" x="199" y="-375.5" font-family="sans" font-size="10.00">cellsnp_to_per_cell</text>
</g>
<!-- 10&#45;&gt;13 -->
<g id="edge22" class="edge">
<title>10&#45;&gt;13</title>
<path fill="none" stroke="grey" stroke-width="2" d="M141.03,-431.7C150.54,-423.05 162.21,-412.45 172.57,-403.03"/>
<polygon fill="grey" stroke="grey" stroke-width="2" points="175.14,-405.42 180.19,-396.1 170.43,-400.24 175.14,-405.42"/>
</g>
<!-- 11 -->
<g id="node12" class="node">
<title>11</title>
<path fill="none" stroke="#56d8c9" stroke-width="2" d="M198,-252C198,-252 154,-252 154,-252 148,-252 142,-246 142,-240 142,-240 142,-228 142,-228 142,-222 148,-216 154,-216 154,-216 198,-216 198,-216 204,-216 210,-222 210,-228 210,-228 210,-240 210,-240 210,-246 204,-252 198,-252"/>
<text text-anchor="middle" x="176" y="-231.5" font-family="sans" font-size="10.00">select_cells</text>
</g>
<!-- 11&#45;&gt;0 -->
<g id="edge7" class="edge">
<title>11&#45;&gt;0</title>
<path fill="none" stroke="grey" stroke-width="2" d="M174.08,-215.85C169.93,-178.83 160.1,-91.18 155.07,-46.39"/>
<polygon fill="grey" stroke="grey" stroke-width="2" points="158.53,-45.78 153.93,-36.23 151.57,-46.56 158.53,-45.78"/>
</g>
<!-- 14 -->
<g id="node15" class="node">
<title>14</title>
<path fill="none" stroke="#c6d856" stroke-width="2" d="M304,-180C304,-180 268,-180 268,-180 262,-180 256,-174 256,-168 256,-168 256,-156 256,-156 256,-150 262,-144 268,-144 268,-144 304,-144 304,-144 310,-144 316,-150 316,-156 316,-156 316,-168 316,-168 316,-174 310,-180 304,-180"/>
<text text-anchor="middle" x="286" y="-159.5" font-family="sans" font-size="10.00">co_calling</text>
</g>
<!-- 11&#45;&gt;14 -->
<g id="edge24" class="edge">
<title>11&#45;&gt;14</title>
<path fill="none" stroke="grey" stroke-width="2" d="M202.91,-215.88C217.16,-206.81 234.85,-195.55 250.24,-185.76"/>
<polygon fill="grey" stroke="grey" stroke-width="2" points="252.43,-188.51 258.99,-180.19 248.67,-182.61 252.43,-188.51"/>
</g>
<!-- 15 -->
<g id="node16" class="node">
<title>15</title>
<path fill="none" stroke="#d8cb56" stroke-width="2" d="M248,-108C248,-108 192,-108 192,-108 186,-108 180,-102 180,-96 180,-96 180,-84 180,-84 180,-78 186,-72 192,-72 192,-72 248,-72 248,-72 254,-72 260,-78 260,-84 260,-84 260,-96 260,-96 260,-102 254,-108 248,-108"/>
<text text-anchor="middle" x="220" y="-87.5" font-family="sans" font-size="10.00">co_aggregate</text>
</g>
<!-- 11&#45;&gt;15 -->
<g id="edge27" class="edge">
<title>11&#45;&gt;15</title>
<path fill="none" stroke="grey" stroke-width="2" d="M181.31,-215.87C188.84,-191.56 202.7,-146.82 211.63,-118.01"/>
<polygon fill="grey" stroke="grey" stroke-width="2" points="215.06,-118.78 214.67,-108.19 208.37,-116.71 215.06,-118.78"/>
</g>
<!-- 12 -->
<g id="node13" class="node">
<title>12</title>
<path fill="none" stroke="#5673d8" stroke-width="2" d="M197.5,-324C197.5,-324 120.5,-324 120.5,-324 114.5,-324 108.5,-318 108.5,-312 108.5,-312 108.5,-300 108.5,-300 108.5,-294 114.5,-288 120.5,-288 120.5,-288 197.5,-288 197.5,-288 203.5,-288 209.5,-294 209.5,-300 209.5,-300 209.5,-312 209.5,-312 209.5,-318 203.5,-324 197.5,-324"/>
<text text-anchor="middle" x="159" y="-303.5" font-family="sans" font-size="10.00">switch_diagnostics</text>
</g>
<!-- 12&#45;&gt;0 -->
<g id="edge4" class="edge">
<title>12&#45;&gt;0</title>
<path fill="none" stroke="grey" stroke-width="2" d="M147.95,-287.61C142.26,-277.62 135.92,-264.58 133,-252 116.05,-178.95 133.46,-89.98 144.47,-46.11"/>
<polygon fill="grey" stroke="grey" stroke-width="2" points="147.91,-46.78 147.04,-36.22 141.14,-45.02 147.91,-46.78"/>
</g>
<!-- 12&#45;&gt;11 -->
<g id="edge20" class="edge">
<title>12&#45;&gt;11</title>
<path fill="none" stroke="grey" stroke-width="2" d="M163.2,-287.7C165.1,-279.9 167.38,-270.51 169.48,-261.83"/>
<polygon fill="grey" stroke="grey" stroke-width="2" points="172.89,-262.65 171.85,-252.1 166.08,-261 172.89,-262.65"/>
</g>
<!-- 13&#45;&gt;12 -->
<g id="edge21" class="edge">
<title>13&#45;&gt;12</title>
<path fill="none" stroke="grey" stroke-width="2" d="M189.11,-359.7C184.51,-351.64 178.94,-341.89 173.85,-332.98"/>
<polygon fill="grey" stroke="grey" stroke-width="2" points="176.77,-331.05 168.77,-324.1 170.7,-334.52 176.77,-331.05"/>
</g>
<!-- 13&#45;&gt;14 -->
<g id="edge23" class="edge">
<title>13&#45;&gt;14</title>
<path fill="none" stroke="grey" stroke-width="2" d="M221.41,-359.88C232.25,-350.44 244.5,-337.84 252,-324 275.24,-281.13 282.6,-223.84 284.93,-190.43"/>
<polygon fill="grey" stroke="grey" stroke-width="2" points="288.45,-190.26 285.54,-180.07 281.46,-189.85 288.45,-190.26"/>
</g>
<!-- 13&#45;&gt;15 -->
<g id="edge25" class="edge">
<title>13&#45;&gt;15</title>
<path fill="none" stroke="grey" stroke-width="2" d="M207.29,-359.78C211.71,-349.63 216.71,-336.38 219,-324 232.54,-250.66 227.1,-162.1 222.99,-118.29"/>
<polygon fill="grey" stroke="grey" stroke-width="2" points="226.45,-117.76 221.99,-108.15 219.49,-118.45 226.45,-117.76"/>
</g>
<!-- 14&#45;&gt;0 -->
<g id="edge2" class="edge">
<title>14&#45;&gt;0</title>
<path fill="none" stroke="grey" stroke-width="2" d="M287.16,-143.69C287.54,-124.22 285.25,-92.64 269,-72 249.39,-47.1 215.49,-33.51 189.21,-26.35"/>
<polygon fill="grey" stroke="grey" stroke-width="2" points="189.75,-22.88 179.2,-23.83 188.04,-29.66 189.75,-22.88"/>
</g>
<!-- 14&#45;&gt;15 -->
<g id="edge26" class="edge">
<title>14&#45;&gt;15</title>
<path fill="none" stroke="grey" stroke-width="2" d="M269.69,-143.7C261.69,-135.22 251.93,-124.86 243.18,-115.58"/>
<polygon fill="grey" stroke="grey" stroke-width="2" points="245.53,-112.98 236.13,-108.1 240.44,-117.78 245.53,-112.98"/>
</g>
<!-- 15&#45;&gt;0 -->
<g id="edge9" class="edge">
<title>15&#45;&gt;0</title>
<path fill="none" stroke="grey" stroke-width="2" d="M203.19,-71.7C194.87,-63.14 184.69,-52.66 175.61,-43.3"/>
<polygon fill="grey" stroke="grey" stroke-width="2" points="178.09,-40.84 168.62,-36.1 173.07,-45.72 178.09,-40.84"/>
</g>
</g>
</svg>
